{"glyphs":{" ":{"ha":361,"x_min":0,"x_max":0,"o":""},"ሀ":{"ha":859,"x_min":125,"x_max":733,"o":"m 733 991 l 733 350 q 653 80 733 174 q 425 -14 574 -14 q 201 81 278 -14 q 125 353 125 175 l 125 991 l 252 991 l 252 346 q 296 156 252 215 q 432 97 340 97 q 564 156 521 97 q 607 347 607 216 l 607 991 l 733 991 z "},"ሁ":{"ha":1064,"x_min":125,"x_max":1008,"o":"m 733 991 l 733 550 l 981 550 l 1008 334 l 982 334 q 903 369 935 334 q 863 458 871 404 l 733 458 l 733 350 q 653 80 733 174 q 425 -14 574 -14 q 201 81 278 -14 q 125 353 125 175 l 125 991 l 252 991 l 252 346 q 296 156 252 215 q 432 97 340 97 q 564 156 521 97 q 607 347 607 216 l 607 991 l 733 991 z "},"ሂ":{"ha":755,"x_min":111,"x_max":700,"o":"m 203 78 l 371 494 q 111 762 111 517 l 111 991 l 237 991 l 237 766 q 407 585 237 599 l 572 991 l 700 991 l 335 92 l 536 92 q 582 170 548 137 q 653 203 615 203 l 679 203 l 657 47 l 679 -111 l 653 -111 q 581 -78 615 -111 q 536 0 547 -45 l 203 0 l 203 78 z "},"ሃ":{"ha":711,"x_min":111,"x_max":700,"o":"m 174 0 l 372 493 q 175 572 239 505 q 111 762 111 640 l 111 991 l 237 991 l 237 766 q 408 585 237 599 l 572 991 l 700 991 l 301 0 l 174 0 z "},"ሄ":{"ha":779,"x_min":111,"x_max":720,"o":"m 216 98 l 374 493 q 176 572 240 505 q 111 762 111 639 l 111 991 l 235 991 l 235 766 q 410 585 235 600 l 572 991 l 700 991 l 449 367 l 530 367 q 669 320 618 367 q 720 195 720 273 q 656 50 720 100 q 476 0 592 0 l 216 0 l 216 98 m 410 272 l 338 92 l 453 92 q 561 116 525 92 q 596 191 596 140 q 490 272 596 272 l 410 272 z "},"ህ":{"ha":1036,"x_min":69,"x_max":911,"o":"m 911 991 l 911 350 q 832 80 911 174 q 603 -14 753 -14 q 380 80 457 -14 q 302 353 302 174 l 302 632 q 122 698 176 638 q 69 888 69 758 l 69 991 l 196 991 l 196 892 q 225 769 196 806 q 330 732 254 732 l 429 732 l 429 346 q 473 156 429 215 q 610 97 517 97 q 742 156 699 97 q 785 347 785 216 l 785 991 l 911 991 z "},"ሆ":{"ha":1105,"x_min":125,"x_max":1050,"o":"m 607 957 q 731 994 703 987 q 787 1003 759 1000 q 844 1006 815 1006 q 999 961 947 1006 q 1050 833 1050 916 q 992 689 1050 740 q 827 639 934 639 l 733 639 l 733 350 q 652 81 733 176 q 422 -14 572 -14 q 201 80 277 -14 q 125 353 125 174 l 125 991 l 252 991 l 252 346 q 296 156 252 215 q 432 97 340 97 q 564 156 521 97 q 607 347 607 216 l 607 957 m 835 911 q 733 888 770 911 l 733 730 l 811 730 q 926 832 926 730 q 903 892 926 874 q 835 911 880 911 z "},"ለ":{"ha":842,"x_min":69,"x_max":786,"o":"m 786 0 l 654 0 l 425 677 q 318 581 359 657 q 248 365 277 505 q 196 0 218 226 l 69 0 q 132 419 93 256 q 230 670 170 583 q 389 782 290 757 l 315 991 l 447 991 l 786 0 z "},"ሉ":{"ha":946,"x_min":69,"x_max":890,"o":"m 599 550 l 863 550 l 890 334 l 864 334 q 785 369 817 334 q 745 458 753 404 l 629 458 l 786 0 l 654 0 l 425 677 q 318 581 359 657 q 248 365 277 505 q 196 0 218 226 l 69 0 q 132 419 93 256 q 230 670 170 583 q 389 782 290 757 l 317 991 l 449 991 l 599 550 z "},"ሊ":{"ha":1090,"x_min":69,"x_max":1035,"o":"m 1013 47 l 1035 -111 l 1008 -111 q 937 -78 970 -111 q 892 0 903 -45 l 654 0 l 425 677 q 318 581 359 657 q 248 365 277 505 q 196 0 218 226 l 69 0 q 132 419 93 256 q 230 670 170 583 q 389 782 290 757 l 317 991 l 449 991 l 754 92 l 892 92 q 937 170 903 137 q 1008 203 970 203 l 1035 203 l 1013 47 z "},"ላ":{"ha":828,"x_min":56,"x_max":772,"o":"m 772 0 l 640 0 l 411 673 q 301 619 340 660 q 235 494 262 578 q 182 245 208 409 l 56 245 q 120 534 80 424 q 219 703 159 645 q 378 777 279 760 l 302 991 l 435 991 l 772 0 z "},"ሌ":{"ha":1086,"x_min":69,"x_max":1031,"o":"m 661 367 l 842 367 q 980 320 929 367 q 1031 195 1031 273 q 967 50 1031 100 q 787 0 903 0 l 654 0 l 425 677 q 318 581 359 657 q 248 365 277 505 q 196 0 218 226 l 69 0 q 132 419 93 256 q 230 670 170 583 q 389 782 290 757 l 317 991 l 449 991 l 661 367 m 693 272 l 754 92 l 764 92 q 871 116 836 92 q 907 191 907 140 q 802 272 907 272 l 693 272 z "},"ል":{"ha":925,"x_min":69,"x_max":869,"o":"m 869 0 l 737 0 l 439 681 q 321 588 365 659 q 245 367 277 517 l 325 367 q 463 320 412 367 q 514 195 514 273 q 450 50 514 100 q 271 0 387 0 l 69 0 q 133 416 93 252 q 235 669 173 581 q 397 782 297 757 l 307 991 l 441 991 l 869 0 m 229 272 q 205 92 215 182 l 248 92 q 355 116 319 92 q 390 191 390 140 q 285 272 390 272 l 229 272 z "},"ሎ":{"ha":1234,"x_min":69,"x_max":1178,"o":"m 575 621 l 778 621 q 951 671 833 671 q 1120 625 1063 671 q 1178 493 1178 579 q 1119 355 1178 406 q 951 304 1060 304 q 785 356 845 304 q 725 493 725 408 q 728 529 725 518 l 606 529 l 786 0 l 654 0 l 425 677 q 318 581 359 657 q 248 365 277 505 q 196 0 218 226 l 69 0 q 132 419 93 256 q 230 670 170 583 q 389 782 290 757 l 317 991 l 449 991 l 575 621 m 951 591 q 876 565 903 591 q 848 493 848 539 q 876 414 848 444 q 951 383 903 383 q 1026 413 999 383 q 1054 493 1054 443 q 1026 566 1054 540 q 951 591 999 591 z "},"ሏ":{"ha":1050,"x_min":56,"x_max":994,"o":"m 183 -111 l 211 92 l 608 92 l 410 677 q 306 619 347 666 q 234 480 264 572 q 182 245 204 389 l 56 245 q 119 536 80 423 q 219 708 159 650 q 375 782 280 766 l 302 991 l 435 991 l 741 92 l 966 92 l 994 -111 l 968 -111 q 898 -81 930 -111 q 850 0 865 -51 l 328 0 q 282 -79 315 -47 q 210 -111 248 -111 l 183 -111 z "},"ሐ":{"ha":1053,"x_min":111,"x_max":942,"o":"m 815 0 l 815 241 q 756 408 815 343 q 589 488 696 473 l 589 0 l 463 0 l 463 488 q 295 410 353 473 q 237 243 237 347 l 237 0 l 111 0 l 111 236 q 206 485 111 387 q 463 599 301 583 l 463 991 l 589 991 l 589 599 q 847 480 752 580 q 942 239 942 380 l 942 0 l 815 0 z "},"ሑ":{"ha":1223,"x_min":111,"x_max":1168,"o":"m 463 488 q 295 410 353 473 q 237 243 237 347 l 237 0 l 111 0 l 111 236 q 206 485 111 387 q 463 599 301 583 l 463 991 l 589 991 l 589 599 q 758 548 686 587 q 875 447 830 508 l 1140 447 l 1168 244 l 1141 244 q 1073 274 1105 244 q 1025 355 1042 304 l 922 355 q 942 239 942 299 l 942 0 l 815 0 l 815 241 q 756 408 815 343 q 589 488 696 473 l 589 0 l 463 0 l 463 488 z "},"ሒ":{"ha":1261,"x_min":111,"x_max":1206,"o":"m 463 488 q 295 410 353 473 q 237 243 237 347 l 237 0 l 111 0 l 111 236 q 206 485 111 387 q 463 599 301 583 l 463 991 l 589 991 l 589 599 q 847 480 752 580 q 942 239 942 380 l 942 92 l 1063 92 q 1108 170 1074 137 q 1179 203 1141 203 l 1206 203 l 1183 47 l 1206 -111 l 1179 -111 q 1107 -78 1141 -111 q 1063 0 1074 -45 l 815 0 l 815 241 q 756 408 815 343 q 589 488 696 473 l 589 0 l 463 0 l 463 488 z "},"ሓ":{"ha":1025,"x_min":83,"x_max":914,"o":"m 787 0 l 787 241 q 727 410 786 346 q 561 488 667 473 l 561 197 l 435 197 l 435 488 q 268 410 326 473 q 210 243 210 347 l 210 197 l 83 197 l 83 236 q 178 485 83 387 q 435 599 273 583 l 435 991 l 561 991 l 561 599 q 819 480 724 580 q 914 239 914 380 l 914 0 l 787 0 z "},"ሔ":{"ha":1315,"x_min":111,"x_max":1260,"o":"m 463 488 q 295 410 353 473 q 237 243 237 347 l 237 0 l 111 0 l 111 236 q 206 485 111 387 q 463 599 301 583 l 463 991 l 589 991 l 589 599 q 796 523 711 584 q 918 367 882 463 l 1071 367 q 1209 320 1158 367 q 1260 195 1260 273 q 1196 50 1260 100 q 1017 0 1133 0 l 815 0 l 815 241 q 756 408 815 343 q 589 488 696 473 l 589 0 l 463 0 l 463 488 m 940 272 q 942 239 942 260 l 942 92 l 993 92 q 1100 116 1065 92 q 1136 191 1136 140 q 1031 272 1136 272 l 940 272 z "},"ሕ":{"ha":1053,"x_min":111,"x_max":942,"o":"m 463 488 q 295 410 353 473 q 237 243 237 347 l 237 0 l 111 0 l 111 236 q 206 485 111 387 q 463 599 301 583 l 463 900 l 222 900 l 195 1117 l 221 1117 q 299 1082 266 1117 q 340 991 332 1047 l 589 991 l 589 599 q 847 480 752 580 q 942 239 942 380 l 942 0 l 815 0 l 815 241 q 756 408 815 343 q 589 488 696 473 l 589 0 l 463 0 l 463 488 z "},"ሖ":{"ha":1025,"x_min":111,"x_max":942,"o":"m 815 197 l 815 237 q 754 406 814 341 q 589 484 694 470 l 589 197 l 463 197 l 463 484 q 295 406 353 469 q 237 239 237 342 l 237 0 l 111 0 l 111 232 q 206 480 111 382 q 463 595 301 578 l 463 991 l 589 991 l 589 595 q 847 476 752 576 q 942 235 942 376 l 942 197 l 815 197 z "},"ሗ":{"ha":1198,"x_min":83,"x_max":1143,"o":"m 407 -125 l 435 92 l 787 92 l 787 237 q 728 404 787 339 q 561 484 669 469 l 561 197 l 435 197 l 435 484 q 268 406 326 469 q 210 239 210 342 l 210 197 l 83 197 l 83 232 q 178 480 83 382 q 435 595 273 578 l 435 991 l 561 991 l 561 595 q 819 476 724 576 q 914 235 914 376 l 914 92 l 1116 92 l 1143 -125 l 1117 -125 q 1045 -89 1078 -125 q 999 0 1013 -53 l 550 0 q 504 -90 536 -54 q 433 -125 471 -125 l 407 -125 z "},"መ":{"ha":1320,"x_min":97,"x_max":1222,"o":"m 754 900 l 614 900 l 614 151 q 359 -14 497 -14 q 97 433 97 -14 q 193 842 97 693 q 457 991 290 991 l 945 991 q 1152 886 1081 991 q 1222 578 1222 781 q 954 102 1222 102 l 754 102 l 754 900 m 366 81 q 430 98 401 81 q 488 155 459 116 l 488 900 l 468 900 q 285 783 349 900 q 221 437 221 667 q 259 173 221 264 q 366 81 298 81 m 880 900 l 880 193 l 936 193 q 1059 280 1019 193 q 1099 553 1099 368 q 1060 815 1099 731 q 942 900 1021 900 l 880 900 z "},"ሙ":{"ha":1527,"x_min":97,"x_max":1471,"o":"m 754 900 l 614 900 l 614 151 q 359 -14 497 -14 q 97 433 97 -14 q 193 842 97 693 q 457 991 290 991 l 945 991 q 1146 893 1076 991 q 1221 610 1216 795 l 1443 610 l 1471 393 l 1444 393 q 1365 429 1397 393 q 1325 518 1333 464 l 1221 518 q 954 102 1204 102 l 754 102 l 754 900 m 366 81 q 430 98 401 81 q 488 155 459 116 l 488 900 l 468 900 q 285 783 349 900 q 221 437 221 667 q 259 173 221 264 q 366 81 298 81 m 880 900 l 880 193 l 936 193 q 1059 280 1019 193 q 1099 553 1099 368 q 1060 815 1099 731 q 942 900 1021 900 l 880 900 z "},"ሚ":{"ha":1383,"x_min":83,"x_max":1328,"o":"m 958 991 q 1217 796 1217 991 q 1202 701 1217 758 q 1143 539 1187 645 l 961 92 l 1185 92 q 1229 169 1196 135 q 1301 203 1263 203 l 1328 203 l 1305 47 l 1328 -110 l 1301 -110 q 1230 -76 1263 -110 q 1185 0 1196 -43 l 827 0 l 827 78 l 1002 503 l 928 503 q 778 551 831 503 q 725 693 725 600 l 728 739 l 741 900 l 600 900 l 600 498 q 477 418 543 448 q 329 389 411 389 q 147 459 210 389 q 83 663 83 530 q 125 834 83 759 q 244 950 166 909 q 422 991 321 991 l 958 991 m 335 484 q 412 493 379 484 q 473 526 445 503 l 473 900 l 427 900 q 264 839 321 900 q 207 660 207 777 q 241 529 207 575 q 335 484 275 484 m 864 900 l 851 754 l 848 705 q 881 620 848 645 q 999 595 913 595 l 1039 595 q 1078 705 1069 675 q 1091 759 1087 736 q 1095 796 1095 782 q 1065 874 1095 849 q 974 900 1036 900 l 864 900 z "},"ማ":{"ha":1286,"x_min":83,"x_max":1217,"o":"m 600 900 l 600 498 q 477 418 543 448 q 329 389 411 389 q 147 459 210 389 q 83 663 83 530 q 125 834 83 759 q 244 950 166 909 q 422 991 321 991 l 958 991 q 1217 796 1217 991 q 1202 701 1217 758 q 1143 539 1187 645 l 924 0 l 794 0 l 1002 503 l 928 503 q 778 551 831 503 q 725 693 725 600 l 728 739 l 741 900 l 600 900 m 335 484 q 412 493 379 484 q 473 526 445 503 l 473 900 l 427 900 q 264 839 321 900 q 207 660 207 777 q 241 529 207 575 q 335 484 275 484 m 864 900 l 851 754 l 848 705 q 881 620 848 645 q 999 595 913 595 l 1039 595 q 1078 705 1069 675 q 1091 759 1087 736 q 1095 796 1095 782 q 1065 874 1095 849 q 974 900 1036 900 l 864 900 z "},"ሜ":{"ha":1390,"x_min":83,"x_max":1335,"o":"m 600 900 l 600 498 q 477 418 543 448 q 329 389 411 389 q 147 459 210 389 q 83 663 83 530 q 125 834 83 759 q 244 950 166 909 q 422 991 321 991 l 958 991 q 1217 796 1217 991 q 1208 729 1217 766 q 1186 651 1200 692 q 1072 367 1173 610 l 1146 367 q 1283 321 1232 367 q 1335 195 1335 275 q 1272 51 1335 101 q 1092 0 1209 0 l 832 0 l 832 92 l 1002 503 l 928 503 q 778 551 831 503 q 725 693 725 600 l 728 739 l 741 900 l 600 900 m 335 484 q 412 493 379 484 q 473 526 445 503 l 473 900 l 427 900 q 264 839 321 900 q 207 660 207 777 q 241 529 207 575 q 335 484 275 484 m 864 900 l 851 754 l 848 705 q 881 620 848 645 q 999 595 913 595 l 1039 595 q 1078 705 1069 675 q 1091 759 1087 736 q 1095 796 1095 782 q 1065 874 1095 849 q 974 900 1036 900 l 864 900 m 1035 272 l 961 92 l 1068 92 q 1176 116 1140 92 q 1211 191 1211 140 q 1105 272 1211 272 l 1035 272 z "},"ም":{"ha":1278,"x_min":83,"x_max":1208,"o":"m 957 991 q 1142 929 1076 991 q 1208 761 1208 867 q 1145 571 1208 639 q 965 504 1081 504 l 741 504 l 741 900 l 600 900 l 600 498 l 403 0 l 273 0 l 441 406 q 329 389 388 389 q 147 459 210 389 q 83 663 83 530 q 125 834 83 759 q 244 950 166 909 q 422 991 321 991 l 957 991 m 335 484 q 412 493 379 484 q 473 526 445 503 l 473 900 l 427 900 q 264 839 321 900 q 207 660 207 777 q 241 529 207 575 q 335 484 275 484 m 867 900 l 867 596 l 942 596 q 1048 637 1011 596 q 1084 754 1084 678 q 1050 862 1084 823 q 954 900 1016 900 l 867 900 z "},"ሞ":{"ha":1278,"x_min":83,"x_max":1208,"o":"m 473 416 q 329 389 406 389 q 147 459 210 389 q 83 663 83 530 q 125 834 83 759 q 244 950 166 909 q 422 991 321 991 l 957 991 q 1142 929 1076 991 q 1208 761 1208 867 q 1145 571 1208 639 q 965 504 1081 504 l 741 504 l 741 900 l 600 900 l 600 0 l 473 0 l 473 416 m 335 484 q 412 493 379 484 q 473 526 445 503 l 473 900 l 427 900 q 264 839 321 900 q 207 660 207 777 q 241 529 207 575 q 335 484 275 484 m 867 900 l 867 596 l 942 596 q 1048 637 1011 596 q 1084 754 1084 678 q 1050 862 1084 823 q 954 900 1016 900 l 867 900 z "},"ሟ":{"ha":1276,"x_min":83,"x_max":1221,"o":"m 600 900 l 600 498 q 477 418 543 448 q 329 389 411 389 q 147 459 210 389 q 83 663 83 530 q 125 834 83 759 q 244 950 166 909 q 422 991 321 991 l 958 991 q 1217 796 1217 991 q 1202 701 1217 758 q 1143 539 1187 645 l 961 92 l 1193 92 l 1221 -111 l 1194 -111 q 1124 -81 1157 -111 q 1076 0 1092 -51 l 715 0 q 668 -81 700 -52 q 599 -111 636 -111 l 572 -111 l 600 92 l 832 92 l 1002 503 l 928 503 q 778 551 831 503 q 725 693 725 600 l 728 739 l 741 900 l 600 900 m 335 484 q 412 493 379 484 q 473 526 445 503 l 473 900 l 427 900 q 264 839 321 900 q 207 660 207 777 q 241 529 207 575 q 335 484 275 484 m 864 900 l 851 754 l 848 705 q 881 620 848 645 q 999 595 913 595 l 1039 595 q 1078 705 1069 675 q 1091 759 1087 736 q 1095 796 1095 782 q 1065 874 1095 849 q 974 900 1036 900 l 864 900 z "},"ሠ":{"ha":1146,"x_min":125,"x_max":1021,"o":"m 510 991 l 636 991 l 636 449 q 669 287 636 338 q 768 236 701 236 q 861 286 829 236 q 895 447 893 335 l 895 991 l 1021 991 l 1021 443 q 954 209 1021 294 q 765 125 886 125 q 608 183 668 125 q 372 -14 557 -14 q 189 72 254 -14 q 125 310 125 157 l 125 991 l 252 991 l 252 310 q 284 148 252 199 q 383 97 317 97 q 478 148 446 97 q 510 313 510 199 l 510 991 z "},"ሡ":{"ha":1352,"x_min":125,"x_max":1296,"o":"m 510 991 l 636 991 l 636 449 q 669 287 636 338 q 768 236 701 236 q 861 286 829 236 q 895 447 893 335 l 895 991 l 1021 991 l 1021 610 l 1268 610 l 1296 393 l 1270 393 q 1190 429 1222 393 q 1150 518 1158 464 l 1021 518 l 1021 443 q 954 209 1021 294 q 765 125 886 125 q 608 183 668 125 q 372 -14 557 -14 q 189 72 254 -14 q 125 310 125 157 l 125 991 l 252 991 l 252 310 q 284 148 252 199 q 383 97 317 97 q 478 148 446 97 q 510 313 510 199 l 510 991 z "},"ሢ":{"ha":1118,"x_min":83,"x_max":1063,"o":"m 764 517 q 724 514 750 514 q 635 527 670 514 q 567 572 600 540 q 330 375 516 375 q 147 460 211 375 q 83 699 83 546 l 83 991 l 210 991 l 210 699 q 242 538 210 589 q 342 486 274 486 q 436 537 404 486 q 468 697 468 587 l 468 991 l 595 991 l 595 838 q 627 677 595 728 q 726 625 659 625 q 821 676 789 625 q 852 836 852 728 l 852 991 l 979 991 l 979 832 q 947 660 979 735 l 717 92 l 920 92 q 964 169 930 135 q 1036 203 998 203 l 1063 203 l 1040 47 l 1063 -110 l 1036 -110 q 964 -76 998 -110 q 920 0 931 -43 l 586 0 l 586 78 l 764 517 z "},"ሣ":{"ha":1118,"x_min":111,"x_max":1007,"o":"m 578 0 l 785 515 l 768 514 l 751 514 q 595 572 654 514 q 358 375 544 375 q 175 460 239 375 q 111 699 111 546 l 111 991 l 237 991 l 237 699 q 270 538 237 589 q 370 486 302 486 q 464 537 432 486 q 496 697 496 587 l 496 991 l 623 991 l 623 838 q 655 675 623 726 q 754 625 687 625 q 849 676 817 625 q 880 836 880 728 l 880 991 l 1007 991 l 1007 832 q 975 660 1007 735 l 707 0 l 578 0 z "},"ሤ":{"ha":1154,"x_min":111,"x_max":1099,"o":"m 790 518 q 751 514 774 514 q 595 572 654 514 q 358 375 544 375 q 175 460 239 375 q 111 699 111 546 l 111 991 l 237 991 l 237 699 q 270 538 237 589 q 370 486 302 486 q 464 537 432 486 q 496 697 496 587 l 496 991 l 623 991 l 623 838 q 655 675 623 726 q 754 625 687 625 q 849 676 817 625 q 880 836 880 728 l 880 991 l 1007 991 l 1007 832 q 975 660 1007 735 l 852 367 l 909 367 q 1048 320 997 367 q 1099 195 1099 273 q 1036 51 1099 101 q 856 0 973 0 l 614 0 l 614 78 l 790 518 m 815 272 l 743 92 l 832 92 q 940 116 904 92 q 975 191 975 140 q 869 272 975 272 l 815 272 z "},"ሥ":{"ha":1293,"x_min":56,"x_max":1182,"o":"m 671 991 l 798 991 l 798 838 q 830 677 798 728 q 929 625 862 625 q 1024 676 992 625 q 1055 836 1055 728 l 1055 991 l 1182 991 l 1182 832 q 1115 598 1182 683 q 926 514 1048 514 q 770 572 829 514 q 533 375 719 375 q 367 440 428 375 l 184 0 l 56 0 l 297 583 q 286 699 286 631 l 286 991 l 412 991 l 412 699 q 445 538 412 589 q 545 486 477 486 q 639 537 607 486 q 671 697 671 587 l 671 991 z "},"ሦ":{"ha":1118,"x_min":111,"x_max":1007,"o":"m 496 991 l 623 991 l 623 838 q 655 675 623 726 q 754 625 687 625 q 849 676 817 625 q 880 836 880 728 l 880 991 l 1007 991 l 1007 832 q 940 600 1007 685 q 751 514 873 514 q 607 561 665 514 l 374 0 l 244 0 l 400 378 q 358 375 387 375 q 175 460 239 375 q 111 699 111 546 l 111 991 l 237 991 l 237 699 q 270 538 237 589 q 370 486 302 486 q 464 537 432 486 q 496 697 496 587 l 496 991 z "},"ሧ":{"ha":1118,"x_min":111,"x_max":1026,"o":"m 350 -111 l 378 92 l 610 92 l 785 515 l 768 514 l 751 514 q 595 572 654 514 q 358 375 544 375 q 175 460 239 375 q 111 699 111 546 l 111 991 l 237 991 l 237 699 q 270 538 237 589 q 370 486 302 486 q 464 537 432 486 q 496 697 496 587 l 496 991 l 623 991 l 623 838 q 655 675 623 726 q 754 625 687 625 q 849 676 817 625 q 880 836 880 728 l 880 991 l 1007 991 l 1007 832 q 975 660 1007 735 l 739 92 l 999 92 l 1026 -111 l 1000 -111 q 930 -81 963 -111 q 882 0 897 -52 l 493 0 q 448 -79 480 -47 q 376 -111 415 -111 l 350 -111 z "},"ረ":{"ha":737,"x_min":69,"x_max":682,"o":"m 385 0 q 146 58 224 0 q 69 241 69 117 q 130 455 69 359 q 345 675 191 551 q 433 768 400 720 q 481 866 466 815 q 496 991 496 916 l 624 991 q 572 765 624 863 q 414 586 520 666 q 249 416 301 500 q 196 241 196 332 q 242 127 196 162 q 385 92 289 92 l 539 92 q 585 171 553 138 q 656 203 618 203 l 682 203 l 660 47 l 682 -111 l 656 -111 q 585 -78 618 -111 q 539 0 551 -45 l 385 0 z "},"ሩ":{"ha":869,"x_min":69,"x_max":814,"o":"m 440 268 l 385 268 q 145 313 222 268 q 69 460 69 357 q 129 610 69 541 q 317 747 188 679 q 450 853 404 794 q 496 991 496 911 l 624 991 q 565 807 624 892 q 397 667 506 723 q 243 565 290 612 q 196 464 196 518 q 242 384 196 408 q 385 359 288 359 l 786 359 l 814 157 l 787 157 q 719 187 751 157 q 671 268 686 218 l 567 268 l 567 0 l 440 0 l 440 268 z "},"ሪ":{"ha":789,"x_min":69,"x_max":720,"o":"m 386 -14 q 69 241 69 -14 q 128 450 69 357 q 345 671 186 544 q 433 764 400 716 q 480 863 465 812 q 496 991 496 913 l 624 991 q 572 763 624 863 q 414 582 521 663 q 248 413 300 495 q 196 241 196 330 q 246 120 196 163 q 386 78 296 78 q 539 136 488 78 q 591 302 591 193 l 591 355 l 720 355 l 720 315 q 386 -14 720 -14 z "},"ራ":{"ha":932,"x_min":69,"x_max":876,"o":"m 733 340 q 570 264 620 340 q 513 0 521 187 l 385 0 q 146 58 224 0 q 69 241 69 117 q 128 450 69 357 q 345 671 186 544 q 433 764 400 716 q 480 863 465 812 q 496 991 496 913 l 610 991 q 562 756 610 854 q 414 582 514 658 q 248 413 300 495 q 196 241 196 330 q 243 128 196 164 q 387 92 290 92 q 486 352 407 273 q 729 432 565 432 l 848 432 l 876 229 l 850 229 q 781 260 813 229 q 733 340 749 290 z "},"ሬ":{"ha":889,"x_min":69,"x_max":833,"o":"m 385 0 q 146 58 224 0 q 69 241 69 117 q 128 450 69 357 q 345 671 186 544 q 433 764 400 716 q 480 863 465 812 q 496 991 496 913 l 610 991 q 562 756 610 854 q 414 582 514 658 q 248 413 300 495 q 196 241 196 330 q 242 127 196 162 q 385 92 289 92 q 353 203 353 138 q 415 345 353 296 q 593 395 477 395 q 771 346 709 395 q 833 203 833 296 q 769 54 833 109 q 593 0 705 0 l 385 0 m 593 314 q 507 284 538 314 q 476 201 476 254 q 507 113 476 148 q 593 78 538 78 q 679 113 647 78 q 710 201 710 148 q 679 284 710 254 q 593 314 648 314 z "},"ር":{"ha":753,"x_min":125,"x_max":697,"o":"m 465 0 q 255 29 324 0 q 156 124 186 58 q 125 313 125 190 l 125 407 q 165 748 125 624 q 293 932 205 873 q 524 991 380 991 l 669 991 l 697 789 l 671 789 q 602 819 634 789 q 554 900 570 850 l 524 900 q 317 784 382 900 q 252 408 252 668 l 252 298 q 270 172 252 216 q 331 110 289 129 q 469 92 372 92 l 554 92 q 601 172 568 140 q 671 203 634 203 l 697 203 l 675 47 l 697 -111 l 671 -111 q 601 -80 634 -111 q 554 0 568 -48 l 465 0 z "},"ሮ":{"ha":900,"x_min":125,"x_max":844,"o":"m 604 597 q 428 653 492 597 q 364 800 364 709 q 374 869 364 842 q 281 720 310 827 q 252 408 252 612 l 252 298 q 270 172 252 216 q 331 110 289 128 q 468 92 374 92 l 554 92 q 603 173 571 143 q 671 203 635 203 l 697 203 l 675 47 l 697 -111 l 671 -111 q 602 -81 634 -111 q 554 0 570 -50 l 465 0 q 256 29 326 0 q 156 125 186 58 q 125 311 125 191 l 125 407 q 165 748 125 624 q 293 932 205 873 q 524 991 380 991 l 604 991 q 783 943 722 991 q 844 800 844 894 q 781 652 844 707 q 604 597 718 597 m 604 911 q 519 881 551 911 q 488 799 488 851 q 520 709 488 744 q 604 675 552 675 q 689 709 656 675 q 721 799 721 744 q 689 881 721 851 q 604 911 658 911 z "},"ሯ":{"ha":932,"x_min":69,"x_max":876,"o":"m 186 1051 q 257 1019 224 1051 q 302 940 290 987 l 732 940 q 780 1021 747 990 q 850 1051 813 1051 l 876 1051 l 848 848 l 595 848 q 414 582 558 690 q 248 413 300 495 q 196 241 196 330 q 243 128 196 164 q 387 92 290 92 q 486 352 407 273 q 729 432 565 432 l 848 432 l 876 229 l 850 229 q 781 260 813 229 q 733 340 749 290 q 570 264 620 340 q 513 0 521 187 l 385 0 q 146 58 224 0 q 69 241 69 117 q 95 384 69 319 q 175 513 120 448 q 345 671 230 577 q 476 848 445 755 l 187 848 l 160 1051 l 186 1051 z "},"ሰ":{"ha":859,"x_min":125,"x_max":733,"o":"m 607 0 l 607 501 q 564 692 607 632 q 432 751 521 751 q 296 693 340 751 q 252 503 252 634 l 252 0 l 125 0 l 125 496 q 186 747 125 654 q 366 859 247 840 l 366 1055 l 492 1055 l 492 857 q 672 747 610 839 q 733 498 733 656 l 733 0 l 607 0 z "},"ሱ":{"ha":1064,"x_min":125,"x_max":1008,"o":"m 733 0 l 607 0 l 607 501 q 564 692 607 632 q 432 751 521 751 q 296 693 340 751 q 252 503 252 634 l 252 0 l 125 0 l 125 496 q 186 747 125 654 q 366 859 247 840 l 366 1055 l 492 1055 l 492 857 q 672 747 610 839 q 733 498 733 656 l 733 494 l 981 494 l 1008 278 l 982 278 q 903 313 935 278 q 863 403 871 349 l 733 403 l 733 0 z "},"ሲ":{"ha":1078,"x_min":125,"x_max":1022,"o":"m 607 501 q 564 692 607 632 q 432 751 521 751 q 296 693 340 751 q 252 503 252 634 l 252 0 l 125 0 l 125 496 q 186 747 125 654 q 366 859 247 840 l 366 1055 l 492 1055 l 492 857 q 672 747 610 839 q 733 498 733 656 l 733 92 l 879 92 q 926 172 893 140 q 996 203 959 203 l 1022 203 l 1000 47 l 1022 -111 l 996 -111 q 926 -80 959 -111 q 879 0 892 -48 l 607 0 l 607 501 z "},"ሳ":{"ha":844,"x_min":111,"x_max":720,"o":"m 593 0 l 593 501 q 550 692 593 632 q 418 751 507 751 q 281 692 326 751 q 237 503 237 633 l 237 329 l 111 329 l 111 496 q 172 748 111 656 q 351 859 233 840 l 351 1055 l 478 1055 l 478 857 q 658 747 597 839 q 720 498 720 656 l 720 0 l 593 0 z "},"ሴ":{"ha":1105,"x_min":125,"x_max":1050,"o":"m 607 0 l 607 501 q 564 692 607 632 q 432 751 521 751 q 296 693 340 751 q 252 503 252 634 l 252 0 l 125 0 l 125 496 q 186 747 125 654 q 366 859 247 840 l 366 1055 l 492 1055 l 492 857 q 672 747 610 839 q 733 498 733 656 l 733 367 l 861 367 q 999 321 948 367 q 1050 195 1050 275 q 987 51 1050 101 q 807 0 924 0 l 607 0 m 733 272 l 733 92 l 783 92 q 891 116 855 92 q 926 191 926 140 q 821 272 926 272 l 733 272 z "},"ስ":{"ha":859,"x_min":125,"x_max":733,"o":"m 607 0 l 607 501 q 564 692 607 632 q 432 751 521 751 q 296 693 340 751 q 252 503 252 634 l 252 0 l 125 0 l 125 496 q 182 740 125 648 q 349 854 239 832 l 257 1055 l 395 1055 l 485 859 q 670 750 607 840 q 733 498 733 660 l 733 0 l 607 0 z "},"ሶ":{"ha":844,"x_min":125,"x_max":733,"o":"m 607 329 l 607 501 q 564 692 607 632 q 432 751 521 751 q 296 693 340 751 q 252 503 252 634 l 252 0 l 125 0 l 125 496 q 186 747 125 654 q 366 859 247 840 l 366 1055 l 492 1055 l 492 857 q 672 747 610 839 q 733 498 733 656 l 733 329 l 607 329 z "},"ሷ":{"ha":1014,"x_min":83,"x_max":958,"o":"m 83 -111 l 111 92 l 593 92 l 593 501 q 550 692 593 632 q 418 751 507 751 q 281 692 326 751 q 237 503 237 633 l 237 329 l 111 329 l 111 496 q 172 748 111 656 q 351 859 233 840 l 351 1055 l 478 1055 l 478 857 q 658 747 597 839 q 720 498 720 656 l 720 92 l 930 92 l 958 -111 l 932 -111 q 862 -81 895 -111 q 814 0 829 -51 l 227 0 q 179 -81 211 -52 q 110 -111 147 -111 l 83 -111 z "},"ሸ":{"ha":859,"x_min":110,"x_max":749,"o":"m 607 0 l 607 501 q 564 692 607 632 q 432 751 521 751 q 296 693 340 751 q 252 503 252 634 l 252 0 l 125 0 l 125 496 q 186 747 125 654 q 366 859 247 840 l 366 991 l 253 991 q 209 922 240 949 q 136 895 177 895 l 110 895 l 132 1031 l 110 1166 l 136 1166 q 208 1139 176 1166 q 253 1069 239 1112 l 606 1069 q 649 1138 617 1110 q 722 1166 680 1166 l 749 1166 l 726 1031 l 749 895 l 722 895 q 648 923 680 895 q 606 991 616 952 l 492 991 l 492 857 q 672 747 610 839 q 733 498 733 656 l 733 0 l 607 0 z "},"ሹ":{"ha":1064,"x_min":110,"x_max":1008,"o":"m 733 0 l 607 0 l 607 501 q 564 692 607 632 q 432 751 521 751 q 296 693 340 751 q 252 503 252 634 l 252 0 l 125 0 l 125 496 q 186 747 125 654 q 366 859 247 840 l 366 991 l 253 991 q 209 922 240 949 q 136 895 177 895 l 110 895 l 132 1031 l 110 1166 l 136 1166 q 208 1139 176 1166 q 253 1069 239 1112 l 606 1069 q 649 1138 617 1110 q 722 1166 680 1166 l 749 1166 l 726 1031 l 749 895 l 722 895 q 648 923 680 895 q 606 991 616 952 l 492 991 l 492 857 q 672 747 610 839 q 733 498 733 656 l 733 494 l 981 494 l 1008 278 l 982 278 q 903 313 935 278 q 863 403 871 349 l 733 403 l 733 0 z "},"ሺ":{"ha":1078,"x_min":110,"x_max":1022,"o":"m 749 1166 l 726 1031 l 749 895 l 722 895 q 648 923 680 895 q 606 991 616 952 l 492 991 l 492 857 q 672 747 610 839 q 733 498 733 656 l 733 92 l 879 92 q 926 172 893 140 q 996 203 959 203 l 1022 203 l 1000 47 l 1022 -111 l 996 -111 q 926 -80 959 -111 q 879 0 892 -48 l 607 0 l 607 501 q 564 692 607 632 q 432 751 521 751 q 296 693 340 751 q 252 503 252 634 l 252 0 l 125 0 l 125 496 q 186 747 125 654 q 366 859 247 840 l 366 991 l 253 991 q 209 922 240 949 q 136 895 177 895 l 110 895 l 132 1031 l 110 1166 l 136 1166 q 208 1139 176 1166 q 253 1069 239 1112 l 606 1069 q 649 1138 617 1110 q 722 1166 680 1166 l 749 1166 z "},"ሻ":{"ha":844,"x_min":96,"x_max":734,"o":"m 593 0 l 593 501 q 550 692 593 632 q 418 751 507 751 q 281 692 326 751 q 237 503 237 633 l 237 329 l 111 329 l 111 496 q 172 748 111 656 q 351 859 233 840 l 351 991 l 239 991 q 195 923 227 951 q 122 895 163 895 l 96 895 l 118 1031 l 96 1166 l 122 1166 q 195 1139 162 1166 q 239 1069 227 1111 l 591 1069 q 637 1140 606 1114 q 708 1166 668 1166 l 734 1166 l 713 1031 l 734 895 l 708 895 q 636 921 667 895 q 591 991 605 948 l 478 991 l 478 857 q 658 747 597 839 q 720 498 720 656 l 720 0 l 593 0 z "},"ሼ":{"ha":1105,"x_min":110,"x_max":1050,"o":"m 749 1166 l 726 1031 l 749 895 l 722 895 q 648 923 680 895 q 606 991 616 952 l 492 991 l 492 857 q 672 747 610 839 q 733 498 733 656 l 733 367 l 861 367 q 999 321 948 367 q 1050 195 1050 275 q 987 51 1050 101 q 807 0 924 0 l 607 0 l 607 501 q 564 692 607 632 q 432 751 521 751 q 296 693 340 751 q 252 503 252 634 l 252 0 l 125 0 l 125 496 q 186 747 125 654 q 366 859 247 840 l 366 991 l 253 991 q 209 922 240 949 q 136 895 177 895 l 110 895 l 132 1031 l 110 1166 l 136 1166 q 208 1139 176 1166 q 253 1069 239 1112 l 606 1069 q 649 1138 617 1110 q 722 1166 680 1166 l 749 1166 m 733 272 l 733 92 l 783 92 q 891 116 855 92 q 926 191 926 140 q 821 272 926 272 l 733 272 z "},"ሽ":{"ha":873,"x_min":56,"x_max":749,"o":"m 623 0 l 623 501 q 579 692 623 632 q 447 751 536 751 q 311 692 355 751 q 267 503 267 633 l 267 0 l 140 0 l 140 496 q 197 741 140 650 q 364 854 254 831 l 301 991 l 199 991 q 154 922 186 949 q 82 895 123 895 l 56 895 l 78 1031 l 56 1166 l 82 1166 q 154 1139 122 1166 q 199 1069 185 1112 l 551 1069 q 597 1140 566 1114 q 668 1166 628 1166 l 694 1166 l 672 1031 l 694 895 l 668 895 q 596 921 627 895 q 551 991 565 948 l 439 991 l 500 859 q 686 750 623 840 q 749 498 749 661 l 749 0 l 623 0 z "},"ሾ":{"ha":844,"x_min":110,"x_max":749,"o":"m 607 329 l 607 501 q 564 692 607 632 q 432 751 521 751 q 296 693 340 751 q 252 503 252 634 l 252 0 l 125 0 l 125 496 q 186 747 125 654 q 366 859 247 840 l 366 991 l 253 991 q 209 922 240 949 q 136 895 177 895 l 110 895 l 132 1031 l 110 1166 l 136 1166 q 208 1139 176 1166 q 253 1069 239 1112 l 606 1069 q 649 1138 617 1110 q 722 1166 680 1166 l 749 1166 l 726 1031 l 749 895 l 722 895 q 648 923 680 895 q 606 991 616 952 l 492 991 l 492 857 q 672 747 610 839 q 733 498 733 656 l 733 329 l 607 329 z "},"ሿ":{"ha":1014,"x_min":96,"x_max":958,"o":"m 97 -111 l 125 92 l 593 92 l 593 501 q 550 692 593 632 q 418 751 507 751 q 281 692 326 751 q 237 503 237 633 l 237 329 l 111 329 l 111 496 q 172 748 111 656 q 351 859 233 840 l 351 991 l 239 991 q 195 923 227 951 q 122 895 163 895 l 96 895 l 118 1031 l 96 1166 l 122 1166 q 195 1139 162 1166 q 239 1069 227 1111 l 606 1069 q 649 1138 617 1110 q 722 1166 680 1166 l 749 1166 l 726 1031 l 749 895 l 722 895 q 648 923 680 895 q 606 991 616 952 l 478 991 l 478 857 q 658 747 597 839 q 720 498 720 656 l 720 92 l 930 92 l 958 -111 l 932 -111 q 862 -81 895 -111 q 814 0 829 -51 l 240 0 q 195 -79 227 -47 q 123 -111 162 -111 l 97 -111 z "},"ቀ":{"ha":926,"x_min":69,"x_max":857,"o":"m 526 0 l 400 0 l 400 332 q 154 387 239 332 q 69 554 69 442 q 152 724 69 671 q 400 777 234 777 l 400 991 l 526 991 l 526 777 q 774 723 691 777 q 857 554 857 669 q 771 388 857 445 q 526 332 685 332 l 526 0 m 400 685 q 244 655 296 685 q 193 555 193 625 q 214 477 193 503 q 281 437 235 450 q 400 424 326 424 l 400 685 m 526 424 q 683 454 633 424 q 733 554 733 484 q 682 654 733 623 q 526 685 631 685 l 526 424 z "},"ቁ":{"ha":926,"x_min":69,"x_max":857,"o":"m 774 258 l 802 41 l 775 41 q 696 77 729 41 q 656 167 664 112 l 526 167 l 526 0 l 400 0 l 400 332 q 154 387 239 332 q 69 554 69 442 q 152 724 69 671 q 400 777 234 777 l 400 991 l 526 991 l 526 777 q 774 723 691 777 q 857 554 857 669 q 771 388 857 445 q 526 332 685 332 l 526 258 l 774 258 m 400 685 q 244 655 296 685 q 193 555 193 625 q 214 477 193 503 q 281 437 235 450 q 400 424 326 424 l 400 685 m 526 424 q 683 454 633 424 q 733 554 733 484 q 682 654 733 623 q 526 685 631 685 l 526 424 z "},"ቂ":{"ha":926,"x_min":69,"x_max":857,"o":"m 526 775 q 774 721 691 775 q 857 553 857 667 q 771 387 857 444 q 526 330 685 330 l 526 92 l 693 92 q 738 170 705 137 q 810 203 772 203 l 836 203 l 814 47 l 836 -111 l 810 -111 q 738 -78 772 -111 q 693 0 704 -45 l 400 0 l 400 330 q 154 386 239 330 q 69 553 69 441 q 152 722 69 669 q 400 775 234 775 l 400 991 l 526 991 l 526 775 m 400 684 q 244 654 296 684 q 193 554 193 624 q 214 475 193 502 q 281 436 235 449 q 400 422 326 422 l 400 684 m 526 422 q 683 452 633 422 q 733 553 733 482 q 682 652 733 621 q 526 684 631 684 l 526 422 z "},"ቃ":{"ha":942,"x_min":56,"x_max":872,"o":"m 221 0 l 199 0 q 151 -81 183 -52 q 82 -111 119 -111 l 56 -111 l 83 92 l 216 92 q 337 113 295 92 q 397 184 378 135 q 415 332 415 233 q 169 387 254 332 q 85 554 85 441 q 167 724 85 671 q 415 777 250 777 l 415 991 l 542 991 l 542 777 q 789 723 706 777 q 872 554 872 670 q 787 388 872 445 q 542 332 702 332 q 508 134 540 205 q 409 32 477 64 q 221 0 340 0 m 415 685 q 259 655 311 685 q 208 555 208 625 q 229 477 208 503 q 296 437 250 450 q 415 424 341 424 l 415 685 m 542 424 q 699 454 649 424 q 749 554 749 484 q 698 654 749 623 q 542 685 647 685 l 542 424 z "},"ቄ":{"ha":926,"x_min":69,"x_max":857,"o":"m 526 325 l 656 325 q 797 286 749 325 q 844 171 844 246 q 786 42 844 84 q 602 0 728 0 l 400 0 l 400 424 q 69 646 69 424 q 152 815 69 762 q 400 868 234 868 l 400 991 l 526 991 l 526 868 q 775 814 694 868 q 857 646 857 760 q 772 480 857 537 q 526 424 686 424 l 526 325 m 400 777 q 244 747 296 777 q 193 647 193 717 q 214 568 193 595 q 281 529 235 542 q 400 515 326 515 l 400 777 m 526 515 q 683 545 633 515 q 733 646 733 575 q 682 745 733 714 q 526 777 631 777 l 526 515 m 526 231 l 526 92 l 578 92 q 691 107 661 92 q 721 167 721 123 q 700 216 721 201 q 615 231 679 231 l 526 231 z "},"ቅ":{"ha":926,"x_min":69,"x_max":857,"o":"m 526 777 q 774 723 691 777 q 857 554 857 669 q 771 388 857 445 q 526 332 685 332 l 526 0 l 400 0 l 400 332 q 154 387 239 332 q 69 554 69 442 q 152 724 69 671 q 400 777 234 777 l 400 991 l 160 991 l 132 1166 l 158 1166 q 229 1139 199 1166 q 271 1069 258 1112 l 526 1069 l 526 777 m 400 685 q 244 655 296 685 q 193 555 193 625 q 214 477 193 503 q 281 437 235 450 q 400 424 326 424 l 400 685 m 526 424 q 683 454 633 424 q 733 554 733 484 q 682 654 733 623 q 526 685 631 685 l 526 424 z "},"ቆ":{"ha":926,"x_min":69,"x_max":857,"o":"m 424 718 q 313 777 357 730 q 269 888 269 823 q 323 1020 269 970 q 464 1069 377 1069 q 604 1025 552 1069 q 656 904 656 981 q 587 747 656 818 q 537 690 548 708 q 526 661 526 673 l 526 659 q 774 605 692 659 q 857 437 857 551 q 771 272 857 328 q 526 215 685 215 l 526 0 l 400 0 l 400 215 q 154 270 239 215 q 69 437 69 326 q 151 605 69 551 q 400 659 233 659 q 424 718 404 691 m 400 568 q 244 538 296 568 q 193 439 193 509 q 214 360 193 387 q 281 320 235 334 q 400 307 326 307 l 400 568 m 526 307 q 683 337 633 307 q 733 437 733 367 q 682 537 733 506 q 526 568 631 568 l 526 307 m 463 975 q 413 952 432 975 q 393 896 393 929 q 484 798 393 822 q 532 900 532 842 q 514 955 532 935 q 463 975 497 975 z "},"ቈ":{"ha":1015,"x_min":69,"x_max":960,"o":"m 777 49 q 642 90 692 49 q 593 203 593 131 q 606 268 593 238 l 526 268 l 526 0 l 400 0 l 400 401 q 154 457 239 401 q 69 624 69 512 q 151 792 69 739 q 400 846 232 846 l 400 991 l 526 991 l 526 846 q 775 791 694 846 q 857 624 857 737 q 771 458 857 515 q 526 401 685 401 l 526 346 l 777 346 q 913 309 867 346 q 960 203 960 271 q 910 89 960 130 q 777 49 861 49 m 400 754 q 244 724 296 754 q 193 625 193 694 q 214 547 193 574 q 279 507 234 520 q 400 493 323 493 l 400 754 m 526 493 q 682 523 631 493 q 733 624 733 553 q 682 723 733 692 q 526 754 631 754 l 526 493 m 777 272 q 721 254 741 272 q 701 203 701 235 q 722 143 701 165 q 777 121 742 121 q 831 142 810 121 q 851 203 851 163 q 831 254 851 235 q 777 272 811 272 z "},"ቊ":{"ha":1308,"x_min":69,"x_max":1253,"o":"m 1226 260 q 1148 295 1181 260 q 1107 385 1115 330 l 964 385 l 964 511 l 852 511 q 753 377 836 423 q 526 332 671 332 l 526 0 l 400 0 l 400 332 q 154 387 239 332 q 69 554 69 442 q 152 724 69 671 q 400 777 234 777 l 400 991 l 526 991 l 526 777 q 754 734 672 777 q 852 603 836 692 l 964 603 l 964 717 l 1090 717 l 1090 476 l 1225 476 l 1253 260 l 1226 260 m 400 685 q 244 655 296 685 q 193 555 193 625 q 214 477 193 503 q 281 437 235 450 q 400 424 326 424 l 400 685 m 526 424 q 683 454 633 424 q 733 554 733 484 q 682 654 733 623 q 526 685 631 685 l 526 424 z "},"ቋ":{"ha":926,"x_min":69,"x_max":857,"o":"m 118 74 l 146 277 l 400 277 l 400 401 q 154 457 239 401 q 69 624 69 512 q 151 792 69 739 q 400 846 232 846 l 400 991 l 526 991 l 526 846 q 775 791 694 846 q 857 624 857 737 q 771 458 857 515 q 526 401 685 401 l 526 277 l 799 277 l 799 0 l 672 0 l 672 184 l 261 184 q 215 104 247 134 q 144 74 182 74 l 118 74 m 400 754 q 244 724 296 754 q 193 625 193 694 q 214 547 193 574 q 279 507 234 520 q 400 493 323 493 l 400 754 m 526 493 q 682 523 631 493 q 733 624 733 553 q 682 723 733 692 q 526 754 631 754 l 526 493 z "},"ቌ":{"ha":926,"x_min":69,"x_max":857,"o":"m 279 0 q 238 -90 271 -56 q 160 -125 204 -125 l 134 -125 l 161 92 l 400 92 l 400 401 q 154 457 239 401 q 69 624 69 512 q 151 792 69 739 q 400 846 232 846 l 400 1069 l 526 1069 l 526 846 q 775 791 694 846 q 857 624 857 737 q 771 458 857 515 q 526 401 685 401 l 526 325 l 656 325 q 797 286 749 325 q 844 171 844 246 q 786 42 844 84 q 602 0 728 0 l 279 0 m 400 754 q 244 724 296 754 q 193 625 193 694 q 214 547 193 574 q 279 507 234 520 q 400 493 323 493 l 400 754 m 526 493 q 682 523 631 493 q 733 624 733 553 q 682 723 733 692 q 526 754 631 754 l 526 493 m 526 231 l 526 92 l 578 92 q 691 107 661 92 q 721 167 721 123 q 700 216 721 201 q 615 231 679 231 l 526 231 z "},"ቍ":{"ha":1308,"x_min":69,"x_max":1253,"o":"m 1226 386 q 1148 421 1181 386 q 1107 511 1115 456 l 852 511 q 753 377 836 423 q 526 332 671 332 l 526 0 l 400 0 l 400 332 q 154 387 239 332 q 69 554 69 442 q 152 724 69 671 q 400 777 234 777 l 400 991 l 526 991 l 526 777 q 754 734 672 777 q 852 603 836 692 l 964 603 l 964 807 l 1090 807 l 1090 603 l 1225 603 l 1253 386 l 1226 386 m 400 685 q 244 655 296 685 q 193 555 193 625 q 214 477 193 503 q 281 437 235 450 q 400 424 326 424 l 400 685 m 526 424 q 683 454 633 424 q 733 554 733 484 q 682 654 733 623 q 526 685 631 685 l 526 424 z "},"ቐ":{"ha":926,"x_min":69,"x_max":857,"o":"m 798 1166 l 775 1031 l 798 895 l 771 895 q 697 923 729 895 q 654 991 665 952 l 526 991 l 526 777 q 774 723 691 777 q 857 554 857 669 q 771 388 857 445 q 526 332 685 332 l 526 0 l 400 0 l 400 332 q 154 387 239 332 q 69 554 69 442 q 152 724 69 671 q 400 777 234 777 l 400 991 l 273 991 q 230 923 262 951 q 157 895 197 895 l 131 895 l 153 1031 l 131 1166 l 157 1166 q 229 1139 197 1166 q 273 1069 262 1111 l 654 1069 q 697 1138 666 1110 q 771 1166 729 1166 l 798 1166 m 400 685 q 244 655 296 685 q 193 555 193 625 q 214 477 193 503 q 281 437 235 450 q 400 424 326 424 l 400 685 m 526 424 q 683 454 633 424 q 733 554 733 484 q 682 654 733 623 q 526 685 631 685 l 526 424 z "},"ቑ":{"ha":926,"x_min":69,"x_max":857,"o":"m 526 258 l 774 258 l 802 41 l 775 41 q 696 77 729 41 q 656 167 664 112 l 526 167 l 526 0 l 400 0 l 400 359 q 154 415 239 359 q 69 582 69 470 q 152 751 69 699 q 400 804 234 804 l 400 991 l 273 991 q 230 923 262 951 q 157 895 197 895 l 131 895 l 153 1031 l 131 1166 l 157 1166 q 229 1139 197 1166 q 273 1069 262 1111 l 654 1069 q 697 1138 666 1110 q 771 1166 729 1166 l 798 1166 l 775 1031 l 798 895 l 771 895 q 697 923 729 895 q 654 991 665 952 l 526 991 l 526 804 q 774 750 691 804 q 857 582 857 696 q 771 416 857 473 q 526 359 685 359 l 526 258 m 400 713 q 244 683 296 713 q 193 583 193 653 q 214 505 193 531 q 281 465 235 478 q 400 452 326 452 l 400 713 m 526 452 q 683 481 633 452 q 733 582 733 511 q 682 682 733 650 q 526 713 631 713 l 526 452 z "},"ቒ":{"ha":926,"x_min":69,"x_max":857,"o":"m 798 1166 l 775 1031 l 798 895 l 771 895 q 697 923 729 895 q 654 991 665 952 l 526 991 l 526 804 q 774 750 691 804 q 857 582 857 696 q 771 416 857 473 q 526 359 685 359 l 526 92 l 672 92 q 719 172 686 140 q 789 203 752 203 l 815 203 l 793 47 l 815 -111 l 789 -111 q 719 -80 752 -111 q 672 0 686 -48 l 400 0 l 400 359 q 154 415 239 359 q 69 582 69 470 q 152 751 69 699 q 400 804 234 804 l 400 991 l 273 991 q 230 923 262 951 q 157 895 197 895 l 131 895 l 153 1031 l 131 1166 l 157 1166 q 229 1139 197 1166 q 273 1069 262 1111 l 654 1069 q 697 1138 666 1110 q 771 1166 729 1166 l 798 1166 m 400 713 q 244 683 296 713 q 193 583 193 653 q 214 505 193 531 q 281 465 235 478 q 400 452 326 452 l 400 713 m 526 452 q 683 481 633 452 q 733 582 733 511 q 682 682 733 650 q 526 713 631 713 l 526 452 z "},"ቓ":{"ha":940,"x_min":56,"x_max":871,"o":"m 808 1166 l 786 1031 l 808 895 l 782 895 q 710 921 741 895 q 665 991 679 948 l 541 991 l 541 777 q 788 723 705 777 q 871 554 871 670 q 786 388 871 445 q 541 332 701 332 q 507 134 538 203 q 407 32 475 64 q 221 0 339 0 l 199 0 q 151 -81 183 -52 q 82 -111 119 -111 l 56 -111 l 83 92 l 216 92 q 336 113 294 92 q 395 183 377 134 q 414 332 414 232 q 168 387 252 332 q 83 554 83 441 q 166 724 83 671 q 414 777 248 777 l 414 991 l 285 991 q 240 922 272 949 q 168 895 209 895 l 142 895 l 164 1031 l 142 1166 l 168 1166 q 240 1139 208 1166 q 285 1069 271 1112 l 665 1069 q 711 1140 680 1114 q 782 1166 742 1166 l 808 1166 m 414 685 q 258 655 309 685 q 207 555 207 625 q 228 477 207 503 q 294 437 249 450 q 414 424 340 424 l 414 685 m 541 424 q 697 454 648 424 q 747 554 747 484 q 697 653 747 622 q 541 685 646 685 l 541 424 z "},"ቔ":{"ha":926,"x_min":69,"x_max":857,"o":"m 798 1166 l 775 1031 l 798 895 l 771 895 q 697 923 729 895 q 654 991 665 952 l 526 991 l 526 846 q 775 791 694 846 q 857 624 857 737 q 771 458 857 515 q 526 401 685 401 l 526 325 l 656 325 q 797 286 749 325 q 844 171 844 246 q 786 42 844 84 q 602 0 728 0 l 400 0 l 400 401 q 154 457 239 401 q 69 624 69 512 q 151 792 69 739 q 400 846 232 846 l 400 991 l 273 991 q 230 923 262 951 q 157 895 197 895 l 131 895 l 153 1031 l 131 1166 l 157 1166 q 229 1139 197 1166 q 273 1069 262 1111 l 654 1069 q 697 1138 666 1110 q 771 1166 729 1166 l 798 1166 m 400 754 q 244 724 296 754 q 193 625 193 694 q 214 547 193 574 q 279 507 234 520 q 400 493 323 493 l 400 754 m 526 493 q 682 523 631 493 q 733 624 733 553 q 682 723 733 692 q 526 754 631 754 l 526 493 m 526 231 l 526 92 l 578 92 q 691 107 661 92 q 721 167 721 123 q 700 216 721 201 q 615 231 679 231 l 526 231 z "},"ቕ":{"ha":1099,"x_min":69,"x_max":1029,"o":"m 736 1166 l 714 1031 l 736 895 l 710 895 q 638 922 669 895 q 593 991 606 949 l 465 991 q 494 871 465 908 q 591 833 524 833 l 699 833 l 699 665 q 948 611 866 665 q 1029 443 1029 557 q 944 278 1029 334 q 699 221 859 221 l 699 0 l 572 0 l 572 221 q 241 443 241 221 q 324 612 241 559 q 572 665 406 665 l 572 733 q 434 766 482 739 q 362 848 386 793 q 339 991 339 903 l 212 991 q 169 923 201 951 q 96 895 136 895 l 69 895 l 92 1031 l 69 1166 l 96 1166 q 168 1139 136 1166 q 212 1069 201 1111 l 593 1069 q 638 1140 606 1113 q 710 1166 669 1166 l 736 1166 m 572 574 q 417 544 468 574 q 366 444 366 514 q 387 366 366 392 q 453 326 408 339 q 572 313 498 313 l 572 574 m 699 313 q 856 342 806 313 q 905 443 905 372 q 854 543 905 511 q 699 574 804 574 l 699 313 z "},"ቖ":{"ha":925,"x_min":68,"x_max":857,"o":"m 526 637 q 775 583 694 637 q 857 415 857 529 q 772 250 857 307 q 526 193 686 193 l 526 0 l 400 0 l 400 193 q 69 415 69 193 q 150 582 69 528 q 400 637 231 636 l 400 643 q 425 718 400 684 q 314 777 358 730 q 271 888 271 823 q 300 991 271 947 l 211 991 q 167 923 199 951 q 94 895 135 895 l 68 895 l 90 1031 l 68 1166 l 94 1166 q 167 1139 134 1166 q 211 1069 199 1111 l 703 1069 q 748 1140 717 1114 q 819 1166 779 1166 l 846 1166 l 823 1031 l 846 895 l 819 895 q 747 921 779 895 q 703 991 716 948 l 633 991 q 657 904 657 952 q 588 747 657 819 l 555 713 q 526 647 526 681 l 526 637 m 400 546 q 244 516 296 546 q 193 416 193 486 q 214 338 193 364 q 281 298 235 311 q 400 285 326 285 l 400 546 m 526 285 q 683 315 633 285 q 733 415 733 345 q 682 515 733 484 q 526 546 631 546 l 526 285 m 464 975 q 414 952 433 975 q 395 896 395 929 q 485 798 395 822 q 533 900 533 842 q 516 955 533 935 q 464 975 498 975 z "},"ቘ":{"ha":987,"x_min":69,"x_max":932,"o":"m 798 1166 l 775 1031 l 798 895 l 771 895 q 697 923 729 895 q 654 991 665 952 l 526 991 l 526 846 q 775 791 694 846 q 857 624 857 737 q 771 458 857 515 q 526 401 685 401 l 526 346 l 749 346 q 885 309 839 346 q 932 203 932 271 q 883 89 932 130 q 749 49 833 49 q 614 90 663 49 q 566 203 566 132 q 578 268 566 239 l 526 268 l 526 0 l 400 0 l 400 401 q 154 457 239 401 q 69 624 69 512 q 151 792 69 739 q 400 846 232 846 l 400 991 l 273 991 q 230 923 262 951 q 157 895 197 895 l 131 895 l 153 1031 l 131 1166 l 157 1166 q 229 1139 197 1166 q 273 1069 262 1111 l 654 1069 q 697 1138 666 1110 q 771 1166 729 1166 l 798 1166 m 400 754 q 244 724 296 754 q 193 625 193 694 q 214 547 193 574 q 279 507 234 520 q 400 493 323 493 l 400 754 m 526 493 q 682 523 631 493 q 733 624 733 553 q 682 723 733 692 q 526 754 631 754 l 526 493 m 749 272 q 693 254 713 272 q 673 203 673 235 q 694 143 673 165 q 749 121 714 121 q 803 142 783 121 q 823 203 823 163 q 803 254 823 235 q 749 272 783 272 z "},"ቚ":{"ha":1308,"x_min":69,"x_max":1253,"o":"m 964 511 l 852 511 q 753 377 836 423 q 526 332 671 332 l 526 0 l 400 0 l 400 332 q 154 387 239 332 q 69 554 69 442 q 152 724 69 671 q 400 777 234 777 l 400 991 l 273 991 q 230 923 262 951 q 157 895 197 895 l 131 895 l 153 1031 l 131 1166 l 157 1166 q 229 1139 197 1166 q 273 1069 262 1111 l 654 1069 q 697 1138 666 1110 q 771 1166 729 1166 l 798 1166 l 775 1031 l 798 895 l 771 895 q 697 923 729 895 q 654 991 665 952 l 526 991 l 526 777 q 754 734 672 777 q 852 603 836 692 l 964 603 l 964 717 l 1090 717 l 1090 476 l 1225 476 l 1253 260 l 1226 260 q 1148 295 1181 260 q 1107 385 1115 330 l 964 385 l 964 511 m 400 685 q 244 655 296 685 q 193 555 193 625 q 214 477 193 503 q 281 437 235 450 q 400 424 326 424 l 400 685 m 526 424 q 683 454 633 424 q 733 554 733 484 q 682 654 733 623 q 526 685 631 685 l 526 424 z "},"ቛ":{"ha":926,"x_min":69,"x_max":857,"o":"m 798 1166 l 775 1031 l 798 895 l 771 895 q 697 923 729 895 q 654 991 665 952 l 526 991 l 526 846 q 775 791 694 846 q 857 624 857 737 q 771 458 857 515 q 526 401 685 401 l 526 277 l 799 277 l 799 0 l 672 0 l 672 184 l 275 184 q 229 105 261 136 q 158 74 197 74 l 132 74 l 160 277 l 400 277 l 400 401 q 154 457 239 401 q 69 624 69 512 q 151 792 69 739 q 400 846 232 846 l 400 991 l 273 991 q 230 923 262 951 q 157 895 197 895 l 131 895 l 153 1031 l 131 1166 l 157 1166 q 229 1139 197 1166 q 273 1069 262 1111 l 654 1069 q 697 1138 666 1110 q 771 1166 729 1166 l 798 1166 m 400 754 q 244 724 296 754 q 193 625 193 694 q 214 547 193 574 q 279 507 234 520 q 400 493 323 493 l 400 754 m 526 493 q 682 523 631 493 q 733 624 733 553 q 682 723 733 692 q 526 754 631 754 l 526 493 z "},"ቜ":{"ha":928,"x_min":69,"x_max":857,"o":"m 798 1166 l 775 1031 l 798 895 l 771 895 q 697 923 729 895 q 654 991 665 952 l 526 991 l 526 846 q 775 791 694 846 q 857 624 857 737 q 771 458 857 515 q 526 401 685 401 l 526 325 l 656 325 q 797 286 749 325 q 844 171 844 246 q 786 42 844 84 q 602 0 728 0 l 279 0 q 238 -90 271 -56 q 160 -125 204 -125 l 134 -125 l 161 92 l 400 92 l 400 401 q 154 457 239 401 q 69 624 69 512 q 151 792 69 739 q 400 846 232 846 l 400 991 l 273 991 q 230 923 262 951 q 157 895 197 895 l 131 895 l 153 1031 l 131 1166 l 157 1166 q 229 1139 197 1166 q 273 1069 262 1111 l 654 1069 q 697 1138 666 1110 q 771 1166 729 1166 l 798 1166 m 400 754 q 244 724 296 754 q 193 625 193 694 q 214 547 193 574 q 279 507 234 520 q 400 493 323 493 l 400 754 m 526 493 q 682 523 631 493 q 733 624 733 553 q 682 723 733 692 q 526 754 631 754 l 526 493 m 526 231 l 526 92 l 578 92 q 691 107 661 92 q 721 167 721 123 q 700 216 721 201 q 615 231 679 231 l 526 231 z "},"ቝ":{"ha":1308,"x_min":69,"x_max":1253,"o":"m 1226 386 q 1148 421 1181 386 q 1107 511 1115 456 l 852 511 q 753 377 836 423 q 526 332 671 332 l 526 0 l 400 0 l 400 332 q 154 387 239 332 q 69 554 69 442 q 152 724 69 671 q 400 777 234 777 l 400 991 l 273 991 q 230 923 262 951 q 157 895 197 895 l 131 895 l 153 1031 l 131 1166 l 157 1166 q 229 1139 197 1166 q 273 1069 262 1111 l 654 1069 q 697 1138 666 1110 q 771 1166 729 1166 l 798 1166 l 775 1031 l 798 895 l 771 895 q 697 923 729 895 q 654 991 665 952 l 526 991 l 526 777 q 754 734 672 777 q 852 603 836 692 l 964 603 l 964 807 l 1090 807 l 1090 603 l 1225 603 l 1253 386 l 1226 386 m 400 685 q 244 655 296 685 q 193 555 193 625 q 214 477 193 503 q 281 437 235 450 q 400 424 326 424 l 400 685 m 526 424 q 683 454 633 424 q 733 554 733 484 q 682 654 733 623 q 526 685 631 685 l 526 424 z "},"በ":{"ha":859,"x_min":125,"x_max":733,"o":"m 607 0 l 607 643 q 564 833 607 774 q 432 893 521 893 q 296 834 340 893 q 252 644 252 776 l 252 0 l 125 0 l 125 637 q 201 910 125 815 q 425 1004 277 1004 q 654 913 576 1004 q 733 640 733 821 l 733 0 l 607 0 z "},"ቡ":{"ha":1064,"x_min":125,"x_max":1008,"o":"m 733 494 l 981 494 l 1008 278 l 982 278 q 903 313 935 278 q 863 403 871 349 l 733 403 l 733 0 l 607 0 l 607 643 q 564 833 607 774 q 432 893 521 893 q 296 834 340 893 q 252 644 252 776 l 252 0 l 125 0 l 125 637 q 201 910 125 815 q 425 1004 277 1004 q 654 913 576 1004 q 733 640 733 821 l 733 494 z "},"ቢ":{"ha":1069,"x_min":125,"x_max":1014,"o":"m 607 643 q 564 833 607 774 q 432 893 521 893 q 296 834 340 893 q 252 644 252 776 l 252 0 l 125 0 l 125 637 q 201 910 125 815 q 425 1004 277 1004 q 654 913 576 1004 q 733 640 733 821 l 733 92 l 871 92 q 918 172 885 140 q 987 203 951 203 l 1014 203 l 991 47 l 1014 -111 l 987 -111 q 918 -80 951 -111 q 871 0 884 -48 l 607 0 l 607 643 z "},"ባ":{"ha":844,"x_min":111,"x_max":720,"o":"m 593 0 l 593 643 q 550 833 593 774 q 418 893 507 893 q 281 834 326 893 q 237 644 237 775 l 237 329 l 111 329 l 111 637 q 188 910 111 815 q 411 1004 264 1004 q 641 912 562 1004 q 720 640 720 821 l 720 0 l 593 0 z "},"ቤ":{"ha":1105,"x_min":125,"x_max":1050,"o":"m 607 643 q 564 833 607 774 q 432 893 521 893 q 296 834 340 893 q 252 644 252 776 l 252 0 l 125 0 l 125 637 q 201 910 125 815 q 425 1004 277 1004 q 654 913 576 1004 q 733 640 733 821 l 733 367 l 861 367 q 999 321 948 367 q 1050 195 1050 275 q 987 51 1050 101 q 807 0 924 0 l 607 0 l 607 643 m 733 272 l 733 92 l 783 92 q 891 116 855 92 q 926 191 926 140 q 821 272 926 272 l 733 272 z "},"ብ":{"ha":1064,"x_min":56,"x_max":939,"o":"m 812 0 l 812 643 q 769 833 812 774 q 637 893 726 893 q 501 834 545 893 q 457 644 457 776 l 457 0 l 330 0 l 330 403 l 199 403 q 152 321 184 351 q 82 292 120 292 l 56 292 l 83 494 l 330 494 l 330 637 q 407 910 330 816 q 631 1004 484 1004 q 860 913 781 1004 q 939 640 939 821 l 939 0 l 812 0 z "},"ቦ":{"ha":844,"x_min":125,"x_max":733,"o":"m 607 329 l 607 643 q 564 833 607 774 q 432 893 521 893 q 296 834 340 893 q 252 644 252 776 l 252 0 l 125 0 l 125 637 q 201 910 125 815 q 425 1004 277 1004 q 654 913 576 1004 q 733 640 733 821 l 733 329 l 607 329 z "},"ቧ":{"ha":1044,"x_min":111,"x_max":989,"o":"m 111 -111 l 139 92 l 621 92 l 621 643 q 577 833 621 774 q 446 893 534 893 q 309 834 353 893 q 265 644 265 775 l 265 329 l 139 329 l 139 637 q 215 910 139 815 q 439 1004 292 1004 q 669 912 590 1004 q 747 640 747 821 l 747 92 l 961 92 l 989 -111 l 962 -111 q 892 -81 925 -111 q 844 0 860 -51 l 254 0 q 207 -81 239 -52 q 138 -111 175 -111 l 111 -111 z "},"ቨ":{"ha":859,"x_min":110,"x_max":749,"o":"m 749 1166 l 726 1031 l 749 895 l 722 895 q 648 923 680 895 q 606 991 616 952 l 253 991 q 209 922 240 949 q 136 895 177 895 l 110 895 l 132 1031 l 110 1166 l 136 1166 q 208 1139 176 1166 q 253 1069 239 1112 l 606 1069 q 649 1138 617 1110 q 722 1166 680 1166 l 749 1166 m 607 0 l 607 494 q 564 685 607 625 q 432 745 521 745 q 296 686 340 745 q 252 496 252 627 l 252 0 l 125 0 l 125 489 q 201 761 125 667 q 425 856 277 856 q 654 764 576 856 q 733 492 733 673 l 733 0 l 607 0 z "},"ቩ":{"ha":1064,"x_min":110,"x_max":1008,"o":"m 733 429 l 981 429 l 1008 212 l 982 212 q 903 248 936 212 q 863 338 871 283 l 733 338 l 733 0 l 607 0 l 607 494 q 564 685 607 625 q 432 745 521 745 q 296 686 340 745 q 252 496 252 627 l 252 0 l 125 0 l 125 489 q 201 761 125 667 q 425 856 277 856 q 654 764 576 856 q 733 492 733 673 l 733 429 m 749 1166 l 726 1031 l 749 895 l 722 895 q 648 923 680 895 q 606 991 616 952 l 253 991 q 209 922 240 949 q 136 895 177 895 l 110 895 l 132 1031 l 110 1166 l 136 1166 q 208 1139 176 1166 q 253 1069 239 1112 l 606 1069 q 649 1138 617 1110 q 722 1166 680 1166 l 749 1166 z "},"ቪ":{"ha":1078,"x_min":110,"x_max":1022,"o":"m 607 494 q 564 685 607 625 q 432 745 521 745 q 296 686 340 745 q 252 496 252 627 l 252 0 l 125 0 l 125 489 q 201 761 125 667 q 425 856 277 856 q 654 764 576 856 q 733 492 733 673 l 733 92 l 879 92 q 926 172 893 140 q 996 203 959 203 l 1022 203 l 1000 47 l 1022 -111 l 996 -111 q 926 -80 959 -111 q 879 0 892 -48 l 607 0 l 607 494 m 749 1166 l 726 1031 l 749 895 l 722 895 q 648 923 680 895 q 606 991 616 952 l 253 991 q 209 922 240 949 q 136 895 177 895 l 110 895 l 132 1031 l 110 1166 l 136 1166 q 208 1139 176 1166 q 253 1069 239 1112 l 606 1069 q 649 1138 617 1110 q 722 1166 680 1166 l 749 1166 z "},"ቫ":{"ha":831,"x_min":96,"x_max":721,"o":"m 721 1166 l 699 1031 l 721 895 l 694 895 q 621 923 652 895 q 578 991 589 952 l 239 991 q 195 923 227 951 q 122 895 163 895 l 96 895 l 118 1031 l 96 1166 l 122 1166 q 195 1139 162 1166 q 239 1069 227 1111 l 578 1069 q 621 1138 589 1110 q 694 1166 652 1166 l 721 1166 m 593 0 l 593 494 q 550 685 593 625 q 418 745 507 745 q 281 686 326 745 q 237 496 237 627 l 237 329 l 111 329 l 111 489 q 188 761 111 667 q 411 856 264 856 q 641 764 562 856 q 720 492 720 672 l 720 0 l 593 0 z "},"ቬ":{"ha":1105,"x_min":110,"x_max":1050,"o":"m 607 0 l 607 494 q 564 685 607 625 q 432 745 521 745 q 296 686 340 745 q 252 496 252 627 l 252 0 l 125 0 l 125 489 q 201 761 125 667 q 425 856 277 856 q 654 764 576 856 q 733 492 733 673 l 733 367 l 861 367 q 999 321 948 367 q 1050 195 1050 275 q 987 51 1050 101 q 807 0 924 0 l 607 0 m 749 1166 l 726 1031 l 749 895 l 722 895 q 648 923 680 895 q 606 991 616 952 l 253 991 q 209 922 240 949 q 136 895 177 895 l 110 895 l 132 1031 l 110 1166 l 136 1166 q 208 1139 176 1166 q 253 1069 239 1112 l 606 1069 q 649 1138 617 1110 q 722 1166 680 1166 l 749 1166 m 733 272 l 733 92 l 783 92 q 891 116 855 92 q 926 191 926 140 q 821 272 926 272 l 733 272 z "},"ቭ":{"ha":1064,"x_min":56,"x_max":954,"o":"m 812 0 l 812 494 q 769 685 812 625 q 637 745 726 745 q 501 686 545 745 q 457 496 457 627 l 457 0 l 330 0 l 330 319 l 199 319 q 152 238 184 268 q 82 208 120 208 l 56 208 l 83 411 l 330 411 l 330 489 q 407 762 330 667 q 631 856 484 856 q 860 764 781 856 q 939 492 939 673 l 939 0 l 812 0 m 954 1166 l 932 1031 l 954 895 l 928 895 q 856 921 887 895 q 811 991 825 948 l 458 991 q 414 922 446 949 q 342 895 382 895 l 315 895 l 338 1031 l 315 1166 l 342 1166 q 413 1139 382 1166 q 458 1069 445 1112 l 811 1069 q 857 1140 825 1114 q 928 1166 888 1166 l 954 1166 z "},"ቮ":{"ha":844,"x_min":110,"x_max":749,"o":"m 136 1166 q 208 1140 176 1166 q 253 1069 239 1114 l 606 1069 q 650 1139 618 1111 q 722 1166 682 1166 l 749 1166 l 726 1031 l 749 895 l 722 895 q 649 923 682 895 q 606 991 616 951 l 253 991 q 208 921 239 947 q 136 895 176 895 l 110 895 l 132 1031 l 110 1166 l 136 1166 m 607 329 l 607 494 q 564 685 607 625 q 432 745 521 745 q 296 686 340 745 q 252 496 252 627 l 252 0 l 125 0 l 125 489 q 201 761 125 667 q 425 856 277 856 q 654 764 576 856 q 733 492 733 673 l 733 329 l 607 329 z "},"ቯ":{"ha":1002,"x_min":96,"x_max":946,"o":"m 96 -111 l 123 92 l 606 92 l 606 494 q 563 685 606 625 q 431 745 519 745 q 294 686 338 745 q 250 496 250 627 l 250 329 l 123 329 l 123 489 q 200 761 123 667 q 424 856 276 856 q 653 764 574 856 q 732 492 732 673 l 732 92 l 918 92 l 946 -111 l 920 -111 q 847 -79 881 -111 q 802 0 814 -47 l 239 0 q 193 -79 226 -47 q 122 -111 161 -111 l 96 -111 m 149 1166 q 222 1138 190 1166 q 265 1069 254 1110 l 604 1069 q 648 1139 616 1111 q 721 1166 680 1166 l 747 1166 l 725 1031 l 747 895 l 721 895 q 648 923 680 895 q 604 991 615 951 l 265 991 q 222 923 254 951 q 149 895 191 895 l 122 895 l 144 1031 l 122 1166 l 149 1166 z "},"ተ":{"ha":857,"x_min":69,"x_max":787,"o":"m 69 528 l 97 730 l 366 730 l 366 991 l 492 991 l 492 730 l 760 730 l 787 528 l 761 528 q 690 558 723 528 q 643 639 658 589 l 492 639 l 492 0 l 366 0 l 366 639 l 212 639 q 168 560 200 592 q 96 528 136 528 l 69 528 z "},"ቱ":{"ha":857,"x_min":69,"x_max":787,"o":"m 492 367 l 760 367 l 787 164 l 761 164 q 690 195 723 164 q 643 275 658 225 l 492 275 l 492 0 l 366 0 l 366 639 l 212 639 q 168 560 200 592 q 96 528 136 528 l 69 528 l 97 730 l 366 730 l 366 991 l 492 991 l 492 730 l 760 730 l 787 528 l 761 528 q 690 558 723 528 q 643 639 658 589 l 492 639 l 492 367 z "},"ቲ":{"ha":857,"x_min":69,"x_max":787,"o":"m 69 528 l 97 730 l 366 730 l 366 991 l 492 991 l 492 730 l 760 730 l 787 528 l 761 528 q 690 558 723 528 q 643 639 658 589 l 492 639 l 492 92 l 644 92 q 691 172 659 140 q 761 203 724 203 l 787 203 l 765 47 l 787 -111 l 761 -111 q 691 -80 724 -111 q 644 0 658 -48 l 366 0 l 366 639 l 212 639 q 168 560 200 592 q 96 528 136 528 l 69 528 z "},"ታ":{"ha":857,"x_min":69,"x_max":787,"o":"m 69 528 l 97 730 l 366 730 l 366 991 l 492 991 l 492 730 l 760 730 l 787 528 l 761 528 q 690 558 723 528 q 643 639 658 589 l 492 639 l 492 349 q 430 81 492 162 q 221 0 368 0 l 212 0 q 165 -81 199 -50 q 92 -111 132 -111 l 69 -111 l 97 92 l 199 92 q 327 146 289 92 q 366 335 366 201 l 366 639 l 212 639 q 168 560 200 592 q 96 528 136 528 l 69 528 z "},"ቴ":{"ha":892,"x_min":69,"x_max":836,"o":"m 69 528 l 97 730 l 366 730 l 366 991 l 492 991 l 492 730 l 760 730 l 787 528 l 761 528 q 690 558 723 528 q 643 639 658 589 l 492 639 l 492 367 l 647 367 q 785 320 734 367 q 836 195 836 273 q 772 50 836 100 q 593 0 709 0 l 366 0 l 366 639 l 212 639 q 168 560 200 592 q 96 528 136 528 l 69 528 m 492 272 l 492 92 l 570 92 q 677 116 642 92 q 713 191 713 140 q 607 272 713 272 l 492 272 z "},"ት":{"ha":857,"x_min":69,"x_max":787,"o":"m 492 832 l 492 661 l 760 661 l 787 458 l 761 458 q 690 489 723 458 q 643 570 658 519 l 492 570 l 492 0 l 366 0 l 366 570 l 212 570 q 168 491 200 523 q 96 458 136 458 l 69 458 l 97 661 l 366 661 l 366 733 q 228 765 275 739 q 156 847 180 792 q 132 991 132 901 l 132 1055 l 258 1055 l 258 991 q 273 897 258 931 q 315 847 287 863 q 415 832 343 832 l 492 832 z "},"ቶ":{"ha":857,"x_min":69,"x_max":787,"o":"m 761 432 q 690 463 723 432 q 643 543 658 493 l 492 543 l 492 0 l 366 0 l 366 543 l 212 543 q 168 464 200 496 q 96 432 136 432 l 69 432 l 97 635 l 366 635 l 366 643 q 390 718 366 683 q 279 777 322 730 q 236 888 236 824 q 290 1020 236 970 q 431 1069 344 1069 q 571 1025 519 1069 q 623 904 623 981 q 553 747 623 818 q 502 686 512 706 q 492 647 492 666 l 492 635 l 760 635 l 787 432 l 761 432 m 429 975 q 379 952 399 975 q 359 896 359 928 q 450 798 359 823 q 498 900 498 842 q 481 955 498 935 q 429 975 464 975 z "},"ቷ":{"ha":857,"x_min":69,"x_max":787,"o":"m 366 639 l 212 639 q 168 560 200 592 q 96 528 136 528 l 69 528 l 97 730 l 366 730 l 366 991 l 492 991 l 492 730 l 760 730 l 787 528 l 761 528 q 690 558 723 528 q 643 639 658 589 l 492 639 l 492 92 l 760 92 l 787 -111 l 761 -111 q 691 -81 724 -111 q 643 0 659 -51 l 212 0 q 167 -79 199 -47 q 96 -111 134 -111 l 69 -111 l 97 92 l 366 92 l 366 639 z "},"ቸ":{"ha":857,"x_min":69,"x_max":787,"o":"m 761 528 q 690 558 723 528 q 643 639 658 589 l 492 639 l 492 0 l 366 0 l 366 639 l 212 639 q 168 560 200 592 q 96 528 136 528 l 69 528 l 97 730 l 366 730 l 366 991 l 212 991 q 169 923 201 951 q 96 895 136 895 l 69 895 l 92 1031 l 69 1166 l 96 1166 q 168 1139 136 1166 q 212 1069 201 1111 l 644 1069 q 690 1140 659 1114 q 761 1166 721 1166 l 787 1166 l 765 1031 l 787 895 l 761 895 q 689 921 720 895 q 644 991 658 948 l 492 991 l 492 730 l 760 730 l 787 528 l 761 528 z "},"ቹ":{"ha":857,"x_min":69,"x_max":787,"o":"m 492 367 l 760 367 l 787 164 l 761 164 q 690 195 723 164 q 643 275 658 225 l 492 275 l 492 0 l 366 0 l 366 639 l 212 639 q 168 560 200 592 q 96 528 136 528 l 69 528 l 97 730 l 366 730 l 366 991 l 212 991 q 169 923 201 951 q 96 895 136 895 l 69 895 l 92 1031 l 69 1166 l 96 1166 q 168 1139 136 1166 q 212 1069 201 1111 l 644 1069 q 690 1140 659 1114 q 761 1166 721 1166 l 787 1166 l 765 1031 l 787 895 l 761 895 q 689 921 720 895 q 644 991 658 948 l 492 991 l 492 730 l 760 730 l 787 528 l 761 528 q 690 558 723 528 q 643 639 658 589 l 492 639 l 492 367 z "},"ቺ":{"ha":857,"x_min":69,"x_max":787,"o":"m 69 528 l 97 730 l 366 730 l 366 991 l 212 991 q 169 923 201 951 q 96 895 136 895 l 69 895 l 92 1031 l 69 1166 l 96 1166 q 168 1139 136 1166 q 212 1069 201 1111 l 644 1069 q 690 1140 659 1114 q 761 1166 721 1166 l 787 1166 l 765 1031 l 787 895 l 761 895 q 689 921 720 895 q 644 991 658 948 l 492 991 l 492 730 l 760 730 l 787 528 l 761 528 q 690 558 723 528 q 643 639 658 589 l 492 639 l 492 92 l 644 92 q 691 172 659 140 q 761 203 724 203 l 787 203 l 765 47 l 787 -111 l 761 -111 q 691 -80 724 -111 q 644 0 658 -48 l 366 0 l 366 639 l 212 639 q 168 560 200 592 q 96 528 136 528 l 69 528 z "},"ቻ":{"ha":857,"x_min":69,"x_max":787,"o":"m 787 1166 l 765 1031 l 787 895 l 761 895 q 689 921 720 895 q 644 991 658 948 l 492 991 l 492 730 l 760 730 l 787 528 l 761 528 q 690 558 723 528 q 643 639 658 589 l 492 639 l 492 349 q 430 81 492 162 q 221 0 368 0 l 212 0 q 165 -81 199 -50 q 92 -111 132 -111 l 69 -111 l 97 92 l 199 92 q 327 146 289 92 q 366 335 366 201 l 366 639 l 212 639 q 168 560 200 592 q 96 528 136 528 l 69 528 l 97 730 l 366 730 l 366 991 l 212 991 q 169 923 201 951 q 96 895 136 895 l 69 895 l 92 1031 l 69 1166 l 96 1166 q 168 1139 136 1166 q 212 1069 201 1111 l 644 1069 q 690 1140 659 1114 q 761 1166 721 1166 l 787 1166 z "},"ቼ":{"ha":864,"x_min":69,"x_max":808,"o":"m 69 528 l 97 730 l 366 730 l 366 991 l 212 991 q 169 923 201 951 q 96 895 136 895 l 69 895 l 92 1031 l 69 1166 l 96 1166 q 168 1139 136 1166 q 212 1069 201 1111 l 644 1069 q 690 1140 659 1114 q 761 1166 721 1166 l 787 1166 l 765 1031 l 787 895 l 761 895 q 689 921 720 895 q 644 991 658 948 l 492 991 l 492 730 l 760 730 l 787 528 l 761 528 q 690 558 723 528 q 643 639 658 589 l 492 639 l 492 367 l 619 367 q 758 320 707 367 q 808 195 808 273 q 746 51 808 101 q 566 0 683 0 l 366 0 l 366 639 l 212 639 q 168 560 200 592 q 96 528 136 528 l 69 528 m 492 272 l 492 92 l 542 92 q 649 116 614 92 q 685 191 685 140 q 579 272 685 272 l 492 272 z "},"ች":{"ha":1064,"x_min":69,"x_max":994,"o":"m 699 832 l 699 661 l 966 661 l 994 458 l 968 458 q 897 489 930 458 q 850 570 865 519 l 699 570 l 699 0 l 572 0 l 572 570 l 419 570 q 375 491 407 523 q 302 458 342 458 l 277 458 l 304 661 l 572 661 l 572 733 q 434 766 482 739 q 362 848 386 793 q 339 991 339 903 l 212 991 q 169 923 201 951 q 96 895 136 895 l 69 895 l 92 1031 l 69 1166 l 96 1166 q 168 1139 136 1166 q 212 1069 201 1111 l 593 1069 q 638 1140 606 1113 q 710 1166 669 1166 l 736 1166 l 714 1031 l 736 895 l 710 895 q 638 922 669 895 q 593 991 606 949 l 465 991 q 479 897 465 931 q 522 847 494 863 q 623 832 550 832 l 699 832 z "},"ቾ":{"ha":857,"x_min":69,"x_max":787,"o":"m 611 991 q 635 904 635 954 q 566 747 635 819 q 504 678 517 697 q 492 640 492 659 l 492 635 l 760 635 l 787 432 l 761 432 q 690 463 723 432 q 643 543 658 493 l 492 543 l 492 0 l 366 0 l 366 543 l 212 543 q 168 464 200 496 q 96 432 136 432 l 69 432 l 97 635 l 366 635 l 366 639 q 403 718 366 681 q 292 777 335 730 q 249 888 249 824 q 278 991 249 948 l 212 991 q 169 923 201 951 q 96 895 136 895 l 69 895 l 92 1031 l 69 1166 l 96 1166 q 168 1139 136 1166 q 212 1069 201 1111 l 643 1069 q 691 1150 658 1120 q 761 1181 724 1181 l 787 1181 l 760 991 l 611 991 m 441 975 q 392 952 411 975 q 372 896 372 929 q 463 798 372 823 q 511 900 511 843 q 494 955 511 935 q 441 975 476 975 z "},"ቿ":{"ha":857,"x_min":69,"x_max":787,"o":"m 366 639 l 212 639 q 168 560 200 592 q 96 528 136 528 l 69 528 l 97 730 l 366 730 l 366 991 l 212 991 q 169 923 201 951 q 96 895 136 895 l 69 895 l 92 1031 l 69 1166 l 96 1166 q 168 1139 136 1166 q 212 1069 201 1111 l 644 1069 q 690 1140 659 1114 q 761 1166 721 1166 l 787 1166 l 765 1031 l 787 895 l 761 895 q 689 921 720 895 q 644 991 658 948 l 492 991 l 492 730 l 760 730 l 787 528 l 761 528 q 690 558 723 528 q 643 639 658 589 l 492 639 l 492 92 l 760 92 l 787 -111 l 761 -111 q 691 -81 724 -111 q 643 0 659 -51 l 212 0 q 167 -79 199 -47 q 96 -111 134 -111 l 69 -111 l 97 92 l 366 92 l 366 639 z "},"ኀ":{"ha":775,"x_min":56,"x_max":650,"o":"m 650 0 l 524 0 l 524 646 q 383 680 435 650 q 309 771 331 709 l 201 771 q 161 681 193 715 q 82 646 128 646 l 56 646 l 83 863 l 292 863 l 290 882 l 290 990 l 416 990 l 416 905 q 430 811 416 846 q 473 761 444 777 q 561 745 501 745 l 650 745 l 650 0 z "},"ኁ":{"ha":981,"x_min":56,"x_max":925,"o":"m 650 414 l 897 414 l 925 197 l 899 197 q 820 233 852 197 q 779 322 787 268 l 650 322 l 650 0 l 524 0 l 524 646 q 383 680 435 650 q 309 771 331 709 l 201 771 q 161 681 193 715 q 82 646 128 646 l 56 646 l 83 863 l 292 863 l 290 882 l 290 990 l 416 990 l 416 905 q 431 809 416 844 q 474 760 446 774 q 574 745 503 745 l 650 745 l 650 414 z "},"ኂ":{"ha":996,"x_min":56,"x_max":940,"o":"m 524 646 q 383 680 435 650 q 309 771 331 709 l 201 771 q 161 681 193 715 q 82 646 128 646 l 56 646 l 83 863 l 292 863 l 290 882 l 290 990 l 416 990 l 416 905 q 430 810 416 845 q 472 760 444 776 q 564 745 501 745 l 650 745 l 650 92 l 798 92 q 843 170 809 137 q 914 203 876 203 l 940 203 l 918 47 l 940 -111 l 914 -111 q 842 -78 876 -111 q 798 0 808 -45 l 524 0 l 524 646 z "},"ኃ":{"ha":775,"x_min":56,"x_max":650,"o":"m 650 349 q 616 144 650 219 q 510 35 583 70 q 310 0 437 0 l 199 0 q 151 -81 183 -52 q 82 -111 119 -111 l 56 -111 l 83 92 l 306 92 q 474 147 425 92 q 524 335 524 203 l 524 646 q 383 680 435 650 q 309 771 331 709 l 201 771 q 161 681 193 715 q 82 646 128 646 l 56 646 l 83 863 l 292 863 l 290 882 l 290 990 l 416 990 l 416 905 q 430 810 416 845 q 472 760 444 776 q 561 745 500 745 l 650 745 l 650 349 z "},"ኄ":{"ha":1022,"x_min":56,"x_max":966,"o":"m 650 745 l 650 367 l 778 367 q 916 321 865 367 q 966 195 966 275 q 904 51 966 101 q 724 0 841 0 l 524 0 l 524 646 q 383 680 435 650 q 309 771 331 709 l 201 771 q 161 681 193 715 q 82 646 128 646 l 56 646 l 83 863 l 292 863 l 290 882 l 290 990 l 416 990 l 416 905 q 431 809 416 844 q 474 760 446 774 q 574 745 503 745 l 650 745 m 650 272 l 650 92 l 700 92 q 807 116 772 92 q 843 191 843 140 q 737 272 843 272 l 650 272 z "},"ኅ":{"ha":822,"x_min":56,"x_max":697,"o":"m 697 745 l 697 0 l 571 0 l 571 646 q 420 687 473 650 q 346 798 367 724 q 182 528 182 744 l 56 528 q 124 767 56 673 q 338 901 193 861 l 338 991 l 464 991 l 464 905 q 478 810 464 844 q 520 760 492 775 q 621 745 549 745 l 697 745 z "},"ኆ":{"ha":1128,"x_min":56,"x_max":1072,"o":"m 56 422 l 83 625 l 328 625 q 457 898 349 804 q 750 991 566 991 l 832 991 q 1011 943 949 991 q 1072 800 1072 894 q 1009 652 1072 707 q 832 597 946 597 q 656 653 721 597 q 591 800 591 708 q 606 878 591 843 q 490 760 529 844 q 450 549 450 676 l 450 469 l 724 469 l 724 0 l 597 0 l 597 376 l 323 376 l 323 533 l 199 533 q 152 452 183 482 q 82 422 121 422 l 56 422 m 832 911 q 747 881 779 911 q 715 799 715 851 q 748 709 715 744 q 832 675 780 675 q 917 709 884 675 q 949 799 949 744 q 917 881 949 851 q 832 911 886 911 z "},"ኈ":{"ha":1139,"x_min":56,"x_max":1083,"o":"m 650 745 l 650 485 l 900 485 q 1037 448 990 485 q 1083 342 1083 412 q 1035 228 1083 269 q 900 187 987 187 q 765 230 813 187 q 717 342 717 272 q 729 407 717 377 l 650 407 l 650 0 l 524 0 l 524 646 q 383 680 435 650 q 309 771 331 709 l 201 771 q 161 681 193 715 q 82 646 128 646 l 56 646 l 83 863 l 292 863 l 290 882 l 290 990 l 416 990 l 416 905 q 431 809 416 844 q 474 760 446 774 q 574 745 503 745 l 650 745 m 900 411 q 845 392 864 411 q 825 342 825 374 q 845 282 825 304 q 900 260 864 260 q 956 283 937 260 q 975 342 975 306 q 955 392 975 373 q 900 411 935 411 z "},"ኊ":{"ha":1101,"x_min":56,"x_max":1046,"o":"m 757 400 l 650 400 l 650 0 l 524 0 l 524 646 q 383 680 435 650 q 309 771 331 709 l 201 771 q 161 681 193 715 q 82 646 128 646 l 56 646 l 83 863 l 292 863 l 290 882 l 290 990 l 416 990 l 416 905 q 430 810 416 845 q 472 760 444 776 q 562 745 501 745 l 650 745 l 650 492 l 757 492 l 757 606 l 884 606 l 884 366 l 1018 366 l 1046 149 l 1019 149 q 941 184 973 149 q 900 273 908 219 l 757 273 l 757 400 z "},"ኋ":{"ha":882,"x_min":56,"x_max":812,"o":"m 686 184 l 292 184 q 251 95 283 130 q 172 60 218 60 l 146 60 l 174 277 l 524 277 l 524 646 q 383 680 435 650 q 309 771 331 709 l 201 771 q 161 681 193 715 q 82 646 128 646 l 56 646 l 83 863 l 292 863 l 290 882 l 290 990 l 416 990 l 416 905 q 430 810 416 845 q 472 760 444 776 q 561 745 500 745 l 650 745 l 650 277 l 812 277 l 812 0 l 686 0 l 686 184 z "},"ኌ":{"ha":1022,"x_min":56,"x_max":966,"o":"m 650 745 l 650 367 l 778 367 q 916 321 865 367 q 966 195 966 275 q 904 51 966 101 q 724 0 841 0 l 319 0 q 279 -90 311 -54 q 200 -125 246 -125 l 174 -125 l 201 92 l 524 92 l 524 646 q 383 680 435 650 q 309 771 331 709 l 201 771 q 161 681 193 715 q 82 646 128 646 l 56 646 l 83 863 l 292 863 l 290 882 l 290 990 l 416 990 l 416 905 q 431 809 416 844 q 474 760 446 774 q 574 745 503 745 l 650 745 m 650 272 l 650 92 l 700 92 q 807 116 772 92 q 843 191 843 140 q 737 272 843 272 l 650 272 z "},"ኍ":{"ha":1101,"x_min":56,"x_max":1046,"o":"m 650 745 l 650 492 l 757 492 l 757 606 l 884 606 l 884 492 l 1018 492 l 1046 275 l 1019 275 q 940 311 972 275 q 900 400 908 346 l 650 400 l 650 0 l 524 0 l 524 646 q 383 680 435 650 q 309 771 331 709 l 201 771 q 161 681 193 715 q 82 646 128 646 l 56 646 l 83 863 l 292 863 l 290 882 l 290 990 l 416 990 l 416 905 q 431 809 416 844 q 474 760 446 774 q 574 745 503 745 l 650 745 z "},"ነ":{"ha":554,"x_min":69,"x_max":429,"o":"m 429 745 l 429 0 l 302 0 l 302 646 q 165 678 213 651 q 93 758 117 705 q 69 901 69 812 l 69 990 l 196 990 l 196 905 q 210 810 196 844 q 252 760 224 775 q 353 745 281 745 l 429 745 z "},"ኑ":{"ha":758,"x_min":69,"x_max":703,"o":"m 429 745 l 429 510 l 675 510 l 703 307 l 676 307 q 606 337 638 307 q 558 418 573 368 l 429 418 l 429 0 l 302 0 l 302 646 q 165 678 213 651 q 93 758 117 705 q 69 901 69 812 l 69 990 l 196 990 l 196 905 q 210 810 196 844 q 252 760 224 775 q 353 745 281 745 l 429 745 z "},"ኒ":{"ha":766,"x_min":69,"x_max":711,"o":"m 429 745 l 429 92 l 568 92 q 613 170 580 137 q 685 203 647 203 l 711 203 l 689 47 l 711 -111 l 685 -111 q 613 -78 647 -111 q 568 0 579 -45 l 302 0 l 302 646 q 165 678 213 651 q 93 758 117 705 q 69 901 69 812 l 69 990 l 196 990 l 196 905 q 210 810 196 844 q 252 760 224 775 q 353 745 281 745 l 429 745 z "},"ና":{"ha":734,"x_min":83,"x_max":679,"o":"m 355 0 l 355 376 l 83 376 l 83 545 q 194 875 83 759 q 510 991 304 991 l 652 991 l 679 789 l 653 789 q 582 822 615 789 q 536 900 549 854 l 479 900 q 279 809 349 900 q 210 549 210 719 l 210 469 l 482 469 l 482 0 l 355 0 z "},"ኔ":{"ha":657,"x_min":53,"x_max":602,"o":"m 317 644 q 170 674 222 648 q 94 756 119 701 q 69 901 69 811 l 69 990 l 196 990 l 196 905 q 210 810 196 844 q 252 760 224 775 q 353 745 281 745 l 493 745 l 340 367 l 412 367 q 551 320 500 367 q 602 195 602 273 q 538 50 602 100 q 358 0 474 0 l 53 0 l 317 644 m 301 272 l 228 92 l 335 92 q 443 116 407 92 q 478 191 478 140 q 372 272 478 272 l 301 272 z "},"ን":{"ha":676,"x_min":56,"x_max":597,"o":"m 322 0 l 183 0 l 425 587 l 321 587 l 321 746 q 312 847 321 818 q 280 888 302 876 q 211 900 258 900 l 199 900 q 151 819 183 850 q 82 789 119 789 l 56 789 l 83 991 l 210 991 q 394 938 340 991 q 447 745 447 885 l 447 679 l 597 679 l 322 0 z "},"ኖ":{"ha":886,"x_min":83,"x_max":831,"o":"m 590 597 q 414 653 478 597 q 350 800 350 708 q 364 878 350 844 q 250 761 290 846 q 210 549 210 677 l 210 469 l 484 469 l 484 0 l 357 0 l 357 376 l 83 376 l 83 545 q 194 875 83 759 q 510 991 304 991 l 590 991 q 769 942 707 991 q 831 800 831 893 q 767 652 831 706 q 590 597 703 597 m 590 911 q 505 881 536 911 q 473 799 473 851 q 506 709 473 744 q 590 675 538 675 q 674 709 642 675 q 707 799 707 744 q 675 881 707 851 q 590 911 644 911 z "},"ኗ":{"ha":819,"x_min":56,"x_max":764,"o":"m 693 991 l 721 789 l 694 789 q 623 822 656 789 q 578 900 590 854 l 503 900 q 306 809 374 900 q 237 549 237 718 l 237 469 l 486 469 l 486 92 l 736 92 l 764 -111 l 737 -111 q 667 -81 700 -111 q 619 0 635 -51 l 199 0 q 151 -81 183 -52 q 82 -111 119 -111 l 56 -111 l 83 92 l 359 92 l 359 376 l 111 376 l 111 545 q 221 875 111 759 q 538 991 332 991 l 693 991 z "},"ኘ":{"ha":838,"x_min":56,"x_max":713,"o":"m 681 677 l 681 0 l 554 0 l 554 579 q 374 645 427 585 q 321 835 321 705 l 321 913 l 199 913 q 153 842 185 869 q 82 815 121 815 l 56 815 l 78 951 l 56 1088 l 82 1088 q 152 1061 120 1088 q 199 990 184 1035 l 570 990 q 614 1061 582 1034 q 686 1088 647 1088 l 713 1088 l 690 951 l 713 815 l 686 815 q 614 843 647 815 q 570 913 581 870 l 447 913 l 447 839 q 461 742 447 777 q 506 692 476 707 q 604 677 535 677 l 681 677 z "},"ኙ":{"ha":1010,"x_min":56,"x_max":954,"o":"m 681 677 l 681 479 l 926 479 l 954 277 l 928 277 q 857 307 890 277 q 810 387 825 338 l 681 387 l 681 0 l 554 0 l 554 579 q 374 645 427 585 q 321 835 321 705 l 321 913 l 199 913 q 153 842 185 869 q 82 815 121 815 l 56 815 l 78 951 l 56 1088 l 82 1088 q 152 1061 120 1088 q 199 990 184 1035 l 570 990 q 614 1061 582 1034 q 686 1088 647 1088 l 713 1088 l 690 951 l 713 815 l 686 815 q 614 843 647 815 q 570 913 581 870 l 447 913 l 447 839 q 461 742 447 777 q 506 692 476 707 q 604 677 535 677 l 681 677 z "},"ኚ":{"ha":1018,"x_min":56,"x_max":962,"o":"m 681 677 l 681 92 l 819 92 q 866 171 833 139 q 936 203 899 203 l 962 203 l 940 47 l 962 -110 l 936 -110 q 866 -78 899 -110 q 819 0 833 -46 l 554 0 l 554 579 q 374 645 427 585 q 321 835 321 705 l 321 913 l 199 913 q 153 842 185 869 q 82 815 121 815 l 56 815 l 78 951 l 56 1088 l 82 1088 q 152 1061 120 1088 q 199 990 184 1035 l 570 990 q 614 1061 582 1034 q 686 1088 647 1088 l 713 1088 l 690 951 l 713 815 l 686 815 q 614 843 647 815 q 570 913 581 870 l 447 913 l 447 839 q 461 742 447 777 q 506 692 476 707 q 604 677 535 677 l 681 677 z "},"ኛ":{"ha":807,"x_min":56,"x_max":751,"o":"m 340 0 l 340 310 l 111 310 l 111 414 q 171 649 111 559 q 340 768 231 739 l 340 913 l 199 913 q 153 842 185 869 q 82 815 121 815 l 56 815 l 78 951 l 56 1088 l 82 1088 q 152 1061 120 1088 q 199 990 184 1035 l 608 990 q 655 1062 623 1037 q 725 1088 687 1088 l 751 1088 l 729 951 l 751 815 l 725 815 q 654 841 686 815 q 608 913 623 867 l 467 913 l 467 782 l 587 782 l 615 579 l 589 579 q 520 610 552 579 q 472 690 488 640 l 444 690 q 292 622 346 690 q 237 425 237 554 l 237 403 l 467 403 l 467 0 l 340 0 z "},"ኜ":{"ha":787,"x_min":56,"x_max":732,"o":"m 471 367 l 543 367 q 681 321 630 367 q 732 195 732 275 q 669 51 732 101 q 489 0 606 0 l 183 0 l 425 587 l 321 587 l 321 913 l 199 913 q 153 842 185 869 q 82 815 121 815 l 56 815 l 78 951 l 56 1088 l 82 1088 q 152 1061 120 1088 q 199 990 184 1035 l 570 990 q 614 1061 582 1034 q 686 1088 647 1088 l 713 1088 l 690 951 l 713 815 l 686 815 q 614 843 647 815 q 570 913 581 870 l 447 913 l 447 679 l 597 679 l 471 367 m 432 272 l 358 92 l 465 92 q 573 116 537 92 q 608 191 608 140 q 503 272 608 272 l 432 272 z "},"ኝ":{"ha":737,"x_min":56,"x_max":659,"o":"m 418 0 l 279 0 l 486 501 l 382 501 l 382 546 q 373 647 382 618 q 341 688 363 675 q 272 700 319 700 l 260 700 q 212 619 244 650 q 143 589 180 589 l 117 589 l 144 791 l 261 791 l 261 899 l 83 899 l 56 1101 l 82 1101 q 152 1071 119 1101 q 200 990 184 1041 l 449 990 q 494 1069 462 1038 q 566 1101 527 1101 l 591 1101 l 564 899 l 387 899 l 387 778 q 473 718 445 760 q 509 593 501 675 l 659 593 l 418 0 z "},"ኞ":{"ha":914,"x_min":56,"x_max":859,"o":"m 653 450 q 502 496 557 450 q 447 616 447 541 q 458 679 447 650 q 287 610 336 669 q 237 414 237 551 l 237 403 l 467 403 l 467 0 l 340 0 l 340 310 l 111 310 l 111 403 q 340 754 111 688 l 340 913 l 199 913 q 153 842 185 869 q 82 815 121 815 l 56 815 l 78 951 l 56 1088 l 82 1088 q 152 1061 120 1088 q 199 990 184 1035 l 608 990 q 655 1062 623 1037 q 725 1088 687 1088 l 751 1088 l 729 951 l 751 815 l 725 815 q 654 841 686 815 q 608 913 623 867 l 467 913 l 467 774 l 486 775 l 654 775 q 806 735 754 775 q 859 616 859 694 q 805 495 859 539 q 653 450 751 450 m 654 694 q 593 673 614 694 q 571 615 571 652 q 593 552 571 576 q 653 528 615 528 q 712 552 690 528 q 734 615 734 576 q 713 673 734 652 q 654 694 692 694 z "},"ኟ":{"ha":807,"x_min":56,"x_max":751,"o":"m 751 1088 l 729 951 l 751 815 l 725 815 q 654 841 686 815 q 608 913 623 867 l 467 913 l 467 782 l 574 782 l 602 579 l 575 579 q 504 612 537 579 q 458 690 471 645 l 437 690 q 290 621 342 690 q 237 425 237 551 l 237 403 l 467 403 l 467 92 l 724 92 l 751 -111 l 725 -111 q 655 -81 688 -111 q 607 0 623 -51 l 199 0 q 151 -81 183 -52 q 82 -111 119 -111 l 56 -111 l 83 92 l 340 92 l 340 310 l 111 310 l 111 414 q 171 649 111 559 q 340 768 231 739 l 340 913 l 199 913 q 153 842 185 869 q 82 815 121 815 l 56 815 l 78 951 l 56 1088 l 82 1088 q 152 1061 120 1088 q 199 990 184 1035 l 608 990 q 655 1062 623 1037 q 725 1088 687 1088 l 751 1088 z "},"አ":{"ha":760,"x_min":56,"x_max":718,"o":"m 410 530 q 627 340 554 470 q 718 0 699 210 l 591 0 q 527 259 579 156 q 367 425 474 363 l 195 0 l 56 0 l 319 644 q 173 674 224 648 q 97 756 121 701 q 72 901 72 811 l 72 990 l 199 990 l 199 905 q 213 810 199 844 q 255 760 227 775 q 355 745 283 745 l 496 745 l 410 530 z "},"ኡ":{"ha":966,"x_min":56,"x_max":911,"o":"m 885 150 q 813 181 846 150 q 766 261 781 212 l 664 261 q 718 0 704 155 l 591 0 q 527 259 579 156 q 367 425 474 363 l 195 0 l 56 0 l 319 644 q 173 674 224 648 q 97 756 121 701 q 72 901 72 811 l 72 990 l 199 990 l 199 905 q 213 810 199 844 q 255 760 227 775 q 355 745 283 745 l 496 745 l 410 530 q 619 353 546 474 l 884 353 l 911 150 l 885 150 z "},"ኢ":{"ha":996,"x_min":56,"x_max":940,"o":"m 410 530 q 609 369 539 475 q 707 92 679 262 l 798 92 q 843 170 809 137 q 914 203 876 203 l 940 203 l 918 47 l 940 -111 l 914 -111 q 842 -78 876 -111 q 798 0 808 -45 l 591 0 q 527 259 579 156 q 367 425 474 363 l 195 0 l 56 0 l 319 644 q 173 674 224 648 q 97 756 121 701 q 72 901 72 811 l 72 990 l 199 990 l 199 905 q 213 810 199 844 q 255 760 227 775 q 355 745 283 745 l 496 745 l 410 530 z "},"ኣ":{"ha":757,"x_min":69,"x_max":715,"o":"m 406 530 q 623 341 550 470 q 715 0 696 212 l 589 0 q 524 259 576 156 q 363 425 471 363 l 273 203 l 135 203 l 317 644 q 170 674 222 648 q 94 756 119 701 q 69 901 69 811 l 69 990 l 196 990 l 196 905 q 210 810 196 844 q 252 760 224 775 q 353 745 281 745 l 493 745 l 406 530 z "},"ኤ":{"ha":1035,"x_min":56,"x_max":979,"o":"m 410 530 q 611 367 536 478 l 790 367 q 928 320 878 367 q 979 195 979 273 q 916 50 979 100 q 736 0 852 0 l 591 0 q 527 259 579 156 q 367 425 474 363 l 195 0 l 56 0 l 319 644 q 173 674 224 648 q 97 756 121 701 q 72 901 72 811 l 72 990 l 199 990 l 199 905 q 213 810 199 844 q 255 760 227 775 q 355 745 283 745 l 496 745 l 410 530 m 660 272 q 707 92 692 183 l 713 92 q 820 116 785 92 q 856 191 856 140 q 750 272 856 272 l 660 272 z "},"እ":{"ha":774,"x_min":56,"x_max":718,"o":"m 334 675 l 468 675 l 410 530 q 627 340 554 470 q 718 0 699 210 l 591 0 q 526 260 579 157 q 367 424 473 363 l 195 0 l 56 0 l 296 583 l 157 583 l 222 736 q 107 808 142 754 q 72 962 72 861 l 72 990 l 199 990 l 199 966 q 212 884 199 913 q 251 841 224 854 q 342 828 277 828 l 396 828 l 334 675 z "},"ኦ":{"ha":760,"x_min":56,"x_max":689,"o":"m 410 532 q 689 191 625 441 l 554 191 q 367 425 506 347 l 195 0 l 56 0 l 319 644 q 173 674 224 648 q 97 756 121 701 q 72 901 72 811 l 72 990 l 199 990 l 199 905 q 213 810 199 844 q 255 760 227 775 q 355 745 283 745 l 496 745 l 410 532 z "},"ኧ":{"ha":836,"x_min":56,"x_max":781,"o":"m 668 1088 l 646 951 l 668 815 l 642 815 q 571 841 603 815 q 525 913 539 867 l 425 913 l 425 745 l 558 745 l 472 530 q 689 341 617 470 q 781 0 762 212 l 654 0 q 589 260 641 157 q 429 425 537 363 l 257 0 l 118 0 l 386 653 l 298 653 l 298 913 l 199 913 q 153 842 185 869 q 82 815 121 815 l 56 815 l 78 951 l 56 1088 l 82 1088 q 152 1061 120 1088 q 199 990 184 1035 l 525 990 q 572 1062 540 1037 q 642 1088 604 1088 l 668 1088 z "},"ከ":{"ha":872,"x_min":69,"x_max":747,"o":"m 139 496 q 168 685 139 609 q 93 764 117 708 q 69 920 69 820 l 69 1055 l 196 1055 l 196 924 q 229 783 196 812 q 439 863 306 863 q 668 771 589 863 q 747 498 747 680 l 747 0 l 621 0 l 621 501 q 577 692 621 632 q 446 751 534 751 q 309 692 353 751 q 265 503 265 633 l 265 0 l 139 0 l 139 496 z "},"ኩ":{"ha":1064,"x_min":69,"x_max":1008,"o":"m 981 494 l 1008 278 l 982 278 q 903 313 935 278 q 863 403 871 349 l 747 403 l 747 0 l 621 0 l 621 501 q 577 692 621 632 q 446 751 534 751 q 309 692 353 751 q 265 503 265 633 l 265 0 l 139 0 l 139 496 q 168 685 139 609 q 93 764 117 708 q 69 920 69 820 l 69 1055 l 196 1055 l 196 924 q 229 783 196 812 q 439 863 306 863 q 668 771 589 863 q 747 498 747 680 l 747 494 l 981 494 z "},"ኪ":{"ha":1092,"x_min":69,"x_max":1036,"o":"m 621 501 q 577 692 621 632 q 446 751 534 751 q 309 692 353 751 q 265 503 265 633 l 265 0 l 139 0 l 139 496 q 168 685 139 609 q 93 764 117 708 q 69 920 69 820 l 69 1055 l 196 1055 l 196 924 q 229 783 196 812 q 439 863 306 863 q 668 771 589 863 q 747 498 747 680 l 747 92 l 893 92 q 938 170 905 137 q 1010 203 972 203 l 1036 203 l 1014 47 l 1036 -111 l 1010 -111 q 938 -78 972 -111 q 893 0 904 -45 l 621 0 l 621 501 z "},"ካ":{"ha":872,"x_min":69,"x_max":747,"o":"m 139 496 q 168 685 139 609 q 93 764 117 708 q 69 920 69 820 l 69 1055 l 196 1055 l 196 924 q 229 783 196 812 q 439 863 306 863 q 668 771 589 863 q 747 498 747 680 l 747 0 l 621 0 l 621 501 q 577 692 621 632 q 446 751 534 751 q 309 692 353 751 q 265 503 265 633 l 265 375 l 139 375 l 139 496 z "},"ኬ":{"ha":1120,"x_min":69,"x_max":1064,"o":"m 621 501 q 577 692 621 632 q 446 751 534 751 q 309 692 353 751 q 265 503 265 633 l 265 0 l 139 0 l 139 496 q 168 685 139 609 q 93 764 117 708 q 69 920 69 820 l 69 1055 l 196 1055 l 196 924 q 229 783 196 812 q 439 863 306 863 q 668 771 589 863 q 747 498 747 680 l 747 367 l 875 367 q 1013 320 962 367 q 1064 195 1064 273 q 1000 50 1064 100 q 821 0 937 0 l 621 0 l 621 501 m 747 272 l 747 92 l 798 92 q 905 116 869 92 q 940 191 940 140 q 835 272 940 272 l 747 272 z "},"ክ":{"ha":872,"x_min":69,"x_max":747,"o":"m 139 496 q 168 685 139 609 q 93 764 117 708 q 69 920 69 820 l 69 1055 l 196 1055 l 196 924 q 229 783 196 812 q 439 863 306 863 q 669 771 590 863 q 747 498 747 679 l 747 0 l 621 0 l 621 501 q 577 692 621 632 q 446 751 534 751 q 309 692 353 751 q 265 503 265 633 l 265 478 q 418 498 321 498 l 418 399 q 320 384 349 399 q 278 333 292 368 q 265 237 265 298 l 265 0 l 139 0 l 139 241 q 164 388 139 333 q 243 469 190 444 l 139 469 l 139 496 z "},"ኮ":{"ha":859,"x_min":69,"x_max":747,"o":"m 139 496 q 168 685 139 609 q 93 764 117 708 q 69 920 69 820 l 69 1055 l 196 1055 l 196 924 q 229 783 196 812 q 439 863 306 863 q 668 771 589 863 q 747 498 747 680 l 747 375 l 621 375 l 621 501 q 577 692 621 632 q 446 751 534 751 q 309 692 353 751 q 265 503 265 633 l 265 0 l 139 0 l 139 496 z "},"ኰ":{"ha":1350,"x_min":69,"x_max":1295,"o":"m 139 496 q 168 685 139 609 q 93 764 117 708 q 69 920 69 820 l 69 1055 l 196 1055 l 196 924 q 229 783 196 812 q 439 863 306 863 q 648 792 571 863 q 742 581 725 721 l 895 581 q 1068 631 952 631 q 1236 585 1178 631 q 1295 453 1295 539 q 1236 315 1295 366 q 1068 264 1177 264 q 901 316 961 264 q 842 453 842 368 q 844 489 842 478 l 747 489 l 747 0 l 621 0 l 621 501 q 577 692 621 632 q 446 751 534 751 q 309 692 353 751 q 265 503 265 633 l 265 0 l 139 0 l 139 496 m 1068 551 q 992 525 1020 551 q 965 453 965 499 q 992 374 965 404 q 1068 343 1019 343 q 1143 374 1116 343 q 1171 453 1171 405 q 1143 526 1171 500 q 1068 551 1116 551 z "},"ኲ":{"ha":1204,"x_min":69,"x_max":1149,"o":"m 139 496 q 168 685 139 609 q 93 764 117 708 q 69 920 69 820 l 69 1055 l 196 1055 l 196 924 q 229 783 196 812 q 439 863 306 863 q 660 779 582 863 q 746 530 739 695 l 860 530 l 860 644 l 986 644 l 986 404 l 1121 404 l 1149 187 l 1122 187 q 1044 222 1076 187 q 1003 313 1011 258 l 860 313 l 860 439 l 747 439 l 747 0 l 621 0 l 621 501 q 577 692 621 632 q 446 751 534 751 q 309 692 353 751 q 265 503 265 633 l 265 0 l 139 0 l 139 496 z "},"ኳ":{"ha":943,"x_min":69,"x_max":873,"o":"m 139 496 q 168 685 139 609 q 93 764 117 708 q 69 920 69 820 l 69 1055 l 196 1055 l 196 924 q 229 783 196 812 q 439 863 306 863 q 668 771 589 863 q 747 498 747 680 l 747 277 l 873 277 l 873 0 l 747 0 l 747 184 l 411 184 q 370 95 403 130 q 292 60 338 60 l 265 60 l 293 277 l 621 277 l 621 501 q 577 692 621 632 q 446 751 534 751 q 309 692 353 751 q 265 503 265 633 l 265 411 l 139 411 l 139 496 z "},"ኴ":{"ha":1120,"x_min":69,"x_max":1064,"o":"m 139 496 q 168 685 139 609 q 93 764 117 708 q 69 920 69 820 l 69 1055 l 196 1055 l 196 924 q 229 783 196 812 q 439 863 306 863 q 668 771 589 863 q 747 498 747 680 l 747 367 l 875 367 q 1013 320 962 367 q 1064 195 1064 273 q 1000 50 1064 100 q 821 0 937 0 l 408 0 q 363 -79 395 -47 q 292 -111 330 -111 l 265 -111 l 293 92 l 621 92 l 621 501 q 577 692 621 632 q 446 751 534 751 q 309 692 353 751 q 265 503 265 633 l 265 375 l 139 375 l 139 496 m 747 272 l 747 92 l 798 92 q 905 116 869 92 q 940 191 940 140 q 835 272 940 272 l 747 272 z "},"ኵ":{"ha":1095,"x_min":69,"x_max":1039,"o":"m 139 496 q 168 685 139 609 q 93 764 117 708 q 69 920 69 820 l 69 1055 l 196 1055 l 196 924 q 229 783 196 812 q 439 863 306 863 q 636 802 561 863 q 736 623 711 741 l 750 623 l 750 859 l 876 859 l 876 623 l 1011 623 l 1039 406 l 1013 406 q 934 441 966 406 q 893 530 901 476 l 746 530 l 747 515 l 747 0 l 621 0 l 621 501 q 577 692 621 632 q 446 751 534 751 q 309 692 353 751 q 265 503 265 633 l 265 0 l 139 0 l 139 496 z "},"ኸ":{"ha":1101,"x_min":56,"x_max":977,"o":"m 425 977 l 425 860 q 458 720 425 749 q 668 799 535 799 q 898 707 819 799 q 977 435 977 616 l 977 0 l 850 0 l 850 437 q 807 628 850 568 q 675 688 764 688 q 538 629 583 688 q 494 439 494 570 l 494 0 l 368 0 l 368 432 q 397 621 368 545 q 322 702 346 644 q 298 856 298 759 l 298 977 l 199 977 q 153 906 185 932 q 82 879 121 879 l 56 879 l 78 1015 l 56 1152 l 82 1152 q 152 1125 120 1152 q 199 1054 184 1099 l 525 1054 q 572 1126 540 1101 q 642 1152 604 1152 l 668 1152 l 646 1015 l 668 879 l 642 879 q 571 905 603 879 q 525 977 539 931 l 425 977 z "},"ኹ":{"ha":1287,"x_min":56,"x_max":1232,"o":"m 425 977 l 425 860 q 458 720 425 749 q 668 799 535 799 q 898 707 819 799 q 977 435 977 616 l 977 431 l 1204 431 l 1232 228 l 1206 228 q 1133 260 1166 228 q 1088 339 1100 292 l 977 339 l 977 0 l 850 0 l 850 437 q 807 628 850 568 q 675 688 764 688 q 538 629 583 688 q 494 439 494 570 l 494 0 l 368 0 l 368 432 q 397 621 368 545 q 322 702 346 644 q 298 856 298 759 l 298 977 l 199 977 q 153 906 185 932 q 82 879 121 879 l 56 879 l 78 1015 l 56 1152 l 82 1152 q 152 1125 120 1152 q 199 1054 184 1099 l 525 1054 q 572 1126 540 1101 q 642 1152 604 1152 l 668 1152 l 646 1015 l 668 879 l 642 879 q 571 905 603 879 q 525 977 539 931 l 425 977 z "},"ኺ":{"ha":1305,"x_min":56,"x_max":1250,"o":"m 425 977 l 425 860 q 458 720 425 749 q 668 799 535 799 q 898 707 819 799 q 977 435 977 616 l 977 92 l 1107 92 q 1154 172 1121 140 q 1223 203 1187 203 l 1250 203 l 1227 47 l 1250 -111 l 1223 -111 q 1154 -80 1187 -111 q 1107 0 1120 -48 l 850 0 l 850 437 q 807 628 850 568 q 675 688 764 688 q 538 629 583 688 q 494 439 494 570 l 494 0 l 368 0 l 368 432 q 397 621 368 545 q 322 702 346 644 q 298 856 298 759 l 298 977 l 199 977 q 153 906 185 932 q 82 879 121 879 l 56 879 l 78 1015 l 56 1152 l 82 1152 q 152 1125 120 1152 q 199 1054 184 1099 l 525 1054 q 572 1126 540 1101 q 642 1152 604 1152 l 668 1152 l 646 1015 l 668 879 l 642 879 q 571 905 603 879 q 525 977 539 931 l 425 977 z "},"ኻ":{"ha":1101,"x_min":56,"x_max":977,"o":"m 425 977 l 425 860 q 458 720 425 749 q 668 799 535 799 q 898 707 819 799 q 977 435 977 616 l 977 0 l 850 0 l 850 437 q 807 628 850 568 q 675 688 764 688 q 538 629 583 688 q 494 439 494 570 l 494 375 l 368 375 l 368 432 q 397 621 368 545 q 322 702 346 644 q 298 856 298 759 l 298 977 l 199 977 q 153 906 185 932 q 82 879 121 879 l 56 879 l 78 1015 l 56 1152 l 82 1152 q 152 1125 120 1152 q 199 1054 184 1099 l 525 1054 q 572 1126 540 1101 q 642 1152 604 1152 l 668 1152 l 646 1015 l 668 879 l 642 879 q 571 905 603 879 q 525 977 539 931 l 425 977 z "},"ኼ":{"ha":1349,"x_min":56,"x_max":1293,"o":"m 425 977 l 425 860 q 458 720 425 749 q 668 799 535 799 q 898 707 819 799 q 977 435 977 616 l 977 367 l 1104 367 q 1242 320 1192 367 q 1293 195 1293 273 q 1230 50 1293 100 q 1050 0 1166 0 l 850 0 l 850 437 q 807 628 850 568 q 675 688 764 688 q 538 629 583 688 q 494 439 494 570 l 494 0 l 368 0 l 368 432 q 397 621 368 545 q 322 702 346 644 q 298 856 298 759 l 298 977 l 199 977 q 153 906 185 932 q 82 879 121 879 l 56 879 l 78 1015 l 56 1152 l 82 1152 q 152 1125 120 1152 q 199 1054 184 1099 l 525 1054 q 572 1126 540 1101 q 642 1152 604 1152 l 668 1152 l 646 1015 l 668 879 l 642 879 q 571 905 603 879 q 525 977 539 931 l 425 977 m 977 272 l 977 92 l 1026 92 q 1134 116 1098 92 q 1169 191 1169 140 q 1064 272 1169 272 l 977 272 z "},"ኽ":{"ha":1101,"x_min":56,"x_max":977,"o":"m 368 432 q 397 621 368 543 q 322 702 346 644 q 298 856 298 759 l 298 977 l 199 977 q 153 906 185 932 q 82 879 121 879 l 56 879 l 78 1015 l 56 1152 l 82 1152 q 152 1125 120 1152 q 199 1054 184 1099 l 525 1054 q 572 1126 540 1101 q 642 1152 604 1152 l 668 1152 l 646 1015 l 668 879 l 642 879 q 571 905 603 879 q 525 977 539 931 l 425 977 l 425 860 q 457 720 425 749 q 668 799 534 799 q 898 707 819 799 q 977 435 977 616 l 977 0 l 850 0 l 850 437 q 807 628 850 568 q 675 688 764 688 q 538 629 583 688 q 494 439 494 570 l 494 414 q 647 435 553 435 l 647 335 q 549 320 578 335 q 508 269 521 304 q 494 174 494 234 l 494 0 l 368 0 l 368 178 q 394 325 368 269 q 472 406 419 380 l 368 406 l 368 432 z "},"ኾ":{"ha":1088,"x_min":56,"x_max":977,"o":"m 425 977 l 425 860 q 458 720 425 749 q 668 799 535 799 q 898 707 819 799 q 977 435 977 616 l 977 376 l 850 376 l 850 437 q 807 628 850 568 q 675 688 764 688 q 538 629 583 688 q 494 439 494 570 l 494 0 l 368 0 l 368 432 q 397 621 368 545 q 322 702 346 644 q 298 856 298 759 l 298 977 l 199 977 q 153 906 185 932 q 82 879 121 879 l 56 879 l 78 1015 l 56 1152 l 82 1152 q 152 1125 120 1152 q 199 1054 184 1099 l 525 1054 q 572 1126 540 1101 q 642 1152 604 1152 l 668 1152 l 646 1015 l 668 879 l 642 879 q 571 905 603 879 q 525 977 539 931 l 425 977 z "},"ዀ":{"ha":1579,"x_min":56,"x_max":1524,"o":"m 425 977 l 425 860 q 458 720 425 749 q 668 799 535 799 q 877 728 800 799 q 971 517 954 657 l 1124 517 q 1297 567 1181 567 q 1466 521 1407 567 q 1524 389 1524 475 q 1465 251 1524 302 q 1297 200 1406 200 q 1131 252 1191 200 q 1071 389 1071 303 q 1074 425 1071 414 l 977 425 l 977 0 l 850 0 l 850 437 q 807 628 850 568 q 675 688 764 688 q 538 629 583 688 q 494 439 494 570 l 494 0 l 368 0 l 368 432 q 397 621 368 545 q 322 702 346 644 q 298 856 298 759 l 298 977 l 199 977 q 153 906 185 932 q 82 879 121 879 l 56 879 l 78 1015 l 56 1152 l 82 1152 q 152 1125 120 1152 q 199 1054 184 1099 l 525 1054 q 572 1126 540 1101 q 642 1152 604 1152 l 668 1152 l 646 1015 l 668 879 l 642 879 q 571 905 603 879 q 525 977 539 931 l 425 977 m 1297 488 q 1221 461 1249 488 q 1194 389 1194 434 q 1222 310 1194 340 q 1297 279 1249 279 q 1372 309 1345 279 q 1400 389 1400 339 q 1373 460 1400 433 q 1297 488 1347 488 z "},"ዂ":{"ha":1418,"x_min":56,"x_max":1362,"o":"m 425 977 l 425 860 q 458 720 425 749 q 668 799 535 799 q 865 739 790 799 q 965 558 941 678 l 1074 558 l 1074 681 l 1200 681 l 1200 440 l 1335 440 l 1362 224 l 1336 224 q 1257 259 1290 224 q 1217 349 1225 294 l 1074 349 l 1074 467 l 975 467 l 977 451 l 977 0 l 850 0 l 850 437 q 807 628 850 568 q 675 688 764 688 q 538 629 583 688 q 494 439 494 570 l 494 0 l 368 0 l 368 432 q 397 621 368 545 q 322 702 346 644 q 298 856 298 759 l 298 977 l 199 977 q 153 906 185 932 q 82 879 121 879 l 56 879 l 78 1015 l 56 1152 l 82 1152 q 152 1125 120 1152 q 199 1054 184 1099 l 525 1054 q 572 1126 540 1101 q 642 1152 604 1152 l 668 1152 l 646 1015 l 668 879 l 642 879 q 571 905 603 879 q 525 977 539 931 l 425 977 z "},"ዃ":{"ha":1177,"x_min":56,"x_max":1121,"o":"m 425 977 l 425 860 q 458 720 425 749 q 668 799 535 799 q 898 707 819 799 q 977 435 977 616 l 977 92 l 1093 92 l 1121 -111 l 1095 -111 q 1022 -79 1056 -111 q 977 0 989 -47 l 639 0 q 593 -79 626 -47 q 522 -111 561 -111 l 496 -111 l 524 92 l 850 92 l 850 437 q 807 628 850 568 q 675 688 764 688 q 538 629 583 688 q 494 439 494 570 l 494 375 l 368 375 l 368 432 q 397 621 368 545 q 322 702 346 644 q 298 856 298 759 l 298 977 l 199 977 q 153 906 185 932 q 82 879 121 879 l 56 879 l 78 1015 l 56 1152 l 82 1152 q 152 1125 120 1152 q 199 1054 184 1099 l 525 1054 q 572 1126 540 1101 q 642 1152 604 1152 l 668 1152 l 646 1015 l 668 879 l 642 879 q 571 905 603 879 q 525 977 539 931 l 425 977 z "},"ዄ":{"ha":1349,"x_min":56,"x_max":1293,"o":"m 425 977 l 425 860 q 458 720 425 749 q 668 799 535 799 q 898 707 819 799 q 977 435 977 616 l 977 367 l 1104 367 q 1242 320 1192 367 q 1293 195 1293 273 q 1230 50 1293 100 q 1050 0 1166 0 l 637 0 q 592 -79 625 -47 q 521 -111 559 -111 l 494 -111 l 522 92 l 850 92 l 850 437 q 807 628 850 568 q 675 688 764 688 q 538 629 583 688 q 494 439 494 570 l 494 375 l 368 375 l 368 432 q 397 621 368 545 q 322 702 346 644 q 298 856 298 759 l 298 977 l 199 977 q 153 906 185 932 q 82 879 121 879 l 56 879 l 78 1015 l 56 1152 l 82 1152 q 152 1125 120 1152 q 199 1054 184 1099 l 525 1054 q 572 1126 540 1101 q 642 1152 604 1152 l 668 1152 l 646 1015 l 668 879 l 642 879 q 571 905 603 879 q 525 977 539 931 l 425 977 m 977 272 l 977 92 l 1026 92 q 1134 116 1098 92 q 1169 191 1169 140 q 1064 272 1169 272 l 977 272 z "},"ዅ":{"ha":1324,"x_min":56,"x_max":1268,"o":"m 425 977 l 425 860 q 458 720 425 749 q 668 799 535 799 q 865 739 790 799 q 965 558 941 678 l 979 558 l 979 799 l 1105 799 l 1105 558 l 1240 558 l 1268 342 l 1242 342 q 1163 377 1196 342 q 1122 467 1131 412 l 975 467 l 977 451 l 977 0 l 850 0 l 850 437 q 807 628 850 568 q 675 688 764 688 q 538 629 583 688 q 494 439 494 570 l 494 0 l 368 0 l 368 432 q 397 621 368 545 q 322 702 346 644 q 298 856 298 759 l 298 977 l 199 977 q 153 906 185 932 q 82 879 121 879 l 56 879 l 78 1015 l 56 1152 l 82 1152 q 152 1125 120 1152 q 199 1054 184 1099 l 525 1054 q 572 1126 540 1101 q 642 1152 604 1152 l 668 1152 l 646 1015 l 668 879 l 642 879 q 571 905 603 879 q 525 977 539 931 l 425 977 z "},"ወ":{"ha":1063,"x_min":83,"x_max":981,"o":"m 653 991 q 897 878 813 991 q 981 557 981 764 q 946 326 981 429 q 848 168 911 224 q 700 111 784 111 l 600 111 q 366 0 489 0 q 155 115 227 0 q 83 452 83 229 q 129 734 83 608 q 255 926 174 860 q 446 991 337 991 l 653 991 m 367 94 q 415 103 393 94 q 473 139 437 111 l 473 900 l 453 900 q 326 847 380 900 q 239 685 271 793 q 207 453 207 577 q 367 94 207 94 m 602 900 l 602 203 l 675 203 q 810 290 764 203 q 856 551 856 377 q 804 813 856 726 q 653 900 753 900 l 602 900 z "},"ዉ":{"ha":1206,"x_min":83,"x_max":1150,"o":"m 653 991 q 897 878 813 991 q 981 557 981 764 q 955 356 981 449 q 880 203 929 264 l 1122 203 l 1150 -14 l 1124 -14 q 1044 22 1076 -14 q 1004 111 1013 57 l 600 111 q 366 0 489 0 q 155 115 227 0 q 83 452 83 229 q 129 734 83 608 q 255 926 174 860 q 446 991 337 991 l 653 991 m 367 94 q 415 103 393 94 q 473 139 437 111 l 473 900 l 453 900 q 326 847 380 900 q 239 685 271 793 q 207 453 207 577 q 367 94 207 94 m 602 900 l 602 203 l 675 203 q 810 290 764 203 q 856 551 856 377 q 804 813 856 726 q 653 900 753 900 l 602 900 z "},"ዊ":{"ha":1063,"x_min":83,"x_max":979,"o":"m 692 991 q 903 924 826 991 q 979 741 979 856 q 945 604 979 665 q 847 510 911 544 q 699 476 783 476 l 600 476 l 600 92 l 739 92 q 784 170 751 137 q 856 203 818 203 l 882 203 l 860 47 l 882 -111 l 856 -111 q 784 -78 818 -111 q 739 0 750 -45 l 473 0 l 473 422 q 338 401 409 401 q 148 470 212 401 q 83 664 83 538 q 125 834 83 759 q 245 950 167 909 q 422 991 323 991 l 692 991 m 343 496 q 473 525 416 496 l 473 900 l 432 900 q 310 869 360 900 q 234 784 260 838 q 207 660 207 729 q 241 539 207 583 q 343 496 275 496 m 600 900 l 600 568 l 673 568 q 809 611 762 568 q 856 741 856 654 q 809 859 856 819 q 677 900 762 900 l 600 900 z "},"ዋ":{"ha":1063,"x_min":83,"x_max":979,"o":"m 692 991 q 903 924 826 991 q 979 741 979 856 q 945 604 979 665 q 847 510 911 544 q 699 476 783 476 l 600 476 l 600 0 l 473 0 l 473 422 q 338 401 409 401 q 148 470 212 401 q 83 664 83 538 q 125 834 83 759 q 245 950 167 909 q 422 991 323 991 l 692 991 m 343 496 q 473 525 416 496 l 473 900 l 432 900 q 310 869 360 900 q 234 784 260 838 q 207 660 207 729 q 241 539 207 583 q 343 496 275 496 m 600 900 l 600 568 l 673 568 q 809 611 762 568 q 856 741 856 654 q 809 859 856 819 q 677 900 762 900 l 600 900 z "},"ዌ":{"ha":1063,"x_min":83,"x_max":979,"o":"m 473 422 q 338 401 409 401 q 148 470 212 401 q 83 664 83 538 q 125 834 83 759 q 245 950 167 909 q 422 991 323 991 l 692 991 q 903 924 826 991 q 979 741 979 856 q 945 604 979 665 q 847 510 911 544 q 699 476 783 476 l 600 476 l 600 367 l 728 367 q 866 320 815 367 q 917 195 917 273 q 853 50 917 100 q 673 0 789 0 l 473 0 l 473 422 m 343 496 q 473 525 416 496 l 473 900 l 432 900 q 310 869 360 900 q 234 784 260 838 q 207 660 207 729 q 241 539 207 583 q 343 496 275 496 m 600 900 l 600 568 l 673 568 q 809 611 762 568 q 856 741 856 654 q 809 859 856 819 q 677 900 762 900 l 600 900 m 600 272 l 600 92 l 650 92 q 757 116 722 92 q 793 191 793 140 q 688 272 793 272 l 600 272 z "},"ው":{"ha":1295,"x_min":83,"x_max":1239,"o":"m 653 991 q 895 881 811 991 q 981 564 978 771 l 1211 564 l 1239 361 l 1213 361 q 1140 393 1173 361 q 1095 472 1107 425 l 977 472 q 886 208 959 305 q 700 111 812 111 l 600 111 q 366 0 489 0 q 155 115 227 0 q 83 452 83 229 q 129 734 83 608 q 255 926 174 860 q 446 991 337 991 l 653 991 m 367 94 q 415 103 393 94 q 473 139 437 111 l 473 900 l 453 900 q 326 847 380 900 q 239 685 271 793 q 207 453 207 577 q 367 94 207 94 m 602 900 l 602 203 l 675 203 q 810 290 764 203 q 856 551 856 377 q 804 813 856 726 q 653 900 753 900 l 602 900 z "},"ዎ":{"ha":1063,"x_min":83,"x_max":979,"o":"m 692 991 q 903 924 826 991 q 979 741 979 856 q 945 604 979 665 q 847 510 911 544 q 699 476 783 476 l 589 476 l 401 0 l 272 0 l 443 412 q 338 401 395 401 q 148 470 212 401 q 83 664 83 538 q 125 834 83 759 q 245 950 167 909 q 422 991 323 991 l 692 991 m 343 496 q 473 525 416 496 l 473 900 l 432 900 q 310 869 360 900 q 234 784 260 838 q 207 660 207 729 q 241 539 207 583 q 343 496 275 496 m 600 900 l 600 568 l 673 568 q 809 611 762 568 q 856 741 856 654 q 809 859 856 819 q 677 900 762 900 l 600 900 z "},"ዐ":{"ha":859,"x_min":111,"x_max":747,"o":"m 747 350 q 664 80 747 173 q 425 -14 581 -14 q 191 81 271 -14 q 111 353 111 175 l 111 637 q 191 910 111 816 q 425 1004 271 1004 q 664 911 580 1004 q 747 640 747 817 l 747 350 m 621 643 q 575 833 621 773 q 432 893 529 893 q 284 833 331 893 q 237 644 237 772 l 237 346 q 284 157 237 217 q 432 97 331 97 q 574 157 528 97 q 621 347 621 216 l 621 643 z "},"ዑ":{"ha":1059,"x_min":111,"x_max":1003,"o":"m 977 347 q 904 379 937 347 q 859 458 871 411 l 747 458 l 747 350 q 664 80 747 173 q 425 -14 581 -14 q 191 81 271 -14 q 111 353 111 175 l 111 637 q 191 910 111 816 q 425 1004 271 1004 q 664 911 580 1004 q 747 640 747 817 l 747 550 l 975 550 l 1003 347 l 977 347 m 621 643 q 575 833 621 773 q 432 893 529 893 q 284 833 331 893 q 237 644 237 772 l 237 346 q 284 157 237 217 q 432 97 331 97 q 574 157 528 97 q 621 347 621 216 l 621 643 z "},"ዒ":{"ha":1011,"x_min":83,"x_max":956,"o":"m 595 597 q 575 504 595 545 l 765 504 l 597 92 l 812 92 q 859 171 826 139 q 929 203 892 203 l 956 203 l 933 47 l 956 -110 l 929 -110 q 859 -78 892 -110 q 812 0 826 -46 l 454 0 l 454 78 l 591 412 l 472 412 q 339 390 416 390 q 150 443 216 390 q 83 597 83 496 l 83 799 q 149 951 83 897 q 338 1006 215 1006 q 527 951 459 1006 q 595 799 595 897 l 595 597 m 339 484 q 445 516 414 484 q 476 619 476 549 l 476 782 q 444 880 476 848 q 338 913 412 913 q 234 880 266 913 q 201 782 201 848 l 201 619 q 234 516 201 549 q 339 484 266 484 z "},"ዓ":{"ha":836,"x_min":83,"x_max":765,"o":"m 561 0 l 422 0 l 591 412 l 472 412 q 339 390 416 390 q 150 443 216 390 q 83 597 83 496 l 83 799 q 149 951 83 897 q 338 1006 215 1006 q 527 951 459 1006 q 595 799 595 897 l 595 597 q 575 504 595 545 l 765 504 l 561 0 m 339 484 q 445 516 414 484 q 476 619 476 549 l 476 782 q 444 880 476 848 q 338 913 412 913 q 234 880 266 913 q 201 782 201 848 l 201 619 q 234 516 201 549 q 339 484 266 484 z "},"ዔ":{"ha":1026,"x_min":83,"x_max":971,"o":"m 710 367 l 782 367 q 920 320 869 367 q 971 195 971 273 q 907 50 971 100 q 728 0 844 0 l 454 0 l 454 79 l 591 412 l 472 412 q 339 390 416 390 q 150 443 216 390 q 83 597 83 496 l 83 799 q 149 951 83 897 q 338 1006 215 1006 q 527 951 459 1006 q 595 799 595 897 l 595 597 q 575 504 595 545 l 765 504 l 710 367 m 339 484 q 445 516 414 484 q 476 619 476 549 l 476 782 q 444 880 476 848 q 338 913 412 913 q 234 880 266 913 q 201 782 201 848 l 201 619 q 234 516 201 549 q 339 484 266 484 m 671 272 l 597 92 l 704 92 q 811 116 776 92 q 847 191 847 140 q 742 272 847 272 l 671 272 z "},"ዕ":{"ha":859,"x_min":111,"x_max":747,"o":"m 747 350 q 664 80 747 173 q 425 -14 581 -14 q 191 80 271 -14 q 111 353 111 174 l 111 496 q 176 748 111 655 q 366 859 241 841 l 366 1055 l 492 1055 l 492 857 q 681 747 614 839 q 747 498 747 654 l 747 350 m 621 501 q 574 691 621 631 q 432 751 528 751 q 284 691 330 751 q 237 503 237 631 l 237 347 q 284 157 237 217 q 432 97 331 97 q 574 157 528 97 q 621 347 621 216 l 621 501 z "},"ዖ":{"ha":746,"x_min":71,"x_max":675,"o":"m 71 0 q 195 387 85 257 q 317 492 254 455 l 354 514 q 237 604 279 538 q 196 761 196 669 q 264 939 196 872 q 443 1006 333 1006 q 615 946 555 1006 q 675 771 675 886 q 654 650 675 703 q 593 557 633 598 q 472 471 553 515 q 342 380 393 427 q 263 289 291 334 q 221 184 236 244 q 197 0 207 125 l 71 0 m 441 911 q 352 870 384 911 q 319 757 319 829 q 468 587 319 603 q 533 662 515 618 q 551 764 551 705 q 441 911 551 911 z "},"ዘ":{"ha":754,"x_min":125,"x_max":629,"o":"m 629 0 l 503 0 l 503 492 l 252 492 l 252 0 l 125 0 l 125 991 l 252 991 l 252 583 l 503 583 l 503 991 l 629 991 l 629 0 z "},"ዙ":{"ha":947,"x_min":125,"x_max":892,"o":"m 629 0 l 503 0 l 503 492 l 252 492 l 252 0 l 125 0 l 125 991 l 252 991 l 252 583 l 503 583 l 503 991 l 629 991 l 629 583 l 864 583 l 892 367 l 865 367 q 786 402 818 367 q 746 492 754 437 l 629 492 l 629 0 z "},"ዚ":{"ha":947,"x_min":125,"x_max":892,"o":"m 629 92 l 749 92 q 794 170 760 137 q 865 203 827 203 l 892 203 l 869 47 l 892 -111 l 865 -111 q 793 -78 827 -111 q 749 0 760 -45 l 503 0 l 503 492 l 252 492 l 252 0 l 125 0 l 125 991 l 252 991 l 252 583 l 503 583 l 503 991 l 629 991 l 629 92 z "},"ዛ":{"ha":754,"x_min":125,"x_max":629,"o":"m 629 0 l 503 0 l 503 492 l 252 492 l 252 245 l 125 245 l 125 991 l 252 991 l 252 583 l 503 583 l 503 991 l 629 991 l 629 0 z "},"ዜ":{"ha":1002,"x_min":125,"x_max":946,"o":"m 503 492 l 252 492 l 252 0 l 125 0 l 125 991 l 252 991 l 252 583 l 503 583 l 503 991 l 629 991 l 629 367 l 757 367 q 895 320 844 367 q 946 195 946 273 q 882 50 946 100 q 703 0 819 0 l 503 0 l 503 492 m 629 272 l 629 92 l 679 92 q 786 116 751 92 q 822 191 822 140 q 717 272 822 272 l 629 272 z "},"ዝ":{"ha":937,"x_min":56,"x_max":812,"o":"m 167 991 q 330 964 277 991 q 409 877 384 937 q 435 710 435 817 l 435 583 l 686 583 l 686 991 l 812 991 l 812 0 l 686 0 l 686 492 l 435 492 l 435 0 l 309 0 l 309 722 q 286 858 309 817 q 208 900 264 900 l 199 900 q 151 819 183 850 q 82 789 119 789 l 56 789 l 83 991 l 167 991 z "},"ዞ":{"ha":754,"x_min":125,"x_max":629,"o":"m 629 245 l 503 245 l 503 492 l 252 492 l 252 0 l 125 0 l 125 991 l 252 991 l 252 583 l 503 583 l 503 991 l 629 991 l 629 245 z "},"ዟ":{"ha":937,"x_min":125,"x_max":882,"o":"m 629 92 l 854 92 l 882 -111 l 856 -111 q 786 -81 819 -111 q 737 0 753 -52 l 395 0 q 347 -81 379 -52 q 278 -111 315 -111 l 252 -111 l 279 92 l 503 92 l 503 492 l 252 492 l 252 245 l 125 245 l 125 991 l 252 991 l 252 583 l 503 583 l 503 991 l 629 991 l 629 92 z "},"ዠ":{"ha":1121,"x_min":56,"x_max":1065,"o":"m 167 991 q 330 964 277 991 q 409 877 384 937 q 435 710 435 817 l 435 583 l 686 583 l 686 710 q 711 877 686 816 q 790 964 736 937 q 954 991 844 991 l 1038 991 l 1065 789 l 1039 789 q 968 822 1001 789 q 922 900 935 854 l 913 900 q 834 857 856 900 q 812 722 812 814 l 812 0 l 686 0 l 686 492 l 435 492 l 435 0 l 309 0 l 309 722 q 286 858 309 817 q 208 900 264 900 l 199 900 q 151 819 183 850 q 82 789 119 789 l 56 789 l 83 991 l 167 991 z "},"ዡ":{"ha":1121,"x_min":56,"x_max":1065,"o":"m 167 991 q 330 964 277 991 q 409 877 384 937 q 435 710 435 817 l 435 583 l 686 583 l 686 710 q 711 877 686 816 q 790 964 736 937 q 954 991 844 991 l 1038 991 l 1065 789 l 1039 789 q 968 822 1001 789 q 922 900 935 854 l 913 900 q 834 857 856 900 q 812 722 812 814 l 812 583 l 1038 583 l 1065 380 l 1039 380 q 966 412 999 380 q 921 492 933 444 l 812 492 l 812 0 l 686 0 l 686 492 l 435 492 l 435 0 l 309 0 l 309 722 q 286 858 309 817 q 208 900 264 900 l 199 900 q 151 819 183 850 q 82 789 119 789 l 56 789 l 83 991 l 167 991 z "},"ዢ":{"ha":1121,"x_min":56,"x_max":1065,"o":"m 167 991 q 330 964 277 991 q 409 877 384 937 q 435 710 435 817 l 435 583 l 686 583 l 686 710 q 711 877 686 816 q 790 964 736 937 q 954 991 844 991 l 1038 991 l 1065 789 l 1039 789 q 968 822 1001 789 q 922 900 935 854 l 913 900 q 834 857 856 900 q 812 722 812 814 l 812 92 l 922 92 q 967 170 934 137 q 1039 203 1001 203 l 1065 203 l 1043 47 l 1065 -111 l 1039 -111 q 967 -78 1001 -111 q 922 0 933 -45 l 686 0 l 686 492 l 435 492 l 435 0 l 309 0 l 309 722 q 286 858 309 817 q 208 900 264 900 l 199 900 q 151 819 183 850 q 82 789 119 789 l 56 789 l 83 991 l 167 991 z "},"ዣ":{"ha":1121,"x_min":56,"x_max":1065,"o":"m 167 991 q 330 964 277 991 q 409 877 384 937 q 435 710 435 817 l 435 583 l 686 583 l 686 710 q 711 877 686 816 q 790 964 736 937 q 954 991 844 991 l 1038 991 l 1065 789 l 1039 789 q 968 822 1001 789 q 922 900 935 854 l 913 900 q 834 857 856 900 q 812 722 812 814 l 812 0 l 686 0 l 686 492 l 435 492 l 435 245 l 309 245 l 309 722 q 286 858 309 817 q 208 900 264 900 l 199 900 q 151 819 183 850 q 82 789 119 789 l 56 789 l 83 991 l 167 991 z "},"ዤ":{"ha":1185,"x_min":56,"x_max":1129,"o":"m 167 991 q 330 964 277 991 q 409 877 384 937 q 435 710 435 817 l 435 583 l 686 583 l 686 710 q 711 877 686 816 q 790 964 736 937 q 954 991 844 991 l 1038 991 l 1065 789 l 1039 789 q 968 822 1001 789 q 922 900 935 854 l 913 900 q 834 857 856 900 q 812 722 812 814 l 812 367 l 940 367 q 1078 320 1027 367 q 1129 195 1129 273 q 1066 51 1129 101 q 886 0 1004 0 l 686 0 l 686 492 l 435 492 l 435 0 l 309 0 l 309 722 q 286 858 309 817 q 208 900 264 900 l 199 900 q 151 819 183 850 q 82 789 119 789 l 56 789 l 83 991 l 167 991 m 812 272 l 812 92 l 863 92 q 970 116 935 92 q 1006 191 1006 140 q 900 272 1006 272 l 812 272 z "},"ዥ":{"ha":1189,"x_min":56,"x_max":1133,"o":"m 602 1152 l 579 1015 l 602 879 l 575 879 q 503 906 536 879 q 458 977 470 934 l 386 977 l 386 754 q 475 663 447 725 q 503 503 503 602 l 503 469 l 754 469 l 754 503 q 779 669 754 608 q 858 758 804 730 q 1022 785 911 785 l 1105 785 l 1133 582 l 1107 582 q 1038 612 1070 582 q 990 693 1006 643 l 981 693 q 903 652 925 693 q 880 515 880 610 l 880 0 l 754 0 l 754 378 l 503 378 l 503 0 l 376 0 l 376 515 q 345 651 376 608 q 235 693 313 693 l 199 693 q 151 612 183 643 q 82 582 119 582 l 56 582 l 83 785 l 195 785 q 260 782 229 785 l 260 977 l 199 977 q 153 906 185 932 q 82 879 121 879 l 56 879 l 78 1015 l 56 1152 l 82 1152 q 152 1125 120 1152 q 199 1054 184 1099 l 458 1054 q 503 1124 471 1097 q 575 1152 536 1152 l 602 1152 z "},"ዦ":{"ha":1121,"x_min":56,"x_max":1065,"o":"m 167 991 q 330 964 277 991 q 409 877 384 937 q 435 710 435 817 l 435 583 l 686 583 l 686 710 q 711 877 686 816 q 790 964 736 937 q 954 991 844 991 l 1038 991 l 1065 789 l 1039 789 q 968 822 1001 789 q 922 900 935 854 l 913 900 q 834 857 856 900 q 812 722 812 814 l 812 245 l 686 245 l 686 492 l 435 492 l 435 0 l 309 0 l 309 722 q 286 858 309 817 q 208 900 264 900 l 199 900 q 151 819 183 850 q 82 789 119 789 l 56 789 l 83 991 l 167 991 z "},"ዧ":{"ha":1121,"x_min":56,"x_max":1065,"o":"m 167 991 q 330 964 277 991 q 409 877 384 937 q 435 710 435 817 l 435 583 l 686 583 l 686 710 q 711 877 686 816 q 790 964 736 937 q 954 991 844 991 l 1038 991 l 1065 789 l 1039 789 q 968 822 1001 789 q 922 900 935 854 l 913 900 q 834 857 856 900 q 812 722 812 814 l 812 92 l 1038 92 l 1065 -111 l 1039 -111 q 967 -79 1000 -111 q 921 0 933 -47 l 578 0 q 530 -81 562 -52 q 461 -111 498 -111 l 435 -111 l 463 92 l 686 92 l 686 492 l 435 492 l 435 245 l 309 245 l 309 722 q 286 858 309 817 q 208 900 264 900 l 199 900 q 151 819 183 850 q 82 789 119 789 l 56 789 l 83 991 l 167 991 z "},"የ":{"ha":701,"x_min":104,"x_max":597,"o":"m 294 0 l 294 131 q 274 321 294 239 q 210 481 254 402 l 172 549 q 104 766 104 671 q 170 942 104 878 q 345 1006 236 1006 q 531 945 465 1006 q 597 771 597 884 q 524 593 597 664 q 335 511 451 522 q 402 328 384 410 q 421 153 421 245 l 421 0 l 294 0 m 350 911 q 261 874 295 911 q 228 775 228 837 q 290 599 228 685 q 427 654 381 610 q 473 772 473 699 q 440 873 473 835 q 350 911 406 911 z "},"ዩ":{"ha":729,"x_min":104,"x_max":673,"o":"m 294 0 l 294 131 q 274 321 294 239 q 210 481 254 402 l 172 549 q 104 766 104 671 q 170 942 104 878 q 345 1006 236 1006 q 531 945 465 1006 q 597 771 597 884 q 524 593 597 664 q 335 511 451 522 q 397 350 375 428 l 646 350 l 673 147 l 647 147 q 576 178 609 147 q 529 258 544 208 l 414 258 q 421 153 421 203 l 421 0 l 294 0 m 350 911 q 261 874 295 911 q 228 775 228 837 q 290 599 228 685 q 427 654 381 610 q 473 772 473 699 q 440 873 473 835 q 350 911 406 911 z "},"ዪ":{"ha":886,"x_min":104,"x_max":831,"o":"m 294 0 l 294 131 q 274 321 294 239 q 210 481 254 402 l 172 549 q 104 766 104 671 q 170 942 104 878 q 345 1006 236 1006 q 531 945 465 1006 q 597 771 597 884 q 524 593 597 664 q 335 511 451 522 q 387 380 370 435 l 542 380 l 542 494 l 668 494 l 668 254 l 803 254 l 831 37 l 804 37 q 726 73 758 37 q 685 163 693 108 l 542 163 l 542 289 l 410 289 q 421 153 421 222 l 421 0 l 294 0 m 350 911 q 261 874 295 911 q 228 775 228 837 q 290 599 228 685 q 427 654 381 610 q 473 772 473 699 q 440 873 473 835 q 350 911 406 911 z "},"ያ":{"ha":757,"x_min":56,"x_max":653,"o":"m 199 0 q 152 -80 185 -48 q 82 -111 119 -111 l 56 -111 l 78 45 l 56 203 l 82 203 q 152 172 119 203 q 199 92 184 141 l 350 92 l 350 131 q 330 321 350 239 q 265 481 309 402 q 199 605 218 564 q 171 687 181 647 q 160 766 160 727 q 226 942 160 878 q 400 1006 292 1006 q 587 945 521 1006 q 653 771 653 884 q 579 592 653 663 q 390 511 505 522 q 456 336 437 416 q 476 164 475 256 l 476 0 l 199 0 m 406 911 q 317 874 351 911 q 283 775 283 837 q 346 599 283 685 q 483 654 437 610 q 529 772 529 699 q 495 873 529 835 q 406 911 462 911 z "},"ዬ":{"ha":913,"x_min":104,"x_max":857,"o":"m 294 0 l 294 131 q 274 321 294 239 q 210 481 254 402 l 172 549 q 104 766 104 671 q 170 942 104 878 q 345 1006 236 1006 q 531 945 465 1006 q 597 771 597 884 q 524 593 597 664 q 335 511 451 522 q 385 392 369 438 l 673 392 q 811 354 764 392 q 857 249 857 317 q 809 135 857 176 q 673 94 761 94 q 538 137 587 94 q 490 249 490 179 q 503 314 490 284 l 406 314 q 421 153 421 237 l 421 0 l 294 0 m 350 911 q 261 874 295 911 q 228 775 228 837 q 290 599 228 685 q 427 654 381 610 q 473 772 473 699 q 440 873 473 835 q 350 911 406 911 m 673 318 q 618 299 637 318 q 599 249 599 281 q 618 189 599 211 q 673 167 637 167 q 729 190 710 167 q 749 249 749 213 q 729 299 749 280 q 673 318 709 318 z "},"ይ":{"ha":996,"x_min":56,"x_max":926,"o":"m 385 93 q 243 316 296 174 q 191 612 191 458 q 267 901 191 795 q 476 1007 343 1007 q 603 981 549 1007 q 685 907 656 955 q 714 799 714 859 q 614 610 714 674 q 322 546 513 546 q 377 313 334 417 q 486 151 420 210 q 618 93 551 93 q 751 152 703 93 q 799 318 799 210 l 799 371 l 926 371 l 926 330 q 848 85 926 168 q 616 1 770 1 l 199 1 q 152 -78 185 -47 q 82 -110 119 -110 l 56 -110 l 78 46 l 56 204 l 82 204 q 152 173 119 204 q 199 93 184 142 l 385 93 m 484 913 q 363 842 408 913 q 318 653 318 770 l 318 644 q 529 681 468 646 q 590 794 590 715 q 559 880 590 847 q 484 913 529 913 z "},"ዮ":{"ha":920,"x_min":104,"x_max":864,"o":"m 294 0 l 294 131 q 274 321 294 239 q 210 481 254 402 l 172 549 q 104 766 104 671 q 170 942 104 878 q 345 1006 236 1006 q 523 952 456 1006 q 596 796 589 898 l 836 796 l 864 593 l 838 593 q 765 625 798 593 q 720 704 732 656 l 589 704 q 498 572 568 623 q 335 511 429 520 q 402 328 384 410 q 421 153 421 245 l 421 0 l 294 0 m 350 911 q 261 874 295 911 q 228 775 228 837 q 290 599 228 685 q 427 654 381 610 q 473 772 473 699 q 440 873 473 835 q 350 911 406 911 z "},"ደ":{"ha":821,"x_min":56,"x_max":765,"o":"m 318 203 q 209 428 244 315 q 174 647 174 542 q 250 913 174 819 q 460 1007 326 1007 q 588 980 534 1007 q 669 906 642 953 q 697 799 697 859 q 601 610 697 674 q 323 546 505 546 l 311 546 q 362 372 320 462 q 473 203 405 282 l 737 203 l 765 0 l 739 0 q 669 30 702 0 q 621 111 636 60 l 200 111 q 152 31 185 61 q 82 0 119 0 l 56 0 l 83 203 l 318 203 m 467 913 q 345 842 389 913 q 301 653 301 772 l 301 644 q 510 679 447 646 q 574 794 574 712 q 543 879 574 845 q 467 913 513 913 z "},"ዱ":{"ha":1193,"x_min":56,"x_max":1137,"o":"m 397 415 q 273 726 273 532 q 342 932 273 857 q 532 1007 411 1007 q 659 981 606 1007 q 741 907 712 955 q 770 799 770 859 q 685 618 770 685 q 450 547 600 552 q 693 415 524 415 l 863 415 l 863 278 l 1109 278 l 1137 61 l 1111 61 q 1033 96 1066 61 q 991 186 1000 131 l 863 186 l 863 0 l 736 0 l 736 323 l 199 323 q 151 242 183 272 q 82 212 119 212 l 56 212 l 83 415 l 397 415 m 539 913 q 435 866 469 913 q 401 737 401 820 q 412 644 401 683 q 586 681 526 648 q 646 790 646 714 q 617 878 646 843 q 539 913 588 913 z "},"ዲ":{"ha":1208,"x_min":56,"x_max":1153,"o":"m 863 415 l 863 92 l 1010 92 q 1055 170 1021 137 q 1126 203 1088 203 l 1153 203 l 1131 47 l 1153 -111 l 1126 -111 q 1055 -78 1088 -111 q 1010 0 1021 -45 l 736 0 l 736 323 l 199 323 q 151 242 183 272 q 82 212 119 212 l 56 212 l 83 415 l 397 415 q 273 726 273 532 q 342 932 273 857 q 532 1007 411 1007 q 659 981 606 1007 q 741 907 712 955 q 770 799 770 859 q 685 618 770 685 q 450 547 600 552 q 693 415 524 415 l 863 415 m 539 913 q 435 866 469 913 q 401 737 401 820 q 412 644 401 683 q 586 681 526 648 q 646 790 646 714 q 617 878 646 843 q 539 913 588 913 z "},"ዳ":{"ha":974,"x_min":56,"x_max":863,"o":"m 397 415 q 273 726 273 532 q 342 932 273 857 q 532 1007 411 1007 q 659 981 606 1007 q 741 907 712 955 q 770 799 770 859 q 685 618 770 685 q 450 547 600 552 q 684 415 522 415 l 863 415 l 863 0 l 736 0 l 736 323 l 199 323 q 151 242 183 272 q 82 212 119 212 l 56 212 l 83 415 l 397 415 m 539 913 q 435 866 469 913 q 401 737 401 820 q 412 644 401 683 q 586 681 526 648 q 646 790 646 714 q 617 878 646 843 q 539 913 588 913 z "},"ዴ":{"ha":974,"x_min":56,"x_max":918,"o":"m 199 193 q 151 112 183 142 q 82 82 119 82 l 56 82 l 83 285 l 392 285 q 305 376 346 317 q 242 505 264 435 q 220 647 220 575 q 296 913 220 819 q 505 1007 372 1007 q 633 980 579 1007 q 715 907 686 954 q 743 799 743 860 q 648 611 743 675 q 370 546 552 546 l 357 546 q 696 285 435 285 l 734 285 q 872 247 825 285 q 918 142 918 210 q 869 28 918 68 q 734 -12 820 -12 q 600 29 649 -12 q 551 142 551 71 q 558 193 551 174 l 199 193 m 513 913 q 391 842 435 913 q 347 653 347 772 l 347 644 q 556 679 494 646 q 619 794 619 713 q 590 879 619 844 q 513 913 560 913 m 734 211 q 679 192 699 211 q 660 142 660 174 q 680 81 660 103 q 734 60 700 60 q 789 82 769 60 q 810 142 810 104 q 790 192 810 173 q 734 211 770 211 z "},"ድ":{"ha":1014,"x_min":56,"x_max":958,"o":"m 318 203 q 209 428 244 315 q 174 647 174 542 q 250 913 174 819 q 460 1007 326 1007 q 588 980 534 1007 q 669 906 642 953 q 697 799 697 859 l 697 794 l 930 794 l 958 591 l 932 591 q 861 622 894 591 q 814 703 829 652 l 679 703 q 323 546 611 546 l 311 546 q 362 372 320 462 q 473 203 405 282 l 737 203 l 765 0 l 739 0 q 669 30 702 0 q 621 111 636 60 l 200 111 q 152 31 185 61 q 82 0 119 0 l 56 0 l 83 203 l 318 203 m 467 913 q 345 842 389 913 q 301 653 301 772 l 301 644 q 510 679 447 646 q 574 794 574 712 q 543 879 574 845 q 467 913 513 913 z "},"ዶ":{"ha":971,"x_min":69,"x_max":916,"o":"m 345 323 q 253 308 282 323 q 210 257 223 292 q 196 163 196 222 l 196 0 l 69 0 l 69 158 q 129 354 69 294 q 311 415 189 415 l 411 415 q 317 514 348 469 q 271 612 286 559 q 256 730 256 665 q 326 932 256 857 q 514 1007 395 1007 q 687 951 623 1007 q 751 799 751 895 q 713 669 751 726 q 604 582 675 612 q 433 551 532 551 q 547 449 478 484 q 701 415 615 415 l 888 415 l 916 199 l 889 199 q 810 234 843 199 q 770 323 778 269 l 345 323 m 521 913 q 418 867 453 913 q 383 737 383 822 q 391 667 383 694 l 395 648 q 570 681 513 648 q 628 790 628 714 q 598 878 628 843 q 521 913 568 913 z "},"ዷ":{"ha":1028,"x_min":56,"x_max":972,"o":"m 972 -111 l 946 -111 q 874 -79 907 -111 q 828 0 840 -47 l 447 0 q 401 -79 434 -47 q 330 -111 369 -111 l 304 -111 l 332 92 l 574 92 l 574 237 l 199 237 q 151 156 183 186 q 82 126 119 126 l 56 126 l 83 329 l 332 329 q 224 486 266 387 q 182 686 182 585 q 246 925 182 844 q 440 1007 311 1007 q 614 950 551 1007 q 677 799 677 892 q 591 615 677 680 q 336 546 504 551 q 450 382 378 435 q 629 329 523 329 l 700 329 l 700 92 l 945 92 l 972 -111 m 447 913 q 347 860 385 913 q 310 700 310 806 q 314 644 310 682 q 499 683 444 649 q 554 790 554 717 q 525 878 554 843 q 447 913 496 913 z "},"ዸ":{"ha":821,"x_min":56,"x_max":765,"o":"m 321 203 q 222 386 255 292 q 189 568 189 479 q 371 869 189 826 l 371 1055 l 497 1055 l 497 875 q 635 807 586 863 q 685 671 685 751 q 596 488 685 554 q 345 418 508 422 q 397 307 366 358 q 476 203 429 256 l 737 203 l 765 0 l 739 0 q 669 30 702 0 q 621 111 636 60 l 200 111 q 152 31 185 61 q 82 0 119 0 l 56 0 l 83 203 l 321 203 m 454 785 q 351 734 386 785 q 317 578 317 684 q 321 517 317 546 q 504 553 446 519 q 561 663 561 587 q 531 749 561 713 q 454 785 501 785 z "},"ዹ":{"ha":1193,"x_min":56,"x_max":1137,"o":"m 355 379 q 273 618 273 469 q 320 795 273 724 q 452 889 366 866 l 452 1055 l 578 1055 l 578 896 q 717 829 665 885 q 770 690 770 773 q 685 510 770 576 q 450 439 600 444 q 647 379 503 379 l 863 379 l 863 254 l 1109 254 l 1137 37 l 1111 37 q 1033 72 1066 37 q 991 163 1000 107 l 863 163 l 863 0 l 736 0 l 736 288 l 199 288 q 151 206 183 236 q 82 176 119 176 l 56 176 l 83 379 l 355 379 m 539 804 q 435 758 469 804 q 401 629 401 712 q 412 536 401 575 q 589 574 532 539 q 646 682 646 610 q 616 769 646 734 q 539 804 587 804 z "},"ዺ":{"ha":1208,"x_min":56,"x_max":1153,"o":"m 358 379 q 273 618 273 466 q 320 795 273 724 q 452 889 366 866 l 452 1055 l 578 1055 l 578 896 q 717 829 665 885 q 770 690 770 773 q 685 510 770 576 q 450 439 600 444 q 647 379 503 379 l 863 379 l 863 92 l 1010 92 q 1055 170 1021 137 q 1126 203 1088 203 l 1153 203 l 1131 47 l 1153 -111 l 1126 -111 q 1055 -78 1088 -111 q 1010 0 1021 -45 l 736 0 l 736 288 l 199 288 q 151 206 183 236 q 82 176 119 176 l 56 176 l 83 379 l 358 379 m 539 804 q 435 758 469 804 q 401 629 401 712 q 412 536 401 575 q 589 574 532 539 q 646 682 646 610 q 616 769 646 734 q 539 804 587 804 z "},"ዻ":{"ha":974,"x_min":56,"x_max":863,"o":"m 359 379 q 296 481 319 420 q 273 618 273 541 q 320 795 273 724 q 452 889 366 866 l 452 1055 l 578 1055 l 578 896 q 717 829 665 885 q 770 690 770 773 q 685 510 770 576 q 450 439 600 444 q 647 379 503 379 l 863 379 l 863 0 l 736 0 l 736 288 l 199 288 q 151 206 183 236 q 82 176 119 176 l 56 176 l 83 379 l 359 379 m 539 804 q 435 758 469 804 q 401 629 401 712 q 412 536 401 575 q 589 574 532 539 q 646 682 646 610 q 616 769 646 734 q 539 804 587 804 z "},"ዼ":{"ha":974,"x_min":56,"x_max":918,"o":"m 199 193 q 151 112 183 142 q 82 82 119 82 l 56 82 l 83 285 l 364 285 q 275 435 307 345 q 243 618 243 525 q 289 795 243 724 q 421 889 336 866 l 421 1055 l 547 1055 l 547 896 q 687 829 634 885 q 739 690 739 773 q 654 510 739 576 q 419 439 570 444 q 500 323 447 361 q 643 285 554 285 l 734 285 q 872 247 825 285 q 918 142 918 210 q 869 28 918 68 q 734 -12 820 -12 q 600 29 649 -12 q 551 142 551 71 q 558 193 551 174 l 199 193 m 509 804 q 405 758 439 804 q 371 629 371 712 q 382 536 371 575 q 558 574 501 539 q 615 682 615 610 q 586 769 615 734 q 509 804 557 804 m 734 211 q 679 192 699 211 q 660 142 660 174 q 680 81 660 103 q 734 60 700 60 q 789 82 769 60 q 810 142 810 104 q 790 192 810 173 q 734 211 770 211 z "},"ዽ":{"ha":1002,"x_min":56,"x_max":946,"o":"m 321 203 q 222 386 255 292 q 189 568 189 479 q 371 869 189 826 l 371 1055 l 497 1055 l 497 875 q 627 815 578 864 q 684 690 677 767 l 918 690 l 946 488 l 920 488 q 847 519 880 488 q 802 599 814 551 l 675 599 q 564 467 648 513 q 345 418 479 421 q 397 307 366 358 q 476 203 429 256 l 737 203 l 765 0 l 739 0 q 669 30 702 0 q 621 111 636 60 l 200 111 q 152 31 185 61 q 82 0 119 0 l 56 0 l 83 203 l 321 203 m 454 785 q 351 734 386 785 q 317 578 317 684 q 321 517 317 546 q 504 553 446 519 q 561 663 561 587 q 531 749 561 713 q 454 785 501 785 z "},"ዾ":{"ha":971,"x_min":69,"x_max":916,"o":"m 345 214 q 253 198 282 214 q 210 147 223 182 q 196 53 196 113 l 196 0 l 69 0 l 69 49 q 129 245 69 184 q 311 306 189 306 l 403 306 q 256 603 256 414 q 307 781 256 711 q 449 872 357 852 l 449 1055 l 575 1055 l 575 873 q 704 805 656 860 q 751 671 751 751 q 714 541 751 597 q 607 454 677 485 q 436 424 536 424 q 541 334 477 362 q 681 306 606 306 l 888 306 l 916 89 l 889 89 q 810 124 843 89 q 770 214 778 159 l 345 214 m 521 785 q 418 739 453 785 q 383 610 383 694 q 391 540 383 567 l 395 521 q 570 553 513 521 q 628 663 628 586 q 597 750 628 715 q 521 785 567 785 z "},"ዿ":{"ha":1028,"x_min":56,"x_max":972,"o":"m 700 314 l 700 92 l 945 92 l 972 -111 l 946 -111 q 874 -79 907 -111 q 828 0 840 -47 l 447 0 q 401 -79 434 -47 q 330 -111 369 -111 l 304 -111 l 332 92 l 574 92 l 574 222 l 199 222 q 151 141 183 171 q 82 111 119 111 l 56 111 l 83 314 l 328 314 q 208 456 244 382 q 172 618 172 530 q 222 786 172 720 q 363 872 273 852 l 363 1055 l 489 1055 l 489 873 q 620 805 572 860 q 668 671 668 750 q 590 496 668 562 q 376 424 513 430 q 643 314 467 314 l 700 314 m 437 785 q 335 741 371 785 q 300 618 300 697 q 305 567 300 597 q 318 521 311 538 q 489 555 434 521 q 545 663 545 590 q 514 750 545 715 q 437 785 484 785 z "},"ጀ":{"ha":865,"x_min":56,"x_max":810,"o":"m 497 913 l 497 825 q 632 756 583 811 q 681 621 681 701 q 640 487 681 543 q 527 401 600 431 q 363 368 454 370 q 419 273 397 303 q 476 203 441 242 l 737 203 l 765 0 l 739 0 q 669 30 702 0 q 621 111 636 60 l 200 111 q 152 31 185 61 q 82 0 119 0 l 56 0 l 83 203 l 321 203 q 216 390 248 303 q 184 562 184 477 q 233 733 184 665 q 371 822 281 802 l 371 913 l 229 913 q 183 842 216 869 q 113 815 151 815 l 86 815 l 109 951 l 86 1088 l 113 1088 q 183 1061 151 1088 q 229 990 215 1035 l 667 990 q 713 1062 682 1037 q 783 1088 745 1088 l 810 1088 l 787 951 l 810 815 l 783 815 q 713 841 745 815 q 667 913 681 867 l 497 913 m 450 734 q 349 691 386 734 q 313 571 313 648 q 323 482 313 523 l 326 467 q 498 505 439 468 q 557 612 557 542 q 527 699 557 663 q 450 734 497 734 z "},"ጁ":{"ha":1193,"x_min":56,"x_max":1137,"o":"m 354 346 q 273 575 273 428 q 320 745 273 676 q 452 838 367 814 l 452 913 l 268 913 q 222 842 256 869 q 151 815 189 815 l 125 815 l 147 951 l 125 1088 l 151 1088 q 222 1061 189 1088 q 268 990 256 1034 l 761 990 q 808 1062 776 1037 q 878 1088 840 1088 l 904 1088 l 882 951 l 904 815 l 878 815 q 807 841 839 815 q 761 913 775 867 l 578 913 l 578 844 q 718 777 666 833 q 770 639 770 721 q 732 510 770 568 q 624 421 694 453 q 465 389 554 389 q 546 355 503 363 q 647 346 588 346 l 863 346 l 861 232 l 1109 232 l 1137 16 l 1111 16 q 1033 50 1065 16 q 991 140 1000 85 l 863 140 l 863 0 l 736 0 l 736 254 l 199 254 q 151 173 183 203 q 82 143 119 143 l 56 143 l 83 346 l 354 346 m 539 753 q 435 707 469 753 q 401 578 401 661 q 416 485 401 538 q 591 523 536 488 q 646 631 646 557 q 616 718 646 683 q 539 753 587 753 z "},"ጂ":{"ha":1208,"x_min":56,"x_max":1153,"o":"m 355 346 q 273 575 273 430 q 320 745 273 676 q 452 838 367 814 l 452 913 l 268 913 q 222 842 256 869 q 151 815 189 815 l 125 815 l 147 951 l 125 1088 l 151 1088 q 222 1061 189 1088 q 268 990 256 1034 l 761 990 q 808 1062 776 1037 q 878 1088 840 1088 l 904 1088 l 882 951 l 904 815 l 878 815 q 807 841 839 815 q 761 913 775 867 l 578 913 l 578 844 q 718 777 666 833 q 770 639 770 721 q 732 510 770 568 q 624 421 694 453 q 465 389 554 389 q 552 355 506 363 q 673 346 597 346 l 863 346 l 863 92 l 1010 92 q 1055 170 1021 137 q 1126 203 1088 203 l 1153 203 l 1131 47 l 1153 -111 l 1126 -111 q 1055 -78 1088 -111 q 1010 0 1021 -45 l 736 0 l 736 254 l 199 254 q 151 173 183 203 q 82 143 119 143 l 56 143 l 83 346 l 355 346 m 539 753 q 435 707 469 753 q 401 578 401 661 q 416 485 401 538 q 591 523 536 488 q 646 631 646 557 q 616 718 646 683 q 539 753 587 753 z "},"ጃ":{"ha":974,"x_min":56,"x_max":904,"o":"m 350 346 q 273 575 273 425 q 320 745 273 676 q 452 838 367 814 l 452 913 l 268 913 q 222 842 256 869 q 151 815 189 815 l 125 815 l 147 951 l 125 1088 l 151 1088 q 222 1061 189 1088 q 268 990 256 1034 l 761 990 q 808 1062 776 1037 q 878 1088 840 1088 l 904 1088 l 882 951 l 904 815 l 878 815 q 807 841 839 815 q 761 913 775 867 l 578 913 l 578 844 q 718 777 666 833 q 770 639 770 721 q 732 510 770 568 q 624 421 694 453 q 465 389 554 389 q 552 355 506 363 q 673 346 597 346 l 863 346 l 863 0 l 736 0 l 736 254 l 199 254 q 151 173 183 203 q 82 143 119 143 l 56 143 l 83 346 l 350 346 m 539 753 q 435 707 469 753 q 401 578 401 661 q 416 485 401 538 q 591 523 536 488 q 646 631 646 557 q 616 718 646 683 q 539 753 587 753 z "},"ጄ":{"ha":974,"x_min":56,"x_max":918,"o":"m 199 193 q 151 112 183 142 q 82 82 119 82 l 56 82 l 83 285 l 345 285 q 257 413 290 338 q 224 562 224 488 q 271 733 224 664 q 410 822 319 802 l 410 913 l 268 913 q 222 842 256 869 q 151 815 189 815 l 125 815 l 147 951 l 125 1088 l 151 1088 q 222 1061 189 1088 q 268 990 256 1034 l 705 990 q 752 1062 720 1037 q 822 1088 784 1088 l 848 1088 l 827 951 l 848 815 l 822 815 q 751 841 783 815 q 705 913 720 867 l 536 913 l 536 825 q 671 756 622 811 q 720 621 720 702 q 680 491 720 547 q 573 403 641 435 q 427 370 505 371 q 504 310 452 336 q 602 285 555 285 l 734 285 q 872 247 825 285 q 918 142 918 210 q 869 28 918 68 q 734 -12 820 -12 q 600 29 649 -12 q 551 142 551 71 q 558 193 551 174 l 199 193 m 489 734 q 389 692 426 734 q 351 581 351 650 q 376 467 351 497 q 596 612 596 477 q 565 699 596 664 q 489 734 534 734 m 734 211 q 679 192 699 211 q 660 142 660 174 q 680 81 660 103 q 734 60 700 60 q 789 82 769 60 q 810 142 810 104 q 790 192 810 173 q 734 211 770 211 z "},"ጅ":{"ha":996,"x_min":56,"x_max":940,"o":"m 497 913 l 497 825 q 618 770 570 814 q 677 656 666 726 l 913 656 l 940 453 l 914 453 q 842 484 875 453 q 796 564 809 515 l 673 564 q 568 421 652 472 q 363 368 483 370 q 419 273 397 303 q 476 203 441 242 l 737 203 l 765 0 l 739 0 q 669 30 702 0 q 621 111 636 60 l 200 111 q 152 31 185 61 q 82 0 119 0 l 56 0 l 83 203 l 321 203 q 216 390 248 303 q 184 562 184 477 q 233 733 184 665 q 371 822 281 802 l 371 913 l 229 913 q 183 842 216 869 q 113 815 151 815 l 86 815 l 109 951 l 86 1088 l 113 1088 q 183 1061 151 1088 q 229 990 215 1035 l 667 990 q 713 1062 682 1037 q 783 1088 745 1088 l 810 1088 l 787 951 l 810 815 l 783 815 q 713 841 745 815 q 667 913 681 867 l 497 913 m 450 734 q 349 691 386 734 q 313 571 313 648 q 323 482 313 523 l 326 467 q 498 505 439 468 q 557 612 557 542 q 527 699 557 663 q 450 734 497 734 z "},"ጆ":{"ha":972,"x_min":69,"x_max":917,"o":"m 575 913 l 575 829 q 704 761 656 816 q 751 627 751 707 q 673 452 751 519 q 467 380 595 385 q 566 310 509 330 q 726 289 623 289 l 888 289 l 916 72 l 889 72 q 810 107 843 72 q 770 197 778 142 l 345 197 q 253 181 282 197 q 210 131 223 165 q 196 36 196 96 l 196 0 l 69 0 l 69 32 q 129 228 69 168 q 311 289 189 289 l 403 289 q 297 415 339 337 q 256 572 256 494 q 306 741 256 673 q 449 828 357 809 l 449 913 l 254 913 q 209 842 241 869 q 138 815 176 815 l 111 815 l 134 951 l 111 1088 l 138 1088 q 208 1061 176 1088 q 254 990 240 1035 l 774 990 q 819 1061 786 1034 q 890 1088 851 1088 l 917 1088 l 895 951 l 917 815 l 890 815 q 818 843 851 815 q 774 913 785 870 l 575 913 m 521 741 q 420 698 457 741 q 383 586 383 656 q 392 521 383 551 q 408 476 400 491 q 574 512 520 477 q 628 618 628 546 q 598 706 628 671 q 521 741 568 741 z "},"ጇ":{"ha":1055,"x_min":56,"x_max":1000,"o":"m 728 300 l 728 92 l 972 92 l 1000 -111 l 974 -111 q 902 -79 935 -111 q 856 0 868 -47 l 475 0 q 429 -79 462 -47 q 358 -111 397 -111 l 332 -111 l 359 92 l 602 92 l 602 208 l 199 208 q 151 127 183 157 q 82 97 119 97 l 56 97 l 83 300 l 326 300 q 236 422 271 348 q 200 568 200 496 q 250 745 200 677 q 390 831 300 812 l 390 913 l 199 913 q 153 842 185 869 q 82 815 121 815 l 56 815 l 78 951 l 56 1088 l 82 1088 q 152 1061 120 1088 q 199 990 184 1035 l 708 990 q 755 1062 723 1037 q 825 1088 787 1088 l 851 1088 l 829 951 l 851 815 l 825 815 q 755 841 787 815 q 708 913 722 867 l 517 913 l 517 832 q 647 764 599 819 q 694 629 694 709 q 618 455 694 522 q 403 382 542 389 q 490 322 435 344 q 603 300 544 300 l 728 300 m 464 743 q 362 700 397 743 q 326 576 326 656 q 333 524 326 553 q 347 479 339 494 q 514 512 457 479 q 571 621 571 545 q 541 708 571 673 q 464 743 511 743 z "},"ገ":{"ha":808,"x_min":56,"x_max":684,"o":"m 557 524 q 528 760 557 685 q 430 868 499 836 q 220 900 361 900 l 199 900 q 151 819 183 850 q 82 789 119 789 l 56 789 l 83 991 l 215 991 q 502 950 406 991 q 641 815 597 908 q 684 561 684 723 l 684 0 l 557 0 l 557 524 z "},"ጉ":{"ha":1013,"x_min":56,"x_max":957,"o":"m 557 524 q 528 760 557 685 q 430 868 499 836 q 220 900 361 900 l 199 900 q 151 819 183 850 q 82 789 119 789 l 56 789 l 83 991 l 215 991 q 481 958 390 991 q 622 850 573 925 q 681 646 670 776 l 929 646 l 957 443 l 930 443 q 860 473 892 443 q 812 554 827 504 l 684 554 l 684 0 l 557 0 l 557 524 z "},"ጊ":{"ha":1021,"x_min":56,"x_max":965,"o":"m 557 524 q 528 760 557 685 q 430 868 499 836 q 220 900 361 900 l 199 900 q 151 819 183 850 q 82 789 119 789 l 56 789 l 83 991 l 215 991 q 502 950 406 991 q 641 815 597 908 q 684 561 684 723 l 684 92 l 822 92 q 869 172 836 140 q 939 203 902 203 l 965 203 l 943 47 l 965 -111 l 939 -111 q 869 -80 902 -111 q 822 0 836 -48 l 557 0 l 557 524 z "},"ጋ":{"ha":873,"x_min":56,"x_max":749,"o":"m 749 349 q 715 144 749 219 q 609 35 682 70 q 408 0 536 0 l 199 0 q 151 -81 183 -52 q 82 -111 119 -111 l 56 -111 l 83 92 l 404 92 q 573 147 523 92 q 623 335 623 202 l 623 521 q 588 753 623 675 q 474 866 554 831 q 216 900 393 900 l 199 900 q 151 819 183 850 q 82 789 119 789 l 56 789 l 83 991 l 244 991 q 562 950 460 991 q 706 810 663 909 q 749 519 749 711 l 749 349 z "},"ጌ":{"ha":1055,"x_min":56,"x_max":1000,"o":"m 557 524 q 528 760 557 685 q 430 868 499 836 q 220 900 361 900 l 199 900 q 151 819 183 850 q 82 789 119 789 l 56 789 l 83 991 l 214 991 q 502 950 406 991 q 641 815 598 908 q 684 561 684 722 l 684 367 l 811 367 q 949 320 899 367 q 1000 195 1000 273 q 937 50 1000 100 q 757 0 873 0 l 557 0 l 557 524 m 684 272 l 684 92 l 733 92 q 841 116 805 92 q 876 191 876 140 q 771 272 876 272 l 684 272 z "},"ግ":{"ha":1074,"x_min":56,"x_max":949,"o":"m 822 524 q 794 756 822 681 q 700 865 766 831 q 511 899 635 898 q 536 800 536 856 q 472 653 536 709 q 296 597 408 597 q 119 652 182 597 q 56 800 56 707 q 117 943 56 894 q 296 991 178 991 l 492 991 q 771 950 677 991 q 906 817 864 909 q 949 561 949 724 l 949 0 l 822 0 l 822 524 m 296 911 q 211 881 242 911 q 179 799 179 851 q 211 709 179 744 q 296 675 243 675 q 380 709 348 675 q 412 799 412 744 q 381 881 412 851 q 296 911 349 911 z "},"ጎ":{"ha":808,"x_min":56,"x_max":684,"o":"m 557 393 q 528 630 557 555 q 430 738 499 705 q 220 770 361 770 l 199 770 q 151 689 183 720 q 82 659 119 659 l 56 659 l 83 861 l 215 861 q 290 859 255 861 l 290 1055 l 416 1055 l 416 844 q 622 719 560 816 q 684 431 684 622 l 684 0 l 557 0 l 557 393 z "},"ጐ":{"ha":1213,"x_min":56,"x_max":1157,"o":"m 557 393 q 528 630 557 555 q 430 738 499 705 q 220 770 361 770 l 199 770 q 151 689 183 720 q 82 659 119 659 l 56 659 l 83 861 l 215 861 q 290 859 255 861 l 290 1055 l 416 1055 l 416 844 q 600 748 538 820 q 677 539 662 675 l 974 539 q 1111 502 1064 539 q 1157 396 1157 465 q 1109 282 1157 323 q 974 241 1061 241 q 839 283 888 241 q 790 396 790 325 q 803 461 790 433 l 684 461 l 684 0 l 557 0 l 557 393 m 974 465 q 919 447 939 465 q 899 396 899 429 q 918 337 899 359 q 974 314 938 314 q 1029 336 1009 314 q 1048 396 1048 358 q 1028 447 1048 429 q 974 465 1008 465 z "},"ጒ":{"ha":1135,"x_min":56,"x_max":1079,"o":"m 557 524 q 528 760 557 685 q 430 868 499 836 q 220 900 361 900 l 199 900 q 151 819 183 850 q 82 789 119 789 l 56 789 l 83 991 l 215 991 q 476 959 385 991 q 617 856 568 927 q 679 661 666 784 l 790 661 l 790 775 l 917 775 l 917 534 l 1051 534 l 1079 318 l 1053 318 q 975 353 1008 318 q 933 443 941 388 l 790 443 l 790 570 l 684 570 l 684 0 l 557 0 l 557 524 z "},"ጓ":{"ha":808,"x_min":56,"x_max":684,"o":"m 684 0 l 557 0 l 557 187 q 527 407 557 331 q 430 513 497 482 q 220 545 362 545 l 199 545 q 151 464 183 494 q 82 433 119 433 l 56 433 l 83 636 l 215 636 q 339 631 292 636 l 363 629 l 363 664 q 330 851 363 802 q 214 900 298 900 l 199 900 q 151 819 183 850 q 82 789 119 789 l 56 789 l 83 991 l 182 991 q 363 959 297 991 q 459 856 429 926 q 489 660 489 785 l 489 600 q 639 464 594 558 q 684 207 684 370 l 684 0 z "},"ጔ":{"ha":1055,"x_min":56,"x_max":1000,"o":"m 199 0 q 151 -81 183 -52 q 82 -111 119 -111 l 56 -111 l 83 92 l 557 92 l 557 524 q 528 760 557 685 q 430 868 499 836 q 220 900 361 900 l 199 900 q 151 819 183 850 q 82 789 119 789 l 56 789 l 83 991 l 215 991 q 502 950 406 991 q 641 815 597 908 q 684 561 684 723 l 684 367 l 811 367 q 949 320 899 367 q 1000 195 1000 273 q 937 50 1000 100 q 757 0 873 0 l 199 0 m 684 272 l 684 92 l 733 92 q 841 116 805 92 q 876 191 876 140 q 771 272 876 272 l 684 272 z "},"ጕ":{"ha":1135,"x_min":56,"x_max":1079,"o":"m 557 524 q 528 760 557 685 q 430 868 499 836 q 220 900 361 900 l 199 900 q 151 819 183 850 q 82 789 119 789 l 56 789 l 83 991 l 215 991 q 486 957 393 991 q 626 844 578 922 q 681 631 673 766 l 790 631 l 790 745 l 917 745 l 917 631 l 1051 631 l 1079 414 l 1053 414 q 975 449 1008 414 q 933 539 941 484 l 684 539 l 684 0 l 557 0 l 557 524 z "},"ጘ":{"ha":854,"x_min":56,"x_max":729,"o":"m 597 275 q 569 512 597 437 q 471 620 540 587 q 260 652 402 652 l 239 652 q 193 573 226 606 q 122 541 160 541 l 96 541 l 123 743 l 293 743 l 329 742 l 329 913 l 199 913 q 153 842 185 869 q 82 815 121 815 l 56 815 l 78 951 l 56 1088 l 82 1088 q 152 1061 120 1088 q 199 990 184 1035 l 586 990 q 633 1062 601 1037 q 703 1088 665 1088 l 729 1088 l 707 951 l 729 815 l 703 815 q 632 841 664 815 q 586 913 600 867 l 456 913 l 456 726 q 662 601 600 697 q 724 313 724 504 l 724 0 l 597 0 l 597 275 z "},"ጙ":{"ha":1053,"x_min":56,"x_max":997,"o":"m 597 275 q 569 512 597 437 q 471 620 540 587 q 260 652 402 652 l 239 652 q 193 573 226 606 q 122 541 160 541 l 96 541 l 123 743 l 293 743 l 329 742 l 329 913 l 199 913 q 153 842 185 869 q 82 815 121 815 l 56 815 l 78 951 l 56 1088 l 82 1088 q 152 1061 120 1088 q 199 990 184 1035 l 586 990 q 633 1062 601 1037 q 703 1088 665 1088 l 729 1088 l 707 951 l 729 815 l 703 815 q 632 841 664 815 q 586 913 600 867 l 456 913 l 456 726 q 633 638 572 703 q 713 454 694 572 l 970 454 l 997 252 l 971 252 q 899 282 932 252 q 852 363 867 313 l 722 363 l 724 313 l 724 0 l 597 0 l 597 275 z "},"ጚ":{"ha":1061,"x_min":56,"x_max":1006,"o":"m 597 277 q 568 512 597 437 q 470 620 539 587 q 260 652 401 652 l 239 652 q 193 573 226 606 q 122 541 160 541 l 96 541 l 123 743 l 293 743 l 329 742 l 329 913 l 199 913 q 153 842 185 869 q 82 815 121 815 l 56 815 l 78 951 l 56 1088 l 82 1088 q 152 1061 120 1088 q 199 990 184 1035 l 586 990 q 633 1062 601 1037 q 703 1088 665 1088 l 729 1088 l 707 951 l 729 815 l 703 815 q 632 841 664 815 q 586 913 600 867 l 456 913 l 456 726 q 662 601 600 697 q 724 313 724 504 l 724 92 l 863 92 q 908 170 874 137 q 979 203 941 203 l 1006 203 l 983 47 l 1006 -111 l 979 -111 q 907 -78 941 -111 q 863 0 873 -45 l 597 0 l 597 277 z "},"ጛ":{"ha":880,"x_min":56,"x_max":755,"o":"m 729 1088 l 707 951 l 729 815 l 703 815 q 632 841 664 815 q 586 913 600 867 l 456 913 l 456 732 q 628 670 563 715 q 725 548 694 624 q 755 342 755 472 l 755 318 q 676 75 755 150 q 415 0 597 0 l 199 0 q 151 -81 183 -52 q 82 -111 119 -111 l 56 -111 l 83 92 l 410 92 q 577 145 526 92 q 629 317 629 199 l 629 335 q 589 523 629 457 q 460 621 548 589 q 224 653 372 653 l 200 653 q 153 574 186 606 q 82 542 119 542 l 56 542 l 83 745 l 329 745 l 329 913 l 199 913 q 153 842 185 869 q 82 815 121 815 l 56 815 l 78 951 l 56 1088 l 82 1088 q 152 1061 120 1088 q 199 990 184 1035 l 586 990 q 633 1062 601 1037 q 703 1088 665 1088 l 729 1088 z "},"ጜ":{"ha":1057,"x_min":56,"x_max":1002,"o":"m 729 1088 l 707 951 l 729 815 l 703 815 q 632 841 664 815 q 586 913 600 867 l 456 913 l 456 718 q 622 601 566 691 q 684 367 677 510 l 812 367 q 951 320 900 367 q 1002 195 1002 273 q 938 50 1002 100 q 758 0 874 0 l 558 0 l 558 277 q 529 513 558 437 q 430 621 500 589 q 220 653 361 653 l 199 653 q 151 572 183 603 q 82 542 119 542 l 56 542 l 83 745 l 215 745 q 329 741 273 745 l 329 913 l 199 913 q 153 842 185 869 q 82 815 121 815 l 56 815 l 78 951 l 56 1088 l 82 1088 q 152 1061 120 1088 q 199 990 184 1035 l 586 990 q 633 1062 601 1037 q 703 1088 665 1088 l 729 1088 m 685 272 l 685 92 l 734 92 q 842 116 806 92 q 878 191 878 140 q 772 272 878 272 l 685 272 z "},"ጝ":{"ha":1074,"x_min":56,"x_max":949,"o":"m 822 277 q 794 509 822 434 q 700 618 766 585 q 511 652 634 651 q 536 553 536 609 q 472 406 536 461 q 296 350 408 350 q 119 405 182 350 q 56 553 56 459 q 118 696 56 647 q 296 745 181 745 l 363 745 l 363 913 l 232 913 q 186 842 218 869 q 115 815 154 815 l 89 815 l 111 951 l 89 1088 l 115 1088 q 185 1061 153 1088 q 232 990 218 1035 l 619 990 q 666 1062 634 1037 q 736 1088 698 1088 l 762 1088 l 741 951 l 762 815 l 736 815 q 665 841 697 815 q 619 913 633 867 l 489 913 l 489 745 l 492 745 q 770 703 677 745 q 906 569 863 662 q 949 314 949 476 l 949 0 l 822 0 l 822 277 m 296 664 q 210 634 241 664 q 179 551 179 604 q 210 463 179 498 q 296 428 241 428 q 381 463 349 428 q 412 551 412 497 q 381 634 412 604 q 296 664 350 664 z "},"ጞ":{"ha":918,"x_min":69,"x_max":869,"o":"m 639 991 q 663 904 663 954 q 593 747 663 819 q 549 699 566 719 q 526 667 531 679 q 732 556 671 642 q 793 283 793 470 l 793 0 l 667 0 l 667 277 q 636 466 667 403 q 536 558 606 530 q 338 587 467 587 l 294 587 q 249 509 281 542 q 178 476 216 476 l 151 476 l 179 679 l 403 679 q 431 718 410 697 q 320 777 363 730 q 277 888 277 824 q 306 991 277 948 l 212 991 q 169 923 201 951 q 96 895 136 895 l 69 895 l 92 1031 l 69 1166 l 96 1166 q 168 1139 136 1166 q 212 1069 201 1111 l 726 1069 q 772 1140 741 1114 q 843 1166 803 1166 l 869 1166 l 847 1031 l 869 895 l 843 895 q 771 921 802 895 q 726 991 740 948 l 639 991 m 469 975 q 419 952 439 975 q 400 896 400 929 q 490 798 400 823 q 539 900 539 843 q 522 955 539 935 q 469 975 504 975 z "},"ጠ":{"ha":1304,"x_min":125,"x_max":1179,"o":"m 715 991 l 715 928 q 808 974 753 957 q 916 991 863 991 q 1179 640 1179 991 l 1179 0 l 1053 0 l 1053 602 q 1035 773 1053 718 q 979 854 1017 827 q 873 880 940 880 q 788 865 836 880 q 715 827 741 850 l 715 0 l 589 0 l 589 880 q 335 790 419 880 q 252 510 252 701 l 252 0 l 125 0 l 125 496 q 239 863 125 734 q 564 991 353 991 l 715 991 z "},"ጡ":{"ha":1510,"x_min":125,"x_max":1454,"o":"m 1179 494 l 1426 494 l 1454 278 l 1428 278 q 1349 313 1382 278 q 1308 403 1316 347 l 1179 403 l 1179 0 l 1053 0 l 1053 602 q 1035 773 1053 718 q 979 854 1017 827 q 873 880 940 880 q 788 865 836 880 q 715 827 741 850 l 715 0 l 589 0 l 589 880 q 335 790 419 880 q 252 510 252 701 l 252 0 l 125 0 l 125 496 q 239 863 125 734 q 564 991 353 991 l 715 991 l 715 928 q 808 974 753 957 q 916 991 863 991 q 1179 640 1179 991 l 1179 494 z "},"ጢ":{"ha":1511,"x_min":125,"x_max":1455,"o":"m 715 991 l 715 928 q 808 974 753 957 q 916 991 863 991 q 1179 640 1179 991 l 1179 92 l 1312 92 q 1359 172 1326 140 q 1429 203 1392 203 l 1455 203 l 1434 47 l 1455 -111 l 1429 -111 q 1359 -80 1392 -111 q 1312 0 1326 -48 l 1053 0 l 1053 602 q 1035 773 1053 718 q 979 854 1017 827 q 873 880 940 880 q 788 865 836 880 q 715 827 741 850 l 715 0 l 589 0 l 589 880 q 335 790 419 880 q 252 510 252 701 l 252 0 l 125 0 l 125 496 q 239 863 125 734 q 564 991 353 991 l 715 991 z "},"ጣ":{"ha":1291,"x_min":111,"x_max":1165,"o":"m 701 991 l 701 928 q 796 975 743 958 q 901 991 849 991 q 1165 640 1165 991 l 1165 0 l 1039 0 l 1039 602 q 1021 771 1039 715 q 965 853 1004 827 q 860 880 927 880 q 774 865 822 880 q 701 827 726 850 l 701 329 l 575 329 l 575 880 q 321 790 406 880 q 237 510 237 701 l 237 329 l 111 329 l 111 496 q 225 863 111 734 q 550 991 339 991 l 701 991 z "},"ጤ":{"ha":1524,"x_min":125,"x_max":1468,"o":"m 715 991 l 715 928 q 808 974 753 957 q 916 991 863 991 q 1179 640 1179 991 l 1179 367 l 1279 367 q 1417 320 1367 367 q 1468 195 1468 273 q 1404 50 1468 100 q 1225 0 1341 0 l 1053 0 l 1053 602 q 1035 773 1053 718 q 979 854 1017 827 q 873 880 940 880 q 788 865 836 880 q 715 827 741 850 l 715 0 l 589 0 l 589 880 q 335 790 419 880 q 252 510 252 701 l 252 0 l 125 0 l 125 496 q 239 863 125 734 q 564 991 353 991 l 715 991 m 1179 272 l 1179 92 l 1202 92 q 1309 116 1274 92 q 1344 191 1344 140 q 1239 272 1344 272 l 1179 272 z "},"ጥ":{"ha":1276,"x_min":111,"x_max":1165,"o":"m 799 0 l 672 0 l 672 528 l 522 528 l 522 880 l 506 881 q 307 782 377 881 q 237 510 237 683 l 237 329 l 111 329 l 111 496 q 216 863 111 735 q 519 991 321 991 l 648 991 l 648 928 q 757 974 690 956 q 884 991 823 991 q 1096 906 1027 991 q 1165 640 1165 821 l 1165 329 l 1039 329 l 1039 602 q 1020 779 1039 727 q 960 856 1002 831 q 844 880 918 880 q 737 865 798 880 q 648 827 675 849 l 648 619 l 799 619 l 799 0 z "},"ጦ":{"ha":1291,"x_min":125,"x_max":1179,"o":"m 715 991 l 715 928 q 808 974 753 957 q 916 991 863 991 q 1179 640 1179 991 l 1179 329 l 1053 329 l 1053 602 q 1035 773 1053 718 q 979 854 1017 827 q 873 880 940 880 q 788 865 836 880 q 715 827 741 850 l 715 329 l 589 329 l 589 880 q 335 790 419 880 q 252 510 252 701 l 252 0 l 125 0 l 125 496 q 239 863 125 734 q 564 991 353 991 l 715 991 z "},"ጧ":{"ha":1459,"x_min":111,"x_max":1404,"o":"m 1404 -111 l 1378 -111 q 1306 -79 1339 -111 q 1260 0 1272 -47 l 844 0 q 799 -79 831 -47 q 728 -111 766 -111 l 701 -111 l 729 92 l 1039 92 l 1039 602 q 1021 771 1039 715 q 965 853 1004 827 q 860 880 927 880 q 774 865 822 880 q 701 827 726 850 l 701 329 l 575 329 l 575 880 q 321 790 406 880 q 237 510 237 701 l 237 329 l 111 329 l 111 496 q 225 863 111 734 q 550 991 339 991 l 701 991 l 701 928 q 796 975 743 958 q 901 991 849 991 q 1165 640 1165 991 l 1165 92 l 1377 92 l 1404 -111 z "},"ጨ":{"ha":1593,"x_min":125,"x_max":1537,"o":"m 125 496 q 245 863 125 734 q 590 991 366 991 l 750 991 l 750 928 q 850 974 792 957 q 965 991 907 991 q 1249 640 1249 991 l 1249 367 l 1349 367 q 1486 321 1435 367 q 1537 195 1537 275 q 1475 51 1537 101 q 1295 0 1412 0 l 1122 0 l 1122 602 q 1103 771 1122 715 q 1041 853 1084 827 q 925 880 999 880 q 829 865 882 880 q 750 827 776 849 l 750 367 l 850 367 q 988 320 937 367 q 1039 195 1039 273 q 976 51 1039 101 q 796 0 913 0 l 624 0 l 624 880 q 344 790 436 880 q 252 510 252 701 l 252 367 l 351 367 q 490 320 439 367 q 541 195 541 273 q 477 50 541 100 q 297 0 413 0 l 125 0 l 125 496 m 252 272 l 252 92 l 273 92 q 381 116 345 92 q 416 191 416 140 q 311 272 416 272 l 252 272 m 1249 272 l 1249 92 l 1271 92 q 1378 116 1343 92 q 1414 191 1414 140 q 1308 272 1414 272 l 1249 272 m 750 272 l 750 92 l 772 92 q 880 116 844 92 q 916 191 916 140 q 810 272 916 272 l 750 272 z "},"ጩ":{"ha":1593,"x_min":125,"x_max":1537,"o":"m 125 496 q 245 863 125 734 q 590 991 366 991 l 750 991 l 750 928 q 850 974 792 957 q 965 991 907 991 q 1239 755 1198 991 l 1470 755 l 1497 553 l 1471 553 q 1398 585 1431 553 q 1353 664 1365 616 l 1249 664 l 1249 367 l 1349 367 q 1486 321 1435 367 q 1537 195 1537 275 q 1475 51 1537 101 q 1295 0 1412 0 l 1122 0 l 1122 602 q 1103 771 1122 715 q 1041 853 1084 827 q 925 880 999 880 q 829 865 882 880 q 750 827 776 849 l 750 367 l 850 367 q 988 320 937 367 q 1039 195 1039 273 q 976 51 1039 101 q 796 0 913 0 l 624 0 l 624 880 q 344 790 436 880 q 252 510 252 701 l 252 367 l 351 367 q 490 320 439 367 q 541 195 541 273 q 477 50 541 100 q 297 0 413 0 l 125 0 l 125 496 m 252 272 l 252 92 l 273 92 q 381 116 345 92 q 416 191 416 140 q 311 272 416 272 l 252 272 m 1249 272 l 1249 92 l 1271 92 q 1378 116 1343 92 q 1414 191 1414 140 q 1308 272 1414 272 l 1249 272 m 750 272 l 750 92 l 772 92 q 880 116 844 92 q 916 191 916 140 q 810 272 916 272 l 750 272 z "},"ጪ":{"ha":1581,"x_min":125,"x_max":1525,"o":"m 125 496 q 245 863 125 734 q 590 991 366 991 l 750 991 l 750 928 q 850 974 792 957 q 965 991 907 991 q 1249 640 1249 991 l 1249 92 l 1382 92 q 1427 170 1394 137 q 1499 203 1461 203 l 1525 203 l 1503 47 l 1525 -111 l 1499 -111 q 1427 -78 1461 -111 q 1382 0 1393 -45 l 1122 0 l 1122 602 q 1103 771 1122 715 q 1041 853 1084 827 q 925 880 999 880 q 829 865 882 880 q 750 827 776 849 l 750 367 l 850 367 q 988 320 937 367 q 1039 195 1039 273 q 976 51 1039 101 q 796 0 913 0 l 624 0 l 624 880 q 344 790 436 880 q 252 510 252 701 l 252 367 l 351 367 q 490 320 439 367 q 541 195 541 273 q 477 50 541 100 q 297 0 413 0 l 125 0 l 125 496 m 750 272 l 750 92 l 772 92 q 880 116 844 92 q 916 191 916 140 q 810 272 916 272 l 750 272 m 252 272 l 252 92 l 273 92 q 381 116 345 92 q 416 191 416 140 q 311 272 416 272 l 252 272 z "},"ጫ":{"ha":1579,"x_min":111,"x_max":1524,"o":"m 111 496 q 232 863 111 734 q 576 991 352 991 l 736 991 l 736 928 q 838 975 779 958 q 951 991 897 991 q 1235 640 1235 991 l 1235 367 l 1335 367 q 1473 320 1422 367 q 1524 195 1524 273 q 1460 50 1524 100 q 1280 0 1396 0 l 1108 0 l 1108 602 q 1089 771 1108 715 q 1027 853 1069 827 q 911 880 985 880 q 817 865 869 880 q 736 827 764 850 l 736 696 l 836 696 q 974 650 923 696 q 1025 524 1025 604 q 962 379 1025 430 q 782 329 899 329 l 610 329 l 610 880 q 268 696 341 880 l 338 696 q 475 650 425 696 q 526 524 526 604 q 464 379 526 430 q 283 329 401 329 l 111 329 l 111 496 m 736 602 l 736 421 l 758 421 q 866 445 830 421 q 901 519 901 469 q 796 602 901 602 l 736 602 m 1235 272 l 1235 92 l 1257 92 q 1364 116 1329 92 q 1400 191 1400 140 q 1295 272 1400 272 l 1235 272 m 243 602 q 237 510 237 567 l 237 421 l 260 421 q 367 445 332 421 q 403 519 403 469 q 297 602 403 602 l 243 602 z "},"ጬ":{"ha":1779,"x_min":125,"x_max":1724,"o":"m 125 496 q 245 863 125 734 q 590 991 366 991 l 750 991 l 750 928 q 850 974 792 957 q 965 991 907 991 q 1246 700 1223 991 l 1540 700 q 1677 662 1631 700 q 1724 557 1724 625 q 1675 443 1724 484 q 1540 403 1626 403 q 1406 444 1455 403 q 1357 557 1357 486 q 1369 623 1357 593 l 1249 623 l 1249 367 l 1349 367 q 1486 321 1435 367 q 1537 195 1537 275 q 1475 51 1537 101 q 1295 0 1412 0 l 1122 0 l 1122 602 q 1103 771 1122 715 q 1041 853 1084 827 q 925 880 999 880 q 829 865 882 880 q 750 827 776 849 l 750 367 l 850 367 q 988 320 937 367 q 1039 195 1039 273 q 976 51 1039 101 q 796 0 913 0 l 624 0 l 624 880 q 344 790 436 880 q 252 510 252 701 l 252 367 l 351 367 q 490 320 439 367 q 541 195 541 273 q 477 50 541 100 q 297 0 413 0 l 125 0 l 125 496 m 252 272 l 252 92 l 273 92 q 381 116 345 92 q 416 191 416 140 q 311 272 416 272 l 252 272 m 750 272 l 750 92 l 772 92 q 880 116 844 92 q 916 191 916 140 q 810 272 916 272 l 750 272 m 1249 272 l 1249 92 l 1271 92 q 1378 116 1343 92 q 1414 191 1414 140 q 1308 272 1414 272 l 1249 272 m 1540 627 q 1485 608 1503 627 q 1466 557 1466 589 q 1486 496 1466 518 q 1540 475 1506 475 q 1595 497 1575 475 q 1615 557 1615 519 q 1596 607 1615 587 q 1540 627 1577 627 z "},"ጭ":{"ha":1638,"x_min":111,"x_max":1582,"o":"m 111 496 q 231 862 111 733 q 576 991 351 991 l 736 991 l 736 928 q 839 974 777 956 q 964 991 902 991 q 1124 954 1052 991 q 1240 848 1197 916 q 1291 696 1284 779 l 1393 696 q 1531 649 1480 696 q 1582 524 1582 602 q 1518 379 1582 429 q 1339 329 1455 329 l 1166 329 l 1166 602 q 1108 814 1166 747 q 932 880 1049 880 q 822 866 878 880 q 736 827 767 852 l 736 619 l 886 619 l 886 367 l 986 367 q 1124 320 1074 367 q 1175 195 1175 273 q 1112 50 1175 100 q 932 0 1048 0 l 760 0 l 760 528 l 610 528 l 610 880 q 268 696 341 880 l 338 696 q 475 650 425 696 q 526 524 526 604 q 464 379 526 430 q 283 329 401 329 l 111 329 l 111 496 m 1293 602 l 1293 421 l 1315 421 q 1422 445 1387 421 q 1458 519 1458 469 q 1353 602 1458 602 l 1293 602 m 886 272 l 886 92 l 908 92 q 1016 116 980 92 q 1051 191 1051 140 q 946 272 1051 272 l 886 272 m 243 602 q 237 510 237 567 l 237 421 l 260 421 q 367 445 332 421 q 403 519 403 469 q 297 602 403 602 l 243 602 z "},"ጮ":{"ha":1557,"x_min":125,"x_max":1501,"o":"m 125 496 q 232 870 125 749 q 554 991 340 991 l 714 991 l 714 928 q 814 974 756 957 q 929 991 871 991 q 1210 696 1187 991 l 1312 696 q 1451 649 1400 696 q 1501 524 1501 602 q 1438 379 1501 429 q 1258 329 1374 329 l 1086 329 l 1086 602 q 1067 771 1086 715 q 1005 853 1048 827 q 889 880 963 880 q 793 865 846 880 q 714 827 740 849 l 714 696 l 814 696 q 952 649 901 696 q 1003 524 1003 602 q 939 379 1003 429 q 760 329 876 329 l 587 329 l 587 880 q 393 842 466 880 q 286 729 319 804 q 252 510 252 654 l 252 367 l 351 367 q 490 320 439 367 q 541 195 541 273 q 477 50 541 100 q 297 0 413 0 l 125 0 l 125 496 m 252 272 l 252 92 l 273 92 q 381 116 345 92 q 416 191 416 140 q 311 272 416 272 l 252 272 m 1213 602 l 1213 421 l 1235 421 q 1342 445 1307 421 q 1378 519 1378 469 q 1272 602 1378 602 l 1213 602 m 714 602 l 714 421 l 736 421 q 843 445 808 421 q 879 519 879 469 q 774 602 879 602 l 714 602 z "},"ጯ":{"ha":1529,"x_min":111,"x_max":1474,"o":"m 111 496 q 232 863 111 734 q 576 991 352 991 l 736 991 l 736 928 q 838 975 779 958 q 951 991 897 991 q 1235 640 1235 991 l 1235 92 l 1446 92 l 1474 -111 l 1447 -111 q 1375 -79 1409 -111 q 1329 0 1341 -47 l 879 0 q 833 -79 866 -47 q 762 -111 801 -111 l 736 -111 l 764 92 l 1108 92 l 1108 602 q 1089 771 1108 715 q 1027 853 1069 827 q 911 880 985 880 q 817 865 869 880 q 736 827 764 850 l 736 696 l 836 696 q 974 650 923 696 q 1025 524 1025 604 q 962 379 1025 430 q 782 329 899 329 l 610 329 l 610 880 q 268 696 341 880 l 338 696 q 475 650 425 696 q 526 524 526 604 q 464 379 526 430 q 283 329 401 329 l 111 329 l 111 496 m 736 602 l 736 421 l 758 421 q 866 445 830 421 q 901 519 901 469 q 796 602 901 602 l 736 602 m 243 602 q 237 510 237 567 l 237 421 l 260 421 q 367 445 332 421 q 403 519 403 469 q 297 602 403 602 l 243 602 z "},"ጰ":{"ha":715,"x_min":69,"x_max":646,"o":"m 196 0 l 69 0 q 129 290 76 178 q 288 471 182 401 q 119 704 119 545 q 168 847 119 786 q 293 924 216 907 l 293 1055 l 419 1055 l 419 924 q 556 852 505 911 q 607 711 607 794 q 566 579 607 641 q 422 443 526 517 q 589 310 533 408 q 646 62 646 212 l 646 0 l 519 0 l 519 52 q 329 374 519 344 q 246 272 275 326 q 205 142 217 217 q 196 0 194 68 m 374 538 q 484 708 484 598 q 450 802 484 766 q 359 838 416 838 q 271 800 304 838 q 237 703 237 762 q 274 596 237 639 q 374 538 311 553 z "},"ጱ":{"ha":961,"x_min":69,"x_max":905,"o":"m 196 0 l 69 0 q 129 290 76 178 q 288 471 182 401 q 119 704 119 545 q 168 847 119 786 q 293 924 216 907 l 293 1055 l 419 1055 l 419 924 q 556 852 505 911 q 607 711 607 794 q 566 579 607 641 q 422 443 526 517 q 589 310 535 405 l 878 310 l 905 107 l 879 107 q 808 138 841 107 q 761 218 776 168 l 627 218 q 646 62 646 146 l 646 0 l 519 0 l 519 52 q 329 374 519 344 q 246 272 275 326 q 205 142 217 217 q 196 0 194 68 m 374 538 q 484 708 484 598 q 450 802 484 766 q 359 838 416 838 q 271 800 304 838 q 237 703 237 762 q 274 596 237 639 q 374 538 311 553 z "},"ጲ":{"ha":996,"x_min":69,"x_max":940,"o":"m 196 0 l 69 0 q 129 290 76 178 q 288 471 182 401 q 119 704 119 545 q 168 847 119 786 q 293 924 216 907 l 293 1055 l 419 1055 l 419 924 q 556 852 505 911 q 607 711 607 794 q 566 579 607 641 q 422 443 526 517 q 582 321 525 410 q 644 92 638 233 l 798 92 q 843 170 809 137 q 914 203 876 203 l 940 203 l 918 47 l 940 -111 l 914 -111 q 842 -78 876 -111 q 798 0 808 -45 l 519 0 l 519 52 q 329 374 519 344 q 246 272 275 326 q 205 142 217 217 q 196 0 194 68 m 374 538 q 484 708 484 598 q 450 802 484 766 q 359 838 416 838 q 271 800 304 838 q 237 703 237 762 q 274 596 237 639 q 374 538 311 553 z "},"ጳ":{"ha":715,"x_min":85,"x_max":646,"o":"m 519 52 q 329 374 519 344 q 244 265 272 322 q 211 154 216 208 l 85 154 q 159 345 112 272 q 288 471 207 418 q 119 704 119 545 q 168 847 119 786 q 293 924 216 907 l 293 1055 l 419 1055 l 419 924 q 556 852 505 911 q 607 711 607 794 q 566 579 607 641 q 422 443 526 517 q 589 310 533 408 q 646 62 646 212 l 646 0 l 519 0 l 519 52 m 374 538 q 484 708 484 598 q 450 802 484 766 q 359 838 416 838 q 271 800 304 838 q 237 703 237 762 q 274 596 237 639 q 374 538 311 553 z "},"ጴ":{"ha":1010,"x_min":69,"x_max":954,"o":"m 196 0 l 69 0 q 129 290 76 178 q 288 471 182 401 q 119 704 119 545 q 168 847 119 786 q 293 924 216 907 l 293 1055 l 419 1055 l 419 924 q 556 852 505 911 q 607 711 607 794 q 565 578 607 641 q 422 443 524 515 q 611 267 545 400 q 668 316 630 296 q 760 335 707 335 q 903 288 851 335 q 954 161 954 240 q 902 25 954 75 q 760 -25 849 -25 q 671 -11 707 -25 q 611 31 636 4 q 567 94 586 57 q 529 176 549 131 q 438 320 485 275 q 329 375 392 365 q 227 228 257 311 q 196 0 196 144 m 374 538 q 484 708 484 598 q 450 802 484 766 q 359 838 416 838 q 271 800 304 838 q 237 703 237 762 q 274 596 237 639 q 374 538 311 553 m 762 243 q 699 220 722 243 q 676 158 676 197 q 700 92 676 117 q 762 66 723 66 q 823 92 801 66 q 846 158 846 117 q 823 219 846 195 q 762 243 801 243 z "},"ጵ":{"ha":886,"x_min":69,"x_max":831,"o":"m 196 0 l 69 0 q 129 290 76 178 q 288 471 182 401 q 119 704 119 545 q 168 847 119 786 q 293 924 216 907 l 293 1055 l 419 1055 l 419 924 q 550 858 500 911 q 606 728 600 805 l 803 728 l 831 525 l 804 525 q 731 557 764 525 q 686 636 699 589 l 595 636 q 538 543 578 588 q 422 443 498 498 q 589 310 533 408 q 646 62 646 212 l 646 0 l 519 0 l 519 52 q 329 374 519 344 q 246 272 275 326 q 205 142 217 217 q 196 0 194 68 m 374 538 q 484 708 484 598 q 450 802 484 766 q 359 838 416 838 q 271 800 304 838 q 237 703 237 762 q 274 596 237 639 q 374 538 311 553 z "},"ጶ":{"ha":715,"x_min":69,"x_max":637,"o":"m 196 0 l 69 0 q 129 290 76 178 q 288 471 182 401 q 119 704 119 545 q 168 847 119 786 q 293 924 216 907 l 293 1055 l 419 1055 l 419 924 q 556 852 505 911 q 607 711 607 794 q 565 578 607 641 q 422 443 524 515 q 567 343 511 414 q 637 167 623 271 l 511 167 q 444 314 489 266 q 329 374 399 362 q 246 272 275 326 q 205 142 217 217 q 196 0 194 68 m 374 538 q 484 708 484 598 q 450 802 484 766 q 359 838 416 838 q 271 800 304 838 q 237 703 237 762 q 274 596 237 639 q 374 538 311 553 z "},"ጷ":{"ha":914,"x_min":85,"x_max":859,"o":"m 518 92 q 329 374 506 347 q 244 265 272 322 q 211 154 216 208 l 85 154 q 159 345 112 272 q 288 471 207 418 q 119 704 119 545 q 168 847 119 786 q 293 924 216 907 l 293 1055 l 419 1055 l 419 924 q 556 852 505 911 q 607 711 607 794 q 566 579 607 641 q 422 443 526 517 q 582 321 525 410 q 644 92 638 233 l 831 92 l 859 -111 l 832 -111 q 760 -79 793 -111 q 714 0 726 -47 l 393 0 q 346 -81 378 -52 q 277 -111 314 -111 l 250 -111 l 278 92 l 518 92 m 374 538 q 484 708 484 598 q 450 802 484 766 q 359 838 416 838 q 271 800 304 838 q 237 703 237 762 q 274 596 237 639 q 374 538 311 553 z "},"ጸ":{"ha":766,"x_min":69,"x_max":697,"o":"m 196 0 l 69 0 q 297 547 72 385 q 175 641 217 583 q 132 774 132 699 q 198 944 132 883 q 376 1006 264 1006 q 507 977 452 1006 q 590 897 561 947 q 619 786 619 846 q 602 694 619 736 q 550 615 584 652 q 437 519 517 577 q 631 363 564 474 q 697 85 697 252 l 697 0 l 571 0 l 571 64 q 514 329 571 235 q 347 452 458 423 q 254 334 280 391 q 196 0 196 207 m 386 612 q 456 669 437 646 q 486 720 476 692 q 496 783 496 747 q 462 878 496 842 q 372 913 429 913 q 283 876 317 913 q 250 778 250 839 q 286 673 250 715 q 386 612 321 631 z "},"ጹ":{"ha":987,"x_min":69,"x_max":932,"o":"m 196 0 l 69 0 q 297 547 72 385 q 175 641 217 583 q 132 774 132 699 q 198 944 132 883 q 376 1006 264 1006 q 507 977 452 1006 q 590 897 561 947 q 619 786 619 846 q 602 694 619 736 q 550 615 584 652 q 437 519 517 577 q 659 309 594 464 l 904 309 l 932 106 l 905 106 q 835 136 867 106 q 787 216 802 166 l 685 216 q 697 85 697 154 l 697 0 l 571 0 l 571 64 q 514 329 571 235 q 347 452 458 423 q 254 334 280 391 q 196 0 196 207 m 386 612 q 456 669 437 646 q 486 720 476 692 q 496 783 496 747 q 462 878 496 842 q 372 913 429 913 q 283 876 317 913 q 250 778 250 839 q 286 673 250 715 q 386 612 321 631 z "},"ጺ":{"ha":994,"x_min":69,"x_max":939,"o":"m 196 0 l 69 0 q 297 547 72 385 q 175 641 217 583 q 132 774 132 699 q 198 944 132 883 q 376 1006 264 1006 q 507 977 452 1006 q 590 897 561 947 q 619 786 619 846 q 602 694 619 736 q 550 615 584 652 q 437 519 517 577 q 628 368 562 475 q 697 92 694 261 l 796 92 q 841 170 808 137 q 913 203 875 203 l 939 203 l 917 47 l 939 -111 l 913 -111 q 841 -78 875 -111 q 796 0 807 -45 l 571 0 l 571 64 q 514 329 571 235 q 347 452 458 423 q 254 334 280 391 q 196 0 196 207 m 386 612 q 456 669 437 646 q 486 720 476 692 q 496 783 496 747 q 462 878 496 842 q 372 913 429 913 q 283 876 317 913 q 250 778 250 839 q 286 673 250 715 q 386 612 321 631 z "},"ጻ":{"ha":766,"x_min":85,"x_max":697,"o":"m 211 182 l 85 182 q 162 399 110 311 q 297 547 214 488 q 175 641 217 583 q 132 774 132 699 q 198 944 132 883 q 376 1006 264 1006 q 507 977 452 1006 q 590 897 561 947 q 619 786 619 846 q 602 694 619 736 q 550 615 584 652 q 437 519 517 577 q 631 363 564 474 q 697 85 697 252 l 697 0 l 571 0 l 571 64 q 514 329 571 235 q 349 452 458 423 q 278 374 304 412 q 231 273 252 336 q 211 182 211 209 m 386 612 q 456 669 437 646 q 486 720 476 692 q 496 783 496 747 q 462 878 496 842 q 372 913 429 913 q 283 876 317 913 q 250 778 250 839 q 286 673 250 715 q 386 612 321 631 z "},"ጼ":{"ha":1065,"x_min":69,"x_max":1010,"o":"m 196 0 l 69 0 q 297 547 72 385 q 175 641 217 583 q 132 774 132 699 q 198 944 132 883 q 376 1006 264 1006 q 507 977 452 1006 q 590 897 561 947 q 619 786 619 846 q 602 694 619 736 q 550 615 584 652 q 437 519 517 577 q 576 429 517 489 q 675 272 634 370 q 815 335 722 335 q 958 288 907 335 q 1010 161 1010 240 q 957 25 1010 75 q 815 -25 905 -25 q 682 13 733 -25 q 606 139 631 51 q 502 356 562 283 q 347 452 441 428 q 254 334 280 391 q 196 0 196 207 m 386 612 q 456 669 437 646 q 486 720 476 692 q 496 783 496 747 q 462 878 496 842 q 372 913 429 913 q 283 876 317 913 q 250 778 250 839 q 286 673 250 715 q 386 612 321 631 m 818 243 q 754 220 777 243 q 732 158 732 197 q 755 92 732 117 q 818 66 779 66 q 879 92 857 66 q 901 158 901 117 q 879 219 901 195 q 818 243 857 243 z "},"ጽ":{"ha":895,"x_min":69,"x_max":839,"o":"m 196 0 l 69 0 q 297 547 72 385 q 175 641 217 583 q 132 774 132 699 q 198 944 132 883 q 376 1006 264 1006 q 498 981 446 1006 q 581 910 550 956 q 618 807 612 865 l 811 807 l 839 604 l 812 604 q 742 635 774 604 q 694 715 709 665 l 608 715 q 557 624 595 669 q 437 519 520 580 q 631 363 564 474 q 697 85 697 252 l 697 0 l 571 0 l 571 64 q 514 329 571 235 q 347 452 458 423 q 254 334 280 391 q 196 0 196 207 m 386 612 q 456 669 437 646 q 486 720 476 692 q 496 783 496 747 q 462 878 496 842 q 372 913 429 913 q 283 876 317 913 q 250 778 250 839 q 286 673 250 715 q 386 612 321 631 z "},"ጾ":{"ha":766,"x_min":69,"x_max":690,"o":"m 562 183 q 347 452 528 408 q 254 334 280 391 q 196 0 196 207 l 69 0 q 297 547 72 385 q 175 641 217 583 q 132 774 132 699 q 198 944 132 883 q 376 1006 264 1006 q 507 977 452 1006 q 590 897 561 947 q 619 786 619 846 q 602 694 619 736 q 550 615 584 652 q 437 519 517 577 q 609 394 545 480 q 690 183 673 307 l 562 183 m 386 612 q 456 669 437 646 q 486 720 476 692 q 496 783 496 747 q 462 878 496 842 q 372 913 429 913 q 283 876 317 913 q 250 778 250 839 q 286 673 250 715 q 386 612 321 631 z "},"ጿ":{"ha":965,"x_min":85,"x_max":909,"o":"m 211 182 l 85 182 q 162 399 110 311 q 297 547 214 488 q 175 641 217 583 q 132 774 132 699 q 198 944 132 883 q 376 1006 264 1006 q 507 977 452 1006 q 590 897 561 947 q 619 786 619 846 q 602 694 619 736 q 550 615 584 652 q 437 519 517 577 q 628 368 562 475 q 697 92 694 261 l 882 92 l 909 -111 l 884 -111 q 813 -81 846 -111 q 765 0 781 -52 l 444 0 q 399 -79 431 -47 q 328 -111 366 -111 l 301 -111 l 329 92 l 570 92 q 509 336 565 249 q 349 452 454 424 q 278 374 304 412 q 231 273 252 336 q 211 182 211 209 m 386 612 q 456 669 437 646 q 486 720 476 692 q 496 783 496 747 q 462 878 496 842 q 372 913 429 913 q 283 876 317 913 q 250 778 250 839 q 286 673 250 715 q 386 612 321 631 z "},"ፀ":{"ha":859,"x_min":111,"x_max":747,"o":"m 747 350 q 664 80 747 173 q 425 -14 581 -14 q 191 81 271 -14 q 111 353 111 175 l 111 637 q 191 910 111 816 q 425 1004 271 1004 q 664 911 580 1004 q 747 640 747 817 l 747 350 m 621 475 l 237 475 l 237 346 q 284 157 237 217 q 432 97 331 97 q 574 157 528 97 q 621 347 621 216 l 621 475 m 237 567 l 621 567 l 621 643 q 575 833 621 773 q 432 893 529 893 q 284 833 331 893 q 237 644 237 772 l 237 567 z "},"ፁ":{"ha":1028,"x_min":111,"x_max":972,"o":"m 747 567 l 945 567 l 972 364 l 946 364 q 873 396 906 364 q 828 475 840 428 l 747 475 l 747 350 q 664 80 747 173 q 425 -14 581 -14 q 191 81 271 -14 q 111 353 111 175 l 111 637 q 191 910 111 816 q 425 1004 271 1004 q 664 911 580 1004 q 747 640 747 817 l 747 567 m 621 475 l 237 475 l 237 346 q 284 157 237 217 q 432 97 331 97 q 574 157 528 97 q 621 347 621 216 l 621 475 m 237 567 l 621 567 l 621 643 q 575 833 621 773 q 432 893 529 893 q 284 833 331 893 q 237 644 237 772 l 237 567 z "},"ፂ":{"ha":782,"x_min":69,"x_max":726,"o":"m 355 401 q 142 496 216 416 q 69 724 69 576 q 143 931 69 856 q 347 1006 216 1006 q 539 939 469 1006 q 608 755 608 872 q 602 693 608 724 q 567 579 591 635 q 514 462 543 524 q 456 328 485 400 q 410 167 428 256 l 395 92 l 583 92 q 630 172 597 140 q 700 203 663 203 l 726 203 l 704 47 l 726 -111 l 700 -111 q 630 -80 663 -111 q 583 0 597 -48 l 252 0 l 283 164 q 355 401 307 281 m 340 911 q 241 869 279 911 q 195 757 203 828 l 484 757 q 340 911 470 911 m 400 500 q 439 586 421 546 q 469 665 458 625 l 196 665 q 400 500 222 511 z "},"ፃ":{"ha":677,"x_min":69,"x_max":608,"o":"m 608 755 q 597 673 608 717 q 560 565 585 618 q 507 452 535 511 q 452 322 479 392 q 410 167 426 253 l 378 0 l 252 0 l 283 164 q 355 401 307 281 q 142 496 216 416 q 69 724 69 576 q 143 931 69 856 q 347 1006 216 1006 q 539 939 469 1006 q 608 755 608 872 m 400 500 q 444 596 424 551 q 475 685 463 641 l 195 685 q 400 500 210 511 m 340 911 q 243 872 281 911 q 196 762 205 833 l 484 762 q 340 911 469 911 z "},"ፄ":{"ha":786,"x_min":69,"x_max":730,"o":"m 608 755 q 592 650 608 710 q 507 451 575 589 q 469 367 488 411 l 542 367 q 680 321 629 367 q 730 195 730 275 q 668 51 730 101 q 488 0 605 0 l 252 0 l 283 164 q 355 401 307 281 q 142 496 216 416 q 69 724 69 576 q 143 931 69 856 q 347 1006 216 1006 q 539 939 469 1006 q 608 755 608 872 m 400 500 q 444 596 424 551 q 475 685 463 641 l 195 685 q 400 500 210 511 m 340 911 q 243 872 281 911 q 196 762 205 833 l 484 762 q 340 911 469 911 m 435 272 q 423 228 429 250 q 395 92 418 206 l 464 92 q 571 116 536 92 q 607 191 607 140 q 501 272 607 272 l 435 272 z "},"ፅ":{"ha":859,"x_min":111,"x_max":747,"o":"m 747 350 q 664 80 747 173 q 425 -14 581 -14 q 191 80 271 -14 q 111 353 111 174 l 111 496 q 176 748 111 655 q 366 859 241 841 l 366 1055 l 492 1055 l 492 857 q 681 747 614 839 q 747 498 747 654 l 747 350 m 621 411 l 237 411 l 237 347 q 284 157 237 217 q 432 97 331 97 q 574 157 528 97 q 621 347 621 216 l 621 411 m 432 751 q 284 691 330 751 q 237 503 237 631 l 621 503 q 573 692 621 633 q 432 751 526 751 z "},"ፆ":{"ha":745,"x_min":71,"x_max":675,"o":"m 71 0 q 195 387 85 257 q 317 492 254 455 l 354 514 q 237 604 279 538 q 196 761 196 669 q 264 939 196 872 q 443 1006 333 1006 q 615 946 555 1006 q 675 771 675 886 q 654 650 675 703 q 593 557 633 598 q 472 471 553 515 q 342 380 393 427 q 263 289 291 334 q 221 184 236 244 q 197 0 207 125 l 71 0 m 468 587 q 549 722 537 631 l 321 722 q 468 587 336 602 m 441 911 q 361 880 391 911 q 322 800 331 849 l 549 800 q 441 911 536 911 z "},"ፈ":{"ha":893,"x_min":71,"x_max":838,"o":"m 302 0 q 130 60 190 0 q 71 235 71 120 q 92 355 71 302 q 152 448 113 408 q 273 534 192 489 q 405 627 355 581 q 483 718 455 673 q 525 821 510 762 q 549 1006 539 880 l 675 1006 q 638 784 669 883 q 553 620 607 685 q 429 513 499 555 l 392 492 q 509 402 467 467 q 550 244 550 336 q 503 92 550 157 l 810 92 l 838 -125 l 811 -125 q 732 -90 765 -125 q 692 0 700 -54 l 302 0 m 304 94 q 394 136 362 94 q 427 249 427 178 q 278 418 427 402 q 213 344 231 387 q 195 241 195 300 q 304 94 195 94 z "},"ፉ":{"ha":970,"x_min":200,"x_max":914,"o":"m 433 383 q 523 424 491 383 q 555 538 555 465 q 528 651 555 616 q 439 686 500 686 q 356 641 389 686 q 323 530 323 595 q 352 420 323 457 q 433 383 380 383 m 542 289 q 421 146 460 210 q 363 -1 382 83 l 232 -1 q 287 152 254 91 q 389 289 320 214 q 254 366 307 300 q 200 524 200 431 q 220 640 200 591 q 277 724 239 689 q 389 791 315 760 l 442 814 q 554 872 507 842 q 622 925 602 902 q 654 978 642 949 q 675 1057 666 1007 l 806 1057 q 764 928 800 989 q 666 826 729 867 q 538 757 603 785 q 646 679 613 732 q 679 533 679 626 q 632 380 679 444 l 886 380 l 914 178 l 888 178 q 815 210 848 178 q 770 289 782 241 l 542 289 z "},"ፊ":{"ha":897,"x_min":71,"x_max":828,"o":"m 675 1006 q 638 784 669 883 q 553 620 607 685 q 429 513 499 555 l 392 492 q 509 402 467 467 q 550 244 550 336 q 504 93 550 157 q 650 154 601 96 q 700 318 700 211 l 700 371 l 828 371 l 828 330 q 493 0 828 0 l 302 0 q 130 60 190 0 q 71 235 71 120 q 92 355 71 302 q 152 448 113 408 q 273 534 192 489 q 405 627 355 581 q 483 718 455 673 q 525 821 510 762 q 549 1006 539 880 l 675 1006 m 304 94 q 394 136 362 94 q 427 249 427 178 q 278 418 427 402 q 213 344 231 387 q 195 241 195 300 q 304 94 195 94 z "},"ፋ":{"ha":893,"x_min":71,"x_max":838,"o":"m 811 178 q 738 210 771 178 q 693 289 705 241 l 533 289 l 533 0 l 407 0 l 407 289 l 302 289 q 134 352 197 289 q 71 524 71 416 q 260 791 71 728 q 318 816 275 796 q 402 858 361 836 q 474 907 444 880 q 522 972 504 935 q 546 1057 539 1009 l 676 1057 q 596 879 666 958 q 401 750 527 800 q 533 536 533 694 l 533 380 l 810 380 l 838 178 l 811 178 m 407 538 q 301 684 407 684 q 226 640 257 684 q 195 530 195 597 q 224 417 195 453 q 321 380 254 380 l 407 380 l 407 538 z "},"ፌ":{"ha":1046,"x_min":71,"x_max":990,"o":"m 675 1006 q 638 784 669 883 q 553 620 607 685 q 429 513 499 555 l 392 492 q 509 402 467 467 q 550 244 550 336 q 514 109 550 166 l 627 109 q 624 143 624 119 q 672 256 624 216 q 807 297 720 297 q 941 256 892 297 q 990 143 990 214 q 944 37 990 75 q 807 0 897 0 q 679 31 723 0 l 432 31 q 302 0 376 0 q 130 60 190 0 q 71 235 71 120 q 92 355 71 302 q 152 448 113 408 q 273 534 192 489 q 405 627 355 581 q 483 718 455 673 q 525 821 510 762 q 549 1006 539 880 l 675 1006 m 304 94 q 394 136 362 94 q 427 249 427 178 q 278 418 427 402 q 213 344 231 387 q 195 241 195 300 q 304 94 195 94 m 807 74 q 862 92 842 74 q 882 143 882 111 q 862 203 882 182 q 807 225 842 225 q 752 203 772 225 q 732 143 732 180 q 752 93 732 112 q 807 74 772 74 z "},"ፍ":{"ha":871,"x_min":69,"x_max":815,"o":"m 69 571 q 186 880 69 769 q 509 991 303 991 l 787 991 l 815 789 l 789 789 q 720 819 752 789 q 672 900 688 850 l 542 900 q 322 846 407 900 q 208 684 237 791 q 402 643 334 677 q 504 537 470 609 q 545 338 537 466 l 787 338 l 815 135 l 789 135 q 719 165 751 135 q 672 245 687 195 l 547 245 l 547 0 l 421 0 l 421 245 l 410 245 q 152 322 234 245 q 69 571 69 399 m 196 576 q 249 396 196 454 q 414 338 301 338 l 419 338 q 366 528 415 473 q 196 591 316 584 l 196 576 z "},"ፎ":{"ha":929,"x_min":125,"x_max":873,"o":"m 125 545 q 235 875 125 759 q 551 991 345 991 l 632 991 q 811 943 749 991 q 872 800 872 894 q 809 652 872 707 q 632 597 746 597 q 456 653 520 597 q 392 800 392 709 q 406 878 392 846 q 291 760 331 845 q 252 549 252 675 l 252 408 l 361 408 q 520 358 462 408 q 578 216 578 307 q 533 92 578 146 l 846 92 l 873 -125 l 847 -125 q 769 -90 802 -125 q 728 0 736 -55 l 125 0 l 125 545 m 632 911 q 547 881 578 911 q 515 799 515 851 q 548 709 515 744 q 632 675 580 675 q 716 709 684 675 q 749 799 749 744 q 717 881 749 851 q 632 911 686 911 m 252 314 l 252 92 l 314 92 q 418 123 382 92 q 454 212 454 155 q 418 286 454 257 q 326 314 382 314 l 252 314 z "},"ፏ":{"ha":932,"x_min":56,"x_max":876,"o":"m 435 92 l 435 317 l 371 317 q 132 358 208 317 q 56 494 56 399 q 113 633 56 570 q 302 764 170 697 q 405 830 366 795 q 463 902 444 865 q 482 991 482 939 l 610 991 q 551 824 610 901 q 383 696 493 747 l 349 679 q 471 642 427 669 q 536 564 515 614 q 559 415 556 513 l 847 415 l 875 212 l 848 212 q 780 240 812 212 q 732 317 748 269 l 561 317 l 561 92 l 848 92 l 876 -111 l 850 -111 q 780 -81 812 -111 q 732 0 747 -51 l 250 0 q 203 -81 235 -52 q 134 -111 171 -111 l 107 -111 l 135 92 l 435 92 m 433 415 q 413 527 431 493 q 356 575 396 562 q 218 591 315 589 q 182 510 182 555 q 229 437 182 460 q 371 415 276 415 l 433 415 z "},"ፐ":{"ha":958,"x_min":69,"x_max":889,"o":"m 861 991 l 889 789 l 863 789 q 790 821 824 789 q 745 900 757 852 l 542 900 l 542 0 l 415 0 l 415 900 l 212 900 q 167 821 199 852 q 96 789 134 789 l 69 789 l 97 991 l 861 991 z "},"ፑ":{"ha":958,"x_min":69,"x_max":889,"o":"m 542 494 l 789 494 l 817 278 l 790 278 q 712 313 745 278 q 671 403 679 347 l 542 403 l 542 0 l 415 0 l 415 900 l 212 900 q 167 821 199 852 q 96 789 134 789 l 69 789 l 97 991 l 861 991 l 889 789 l 863 789 q 790 821 824 789 q 745 900 757 852 l 542 900 l 542 494 z "},"ፒ":{"ha":958,"x_min":69,"x_max":889,"o":"m 861 991 l 889 789 l 863 789 q 790 821 824 789 q 745 900 757 852 l 542 900 l 542 92 l 673 92 q 721 172 688 140 q 790 203 753 203 l 817 203 l 794 47 l 817 -111 l 790 -111 q 720 -80 753 -111 q 673 0 687 -48 l 415 0 l 415 900 l 212 900 q 167 821 199 852 q 96 789 134 789 l 69 789 l 97 991 l 861 991 z "},"ፓ":{"ha":958,"x_min":69,"x_max":889,"o":"m 861 991 l 889 789 l 863 789 q 790 821 824 789 q 745 900 757 852 l 542 900 l 542 349 q 481 79 542 158 q 275 0 420 0 l 221 0 q 173 -79 207 -47 q 97 -111 139 -111 l 69 -111 l 97 92 l 241 92 q 375 146 336 92 q 415 335 415 200 l 415 900 l 212 900 q 167 821 199 852 q 96 789 134 789 l 69 789 l 97 991 l 861 991 z "},"ፔ":{"ha":958,"x_min":69,"x_max":889,"o":"m 415 900 l 212 900 q 167 821 199 852 q 96 789 134 789 l 69 789 l 97 991 l 861 991 l 889 789 l 863 789 q 790 821 824 789 q 745 900 757 852 l 542 900 l 542 367 l 669 367 q 808 320 757 367 q 859 195 859 273 q 795 50 859 100 q 615 0 731 0 l 415 0 l 415 900 m 542 272 l 542 92 l 591 92 q 699 116 663 92 q 734 191 734 140 q 629 272 734 272 l 542 272 z "},"ፕ":{"ha":958,"x_min":69,"x_max":889,"o":"m 390 900 l 212 900 q 167 821 199 852 q 96 789 134 789 l 69 789 l 97 991 l 861 991 l 889 789 l 863 789 q 790 821 824 789 q 745 900 757 852 l 517 900 l 517 619 l 667 619 l 667 0 l 541 0 l 541 528 l 390 528 l 390 900 z "},"ፖ":{"ha":1059,"x_min":89,"x_max":989,"o":"m 961 991 l 989 789 l 962 789 q 892 819 925 789 q 844 900 860 849 l 642 900 q 433 465 627 640 q 269 263 323 366 q 215 52 215 161 l 215 0 l 89 0 l 89 52 q 151 307 89 191 q 371 572 212 422 q 450 666 421 618 q 494 763 479 713 q 514 900 509 813 l 313 900 q 265 819 297 848 q 196 789 233 789 l 170 789 l 197 991 l 961 991 z "},"ፗ":{"ha":958,"x_min":69,"x_max":889,"o":"m 861 991 l 889 789 l 863 789 q 790 821 824 789 q 745 900 757 852 l 542 900 l 542 92 l 789 92 l 817 -111 l 790 -111 q 720 -81 753 -111 q 672 0 688 -51 l 285 0 q 237 -81 269 -52 q 168 -111 205 -111 l 142 -111 l 170 92 l 415 92 l 415 900 l 212 900 q 167 821 199 852 q 96 789 134 789 l 69 789 l 97 991 l 861 991 z "},"ፘ":{"ha":904,"x_min":69,"x_max":848,"o":"m 386 -14 q 69 241 69 -14 q 128 419 69 339 q 345 608 187 498 q 449 714 413 657 q 493 848 486 772 l 269 848 l 241 1051 l 268 1051 q 339 1019 307 1051 q 385 940 372 987 l 704 940 q 752 1021 719 990 q 822 1051 785 1051 l 848 1051 l 821 848 l 621 848 q 414 519 602 640 q 248 380 300 446 q 196 241 196 313 q 246 120 196 163 q 386 78 296 78 q 537 130 483 78 q 591 273 591 182 l 591 322 l 720 322 l 720 289 q 637 62 720 137 q 386 -14 555 -14 z "},"ፙ":{"ha":1423,"x_min":83,"x_max":1368,"o":"m 600 734 l 600 334 q 467 250 532 275 q 329 224 401 224 q 146 294 208 224 q 83 497 83 364 q 176 736 83 645 q 422 827 269 827 l 599 827 l 599 926 l 325 926 l 297 1129 l 323 1129 q 395 1097 362 1129 q 440 1018 428 1065 l 879 1018 q 927 1099 894 1068 q 997 1129 960 1129 l 1023 1129 l 996 926 l 725 926 l 725 827 l 958 827 q 1151 778 1084 827 q 1217 631 1217 730 q 1202 536 1217 592 q 1143 374 1187 479 l 1028 92 l 1225 92 q 1272 171 1238 139 q 1341 203 1305 203 l 1368 203 l 1346 47 l 1368 -110 l 1341 -110 q 1271 -78 1304 -110 q 1225 0 1238 -46 l 895 0 l 895 78 l 1002 338 l 928 338 q 778 387 831 338 q 725 528 725 435 l 728 574 l 741 734 l 600 734 m 335 318 q 412 328 380 318 q 473 361 445 337 l 473 734 l 427 734 q 264 673 321 734 q 207 494 207 612 q 241 364 207 410 q 335 318 275 318 m 864 734 l 851 589 l 848 541 q 881 454 848 479 q 999 429 913 429 l 1039 429 q 1078 538 1069 507 q 1090 591 1086 568 q 1095 631 1095 613 q 1065 709 1095 684 q 974 734 1036 734 l 864 734 z "},"ፚ":{"ha":933,"x_min":71,"x_max":878,"o":"m 325 1051 q 396 1019 363 1051 q 441 940 429 987 l 733 940 q 781 1021 748 990 q 851 1051 814 1051 l 878 1051 l 850 848 l 667 848 q 551 604 639 690 q 429 511 490 543 l 392 492 q 509 402 467 467 q 550 244 550 336 q 504 93 550 157 l 517 93 q 670 151 618 93 q 722 318 722 209 l 722 371 l 850 371 l 850 330 q 515 0 850 0 l 302 0 q 130 60 190 0 q 71 235 71 120 q 116 405 71 334 q 273 534 162 477 q 421 632 362 581 q 505 730 481 684 q 539 848 528 775 l 326 848 l 298 1051 l 325 1051 m 304 94 q 394 136 362 94 q 427 249 427 178 q 278 418 427 402 q 213 344 231 387 q 195 241 195 300 q 304 94 195 94 z "},"፡":{"ha":372,"x_min":100,"x_max":272,"o":"m 100 318 q 121 388 100 363 q 186 412 143 412 q 250 388 227 412 q 272 318 272 363 q 249 249 272 273 q 186 224 226 224 q 122 249 144 224 q 100 318 100 274 m 100 704 q 122 774 100 750 q 186 799 144 799 q 250 774 227 799 q 272 704 272 750 q 249 634 272 659 q 186 610 226 610 q 122 635 144 610 q 100 704 100 660 z "},"።":{"ha":703,"x_min":100,"x_max":603,"o":"m 100 318 q 121 388 100 363 q 186 412 143 412 q 250 388 227 412 q 272 318 272 363 q 249 249 272 273 q 186 224 226 224 q 122 249 144 224 q 100 318 100 274 m 100 704 q 122 774 100 750 q 186 799 144 799 q 250 774 227 799 q 272 704 272 750 q 249 634 272 659 q 186 610 226 610 q 122 635 144 610 q 100 704 100 660 m 431 318 q 453 389 431 366 q 517 412 475 412 q 581 388 558 412 q 603 318 603 363 q 580 249 603 273 q 517 224 557 224 q 454 248 477 224 q 431 318 431 271 m 431 704 q 517 799 431 799 q 581 774 558 799 q 603 704 603 750 q 580 634 603 659 q 517 610 557 610 q 454 633 477 610 q 431 704 431 657 z "},"፣":{"ha":536,"x_min":100,"x_max":436,"o":"m 182 262 q 203 332 182 307 q 268 357 225 357 q 332 332 309 357 q 354 262 354 308 q 331 193 354 218 q 268 168 308 168 q 204 193 227 168 q 182 262 182 218 m 182 528 q 204 598 182 574 q 268 623 226 623 q 332 598 309 623 q 354 528 354 574 q 331 458 354 483 q 268 433 308 433 q 204 458 227 433 q 182 528 182 484 m 100 699 l 100 812 l 436 812 l 436 699 l 100 699 z "},"፤":{"ha":536,"x_min":100,"x_max":436,"o":"m 182 642 q 268 736 182 736 q 332 711 311 736 q 354 642 354 687 q 331 572 354 597 q 268 547 308 547 q 204 572 227 547 q 182 642 182 597 m 100 812 l 100 926 l 436 926 l 436 812 l 100 812 m 182 376 q 204 446 182 420 q 268 471 227 471 q 331 446 308 471 q 354 376 354 422 q 332 307 354 331 q 268 282 309 282 q 204 306 226 282 q 182 376 182 330 m 436 205 l 436 92 l 100 92 l 100 205 l 436 205 z "},"፥":{"ha":536,"x_min":100,"x_max":436,"o":"m 182 262 q 203 332 182 307 q 268 357 225 357 q 332 332 309 357 q 354 262 354 308 q 331 193 354 218 q 268 168 308 168 q 204 193 227 168 q 182 262 182 218 m 182 760 q 204 830 182 806 q 268 854 226 854 q 332 830 309 854 q 354 760 354 806 q 331 690 354 715 q 268 665 308 665 q 204 690 227 665 q 182 760 182 715 m 100 454 l 100 568 l 436 568 l 436 454 l 100 454 z "},"፦":{"ha":803,"x_min":100,"x_max":703,"o":"m 100 318 q 121 388 100 363 q 186 412 143 412 q 250 388 227 412 q 272 318 272 363 q 249 249 272 273 q 186 224 226 224 q 122 249 144 224 q 100 318 100 274 m 100 704 q 122 774 100 750 q 186 799 144 799 q 250 774 227 799 q 272 704 272 750 q 249 634 272 659 q 186 610 226 610 q 122 635 144 610 q 100 704 100 660 m 367 454 l 367 568 l 703 568 l 703 454 l 367 454 z "},"፧":{"ha":372,"x_min":100,"x_max":272,"o":"m 100 179 q 186 273 100 273 q 250 249 229 273 q 272 179 272 224 q 249 110 272 134 q 186 85 226 85 q 122 110 144 85 q 100 179 100 135 m 100 843 q 186 937 100 937 q 250 913 229 937 q 272 843 272 888 q 249 773 272 798 q 186 749 226 749 q 122 774 144 749 q 100 843 100 799 m 100 511 q 121 581 100 556 q 186 606 143 606 q 250 581 227 606 q 272 511 272 557 q 249 441 272 466 q 186 416 226 416 q 122 441 144 416 q 100 511 100 467 z "},"፨":{"ha":869,"x_min":100,"x_max":770,"o":"m 349 179 q 435 273 349 273 q 499 249 477 273 q 521 179 521 224 q 498 110 521 134 q 435 85 475 85 q 372 109 395 85 q 349 179 349 132 m 349 843 q 435 937 349 937 q 499 913 477 937 q 521 843 521 888 q 498 773 521 798 q 435 749 475 749 q 372 772 395 749 q 349 843 349 796 m 349 511 q 371 582 349 559 q 435 606 393 606 q 498 581 476 606 q 521 511 521 557 q 498 441 521 466 q 435 416 475 416 q 373 439 398 416 q 349 511 349 461 m 100 318 q 121 388 100 363 q 186 412 143 412 q 250 388 227 412 q 272 318 272 363 q 249 249 272 273 q 186 224 226 224 q 122 249 144 224 q 100 318 100 274 m 100 704 q 122 774 100 750 q 186 799 144 799 q 250 774 227 799 q 272 704 272 750 q 249 634 272 659 q 186 610 226 610 q 122 635 144 610 q 100 704 100 660 m 597 318 q 620 389 597 366 q 684 412 642 412 q 747 388 725 412 q 770 318 770 363 q 747 249 770 273 q 684 224 724 224 q 621 248 644 224 q 597 318 597 271 m 597 704 q 684 799 597 799 q 747 774 725 799 q 770 704 770 750 q 747 634 770 659 q 684 610 724 610 q 621 633 644 610 q 597 704 597 657 z "},"፩":{"ha":779,"x_min":56,"x_max":724,"o":"m 696 92 l 724 -111 l 697 -111 q 627 -81 660 -111 q 579 0 595 -51 l 199 0 q 151 -81 183 -52 q 82 -111 119 -111 l 56 -111 l 83 92 l 696 92 m 340 871 l 473 871 l 359 711 q 516 670 452 706 q 612 575 579 635 q 644 440 644 516 q 573 245 644 315 q 374 176 501 176 q 180 241 249 176 q 111 419 111 307 q 121 503 111 460 q 150 587 132 545 q 196 674 168 629 q 340 871 224 720 m 372 271 q 479 312 438 271 q 519 427 519 353 q 465 560 519 515 q 300 610 410 605 q 255 518 273 570 q 237 424 237 465 q 273 311 237 351 q 372 271 308 271 m 696 1055 l 724 852 l 697 852 q 627 883 660 852 q 579 964 595 913 l 199 964 q 151 882 183 912 q 82 852 119 852 l 56 852 l 83 1055 l 696 1055 z "},"፪":{"ha":779,"x_min":56,"x_max":724,"o":"m 131 532 q 165 709 131 631 q 262 829 199 787 q 406 871 326 871 q 561 825 506 871 q 616 700 616 780 q 563 568 616 616 q 416 519 510 519 q 327 533 370 519 q 254 571 283 547 l 253 540 q 256 464 254 483 q 260 432 258 446 q 267 412 263 418 q 323 448 288 432 q 408 464 359 464 q 520 426 479 464 q 561 325 561 389 q 515 216 561 255 q 389 176 470 176 q 200 270 270 176 q 131 532 131 364 m 397 779 q 319 749 355 779 q 268 663 284 718 q 325 626 290 640 q 390 611 359 611 q 492 692 492 611 q 467 755 492 730 q 397 779 442 779 m 389 268 q 430 283 416 268 q 444 319 444 298 q 429 357 444 342 q 383 372 414 372 q 336 366 357 372 q 292 338 315 359 q 389 268 316 268 m 696 92 l 724 -111 l 697 -111 q 627 -81 660 -111 q 579 0 595 -51 l 199 0 q 151 -81 183 -52 q 82 -111 119 -111 l 56 -111 l 83 92 l 696 92 m 696 1055 l 724 852 l 697 852 q 627 883 660 852 q 579 964 595 913 l 199 964 q 151 882 183 912 q 82 852 119 852 l 56 852 l 83 1055 l 696 1055 z "},"፫":{"ha":779,"x_min":56,"x_max":724,"o":"m 696 92 l 724 -111 l 697 -111 q 627 -81 660 -111 q 579 0 595 -51 l 199 0 q 151 -81 183 -52 q 82 -111 119 -111 l 56 -111 l 83 92 l 696 92 m 696 1055 l 724 852 l 697 852 q 627 883 660 852 q 579 964 595 913 l 199 964 q 151 882 183 912 q 82 852 119 852 l 56 852 l 83 1055 l 696 1055 m 286 176 l 160 176 l 160 386 q 196 632 160 538 q 312 771 233 726 q 532 817 391 817 l 633 817 l 661 614 l 635 614 q 564 647 597 614 q 518 725 530 680 l 505 725 q 373 690 420 725 q 307 577 327 656 q 286 349 286 498 l 286 176 z "},"፬":{"ha":779,"x_min":56,"x_max":724,"o":"m 600 501 q 542 258 600 339 q 372 176 484 176 q 211 263 269 176 q 153 504 153 349 l 153 542 q 211 784 153 698 q 372 871 269 871 q 542 790 484 871 q 600 545 600 709 l 600 501 m 473 547 q 448 713 471 667 q 375 760 425 760 q 279 555 279 760 l 279 509 q 375 288 279 288 q 450 338 427 288 q 473 505 473 389 l 473 547 m 696 92 l 724 -111 l 697 -111 q 627 -81 660 -111 q 579 0 595 -51 l 199 0 q 151 -81 183 -52 q 82 -111 119 -111 l 56 -111 l 83 92 l 696 92 m 696 1055 l 724 852 l 697 852 q 627 883 660 852 q 579 964 595 913 l 199 964 q 151 882 183 912 q 82 852 119 852 l 56 852 l 83 1055 l 696 1055 z "},"፭":{"ha":779,"x_min":56,"x_max":724,"o":"m 697 486 q 627 516 659 486 q 579 596 594 546 l 380 596 l 361 583 l 302 549 q 232 494 254 521 q 210 436 210 468 q 248 362 210 386 q 368 338 286 338 l 581 338 q 622 399 591 376 q 697 421 653 421 l 724 421 l 701 293 l 724 163 l 697 163 q 622 185 653 163 q 581 245 591 207 l 389 245 q 151 289 219 245 q 83 433 83 333 q 101 509 83 475 q 153 572 119 543 q 273 648 188 602 q 364 713 331 680 q 412 781 397 746 q 427 871 427 817 l 554 871 q 481 688 554 779 l 696 688 l 724 486 l 697 486 m 696 92 l 724 -111 l 697 -111 q 627 -81 660 -111 q 579 0 595 -51 l 199 0 q 151 -81 183 -52 q 82 -111 119 -111 l 56 -111 l 83 92 l 696 92 m 696 1055 l 724 852 l 697 852 q 627 883 660 852 q 579 964 595 913 l 199 964 q 151 882 183 912 q 82 852 119 852 l 56 852 l 83 1055 l 696 1055 z "},"፮":{"ha":779,"x_min":56,"x_max":724,"o":"m 501 543 l 532 543 q 670 496 619 543 q 721 371 721 450 q 658 227 721 277 q 478 176 595 176 l 262 176 l 262 254 l 452 725 l 355 725 q 314 664 345 687 q 239 642 283 642 l 212 642 l 235 770 l 212 899 l 239 899 q 314 876 283 899 q 355 817 345 853 l 578 817 l 578 739 l 501 543 m 696 1055 l 724 852 l 697 852 q 627 883 660 852 q 579 964 595 913 l 199 964 q 151 882 183 912 q 82 852 119 852 l 56 852 l 83 1055 l 696 1055 m 696 92 l 724 -111 l 697 -111 q 627 -81 660 -111 q 579 0 595 -51 l 199 0 q 151 -81 183 -52 q 82 -111 119 -111 l 56 -111 l 83 92 l 696 92 m 464 449 l 390 268 l 454 268 q 562 292 526 268 q 597 367 597 316 q 492 449 597 449 l 464 449 z "},"፯":{"ha":779,"x_min":56,"x_max":724,"o":"m 428 701 q 420 740 428 728 q 392 759 412 752 q 340 765 372 765 l 302 765 q 257 687 290 720 q 186 654 224 654 l 160 654 l 187 857 l 339 857 q 496 825 447 857 q 545 720 545 793 q 494 525 545 651 l 418 338 l 538 338 q 579 398 548 375 q 654 421 610 421 l 681 421 l 659 293 l 681 164 l 654 164 q 579 186 610 164 q 538 245 548 209 l 290 245 l 290 323 l 372 529 q 413 636 398 595 q 428 701 428 676 m 696 1055 l 724 852 l 697 852 q 627 883 660 852 q 579 964 595 913 l 199 964 q 151 882 183 912 q 82 852 119 852 l 56 852 l 83 1055 l 696 1055 m 696 92 l 724 -111 l 697 -111 q 627 -81 660 -111 q 579 0 595 -51 l 199 0 q 151 -81 183 -52 q 82 -111 119 -111 l 56 -111 l 83 92 l 696 92 z "},"፰":{"ha":863,"x_min":56,"x_max":807,"o":"m 368 379 l 368 711 l 199 711 q 151 630 183 660 q 82 600 119 600 l 56 600 l 83 803 l 779 803 l 807 600 l 781 600 q 708 632 742 600 q 663 711 675 664 l 494 711 l 494 379 l 737 379 l 765 176 l 739 176 q 669 206 702 176 q 621 288 636 236 l 240 288 q 195 208 227 240 q 123 176 162 176 l 97 176 l 125 379 l 368 379 m 737 1055 l 765 852 l 739 852 q 669 882 702 852 q 621 964 636 912 l 240 964 q 195 884 227 916 q 123 852 162 852 l 97 852 l 125 1055 l 737 1055 m 737 92 l 765 -111 l 739 -111 q 669 -81 702 -111 q 621 0 636 -52 l 240 0 q 195 -79 227 -47 q 123 -111 162 -111 l 97 -111 l 125 92 l 737 92 z "},"፱":{"ha":779,"x_min":56,"x_max":724,"o":"m 603 819 l 603 418 q 547 237 603 300 q 387 174 492 174 q 229 238 283 174 q 175 421 175 302 l 175 819 l 301 819 l 301 692 l 476 692 l 476 819 l 603 819 m 696 1055 l 724 852 l 697 852 q 627 883 660 852 q 579 964 595 913 l 199 964 q 151 882 183 912 q 82 852 119 852 l 56 852 l 83 1055 l 696 1055 m 696 92 l 724 -111 l 697 -111 q 627 -81 660 -111 q 579 0 595 -51 l 199 0 q 151 -81 183 -52 q 82 -111 119 -111 l 56 -111 l 83 92 l 696 92 m 395 285 q 456 322 437 285 q 476 443 476 360 l 476 642 l 301 642 l 301 441 q 322 326 301 367 q 395 285 342 285 z "},"፲":{"ha":779,"x_min":56,"x_max":724,"o":"m 696 92 l 724 -111 l 697 -111 q 627 -81 660 -111 q 579 0 595 -51 l 199 0 q 151 -81 183 -52 q 82 -111 119 -111 l 56 -111 l 83 92 l 696 92 m 696 1055 l 724 852 l 697 852 q 627 883 660 852 q 579 964 595 913 l 199 964 q 151 882 183 912 q 82 852 119 852 l 56 852 l 83 1055 l 696 1055 m 326 852 l 453 852 l 453 203 l 326 203 l 326 852 z "},"፳":{"ha":863,"x_min":56,"x_max":807,"o":"m 175 176 l 175 207 q 202 355 175 290 q 307 514 229 420 q 357 598 339 552 q 379 711 375 645 l 199 711 q 151 630 183 660 q 82 600 119 600 l 56 600 l 83 803 l 779 803 l 807 600 l 781 600 q 708 632 742 600 q 663 711 675 664 l 507 711 q 484 587 503 642 q 428 479 465 531 q 572 420 525 455 q 648 326 619 385 q 688 176 677 267 l 561 176 q 533 286 553 244 q 480 354 513 328 q 370 401 447 380 q 301 207 301 297 l 301 176 l 175 176 m 737 1055 l 765 852 l 739 852 q 669 882 702 852 q 621 964 636 912 l 240 964 q 195 884 227 916 q 123 852 162 852 l 97 852 l 125 1055 l 737 1055 m 737 92 l 765 -111 l 739 -111 q 669 -81 702 -111 q 621 0 636 -52 l 240 0 q 195 -79 227 -47 q 123 -111 162 -111 l 97 -111 l 125 92 l 737 92 z "},"፴":{"ha":868,"x_min":69,"x_max":799,"o":"m 196 758 l 196 456 q 219 336 196 373 q 289 298 241 298 q 351 336 330 298 q 371 457 371 374 l 371 578 q 427 756 371 695 q 586 818 482 818 q 745 756 690 818 q 799 575 799 694 l 799 176 l 672 176 l 672 554 q 651 670 672 629 q 579 711 631 711 q 518 674 538 711 q 497 553 497 636 l 497 432 q 441 251 497 314 q 282 187 386 187 q 124 251 178 187 q 69 435 69 315 l 69 758 l 196 758 m 741 92 l 768 -111 l 742 -111 q 670 -79 703 -111 q 624 0 636 -47 l 243 0 q 197 -79 230 -47 q 126 -111 165 -111 l 100 -111 l 127 92 l 741 92 m 741 1055 l 768 852 l 742 852 q 670 884 703 852 q 624 964 636 916 l 243 964 q 197 884 230 916 q 126 852 165 852 l 100 852 l 127 1055 l 741 1055 z "},"፵":{"ha":928,"x_min":69,"x_max":859,"o":"m 518 176 l 663 507 l 643 507 q 548 528 590 507 q 489 578 506 548 q 420 467 471 503 q 283 431 370 431 q 125 490 182 431 q 69 656 69 549 l 69 803 l 196 803 l 196 673 q 220 572 196 602 q 294 542 245 542 q 373 576 347 542 q 399 685 399 610 l 399 803 l 525 803 l 525 755 q 628 618 525 618 q 706 649 680 618 q 732 755 732 681 l 732 803 l 859 803 l 859 745 q 832 618 859 680 l 644 176 l 518 176 m 766 1055 l 794 852 l 768 852 q 698 882 731 852 q 650 964 665 912 l 269 964 q 224 884 256 916 q 153 852 191 852 l 126 852 l 154 1055 l 766 1055 m 766 92 l 794 -111 l 768 -111 q 698 -81 731 -111 q 650 0 665 -52 l 269 0 q 224 -79 256 -47 q 153 -111 191 -111 l 126 -111 l 154 92 l 766 92 z "},"፶":{"ha":779,"x_min":56,"x_max":724,"o":"m 317 176 l 428 432 l 400 432 q 227 491 288 432 q 165 656 165 551 l 165 803 l 292 803 l 292 675 q 318 575 292 607 q 399 543 345 543 q 479 578 450 543 q 507 672 507 612 l 507 803 l 633 803 l 633 760 q 600 549 633 629 l 443 176 l 317 176 m 696 1055 l 724 852 l 697 852 q 627 883 660 852 q 579 964 595 913 l 199 964 q 151 882 183 912 q 82 852 119 852 l 56 852 l 83 1055 l 696 1055 m 696 92 l 724 -111 l 697 -111 q 627 -81 660 -111 q 579 0 595 -51 l 199 0 q 151 -81 183 -52 q 82 -111 119 -111 l 56 -111 l 83 92 l 696 92 z "},"፷":{"ha":863,"x_min":56,"x_max":807,"o":"m 378 711 l 199 711 q 151 630 183 660 q 82 600 119 600 l 56 600 l 83 803 l 779 803 l 807 600 l 781 600 q 708 632 742 600 q 663 711 675 664 l 504 711 l 458 600 l 558 600 l 467 379 l 737 379 l 765 176 l 739 176 q 669 206 702 176 q 621 288 636 236 l 240 288 q 195 208 227 240 q 123 176 162 176 l 97 176 l 125 379 l 340 379 l 395 509 l 294 509 l 378 711 m 737 92 l 765 -111 l 739 -111 q 669 -81 702 -111 q 621 0 636 -52 l 240 0 q 195 -79 227 -47 q 123 -111 162 -111 l 97 -111 l 125 92 l 737 92 m 737 1055 l 765 852 l 739 852 q 669 882 702 852 q 621 964 636 912 l 240 964 q 195 884 227 916 q 123 852 162 852 l 97 852 l 125 1055 l 737 1055 z "},"፸":{"ha":793,"x_min":69,"x_max":737,"o":"m 526 555 q 374 594 431 555 q 317 701 317 633 q 319 729 317 721 q 196 490 196 690 l 196 450 q 227 365 196 391 q 328 338 258 338 l 435 338 q 477 399 446 376 q 551 421 507 421 l 578 421 l 555 293 l 578 163 l 551 163 q 477 185 507 163 q 435 245 446 207 l 313 245 q 131 295 193 245 q 69 435 69 344 l 69 482 q 171 753 69 665 q 481 840 273 840 l 528 840 q 683 804 629 840 q 737 701 737 768 q 680 594 737 632 q 526 555 623 555 m 710 1055 l 737 852 l 711 852 q 641 882 674 852 q 593 964 608 912 l 212 964 q 167 884 199 916 q 96 852 134 852 l 69 852 l 97 1055 l 710 1055 m 710 92 l 737 -111 l 711 -111 q 641 -81 674 -111 q 593 0 608 -52 l 212 0 q 167 -79 199 -47 q 96 -111 134 -111 l 69 -111 l 97 92 l 710 92 m 526 758 q 463 742 485 758 q 440 699 440 726 q 463 652 440 670 q 526 633 486 633 q 590 652 567 633 q 614 699 614 670 q 591 742 614 726 q 526 758 568 758 z "},"፹":{"ha":1107,"x_min":56,"x_max":1051,"o":"m 612 711 l 494 711 l 494 176 l 368 176 l 368 711 l 199 711 q 151 630 183 660 q 82 600 119 600 l 56 600 l 83 803 l 1023 803 l 1051 600 l 1025 600 q 955 630 987 600 q 907 711 922 661 l 739 711 l 739 176 l 612 176 l 612 711 m 860 1055 l 888 852 l 861 852 q 789 884 823 852 q 743 964 755 916 l 363 964 q 315 882 347 912 q 245 852 282 852 l 220 852 l 248 1055 l 860 1055 m 860 92 l 888 -111 l 861 -111 q 789 -79 823 -111 q 743 0 755 -47 l 363 0 q 315 -81 347 -52 q 245 -111 282 -111 l 220 -111 l 248 92 l 860 92 z "},"፺":{"ha":779,"x_min":56,"x_max":724,"o":"m 339 857 q 496 825 447 857 q 545 720 545 793 q 504 550 545 640 l 604 550 l 450 176 l 323 176 l 440 458 l 343 458 l 387 568 q 416 644 405 611 q 428 701 428 676 q 420 740 428 728 q 392 759 412 752 q 340 765 372 765 l 302 765 q 257 687 290 720 q 186 654 224 654 l 160 654 l 187 857 l 339 857 m 696 1055 l 724 852 l 697 852 q 627 883 660 852 q 579 964 595 913 l 199 964 q 151 882 183 912 q 82 852 119 852 l 56 852 l 83 1055 l 696 1055 m 696 92 l 724 -111 l 697 -111 q 627 -81 660 -111 q 579 0 595 -51 l 199 0 q 151 -81 183 -52 q 82 -111 119 -111 l 56 -111 l 83 92 l 696 92 z "},"፻":{"ha":779,"x_min":56,"x_max":724,"o":"m 696 92 l 724 -111 l 697 -111 q 627 -81 660 -111 q 579 0 595 -51 l 199 0 q 151 -81 183 -52 q 82 -111 119 -111 l 56 -111 l 83 92 l 696 92 m 696 1055 l 724 852 l 697 852 q 627 883 660 852 q 579 964 595 913 l 199 964 q 151 882 183 912 q 82 852 119 852 l 56 852 l 83 1055 l 696 1055 m 317 176 l 317 292 q 262 515 317 401 q 221 617 234 574 q 208 697 208 659 q 259 823 208 775 q 396 871 310 871 q 531 825 483 871 q 579 703 579 780 q 537 571 579 624 q 407 488 495 517 q 443 293 443 391 l 443 176 l 317 176 m 396 777 q 349 755 367 777 q 332 703 332 734 q 344 640 332 669 q 370 578 356 610 q 431 621 406 586 q 456 699 456 656 q 439 755 456 733 q 396 777 422 777 z "},"፼":{"ha":943,"x_min":56,"x_max":888,"o":"m 625 176 l 625 243 q 599 393 625 320 l 288 290 l 290 244 l 290 176 l 164 176 l 164 243 q 110 459 164 353 q 69 554 82 513 q 56 635 56 595 q 106 761 56 713 q 243 808 157 808 q 378 763 330 808 q 427 640 427 717 q 385 520 427 570 q 249 439 343 471 l 273 364 l 568 465 q 527 564 537 528 q 517 635 517 600 q 568 761 517 713 q 704 808 618 808 q 839 763 790 808 q 888 640 888 718 q 846 508 888 562 q 715 425 804 455 l 729 386 q 751 244 751 321 l 751 176 l 625 176 m 762 1055 l 790 852 l 764 852 q 694 883 726 852 q 646 964 661 913 l 265 964 q 220 884 252 916 q 149 852 187 852 l 122 852 l 150 1055 l 762 1055 m 762 92 l 790 -111 l 764 -111 q 694 -81 726 -111 q 646 0 661 -51 l 265 0 q 220 -79 252 -47 q 149 -111 187 -111 l 122 -111 l 150 92 l 762 92 m 704 714 q 659 693 677 714 q 640 640 640 672 q 652 577 640 607 q 677 515 664 548 q 739 558 713 523 q 764 636 764 593 q 748 692 764 670 q 704 714 732 714 m 243 714 q 197 693 216 714 q 179 640 179 672 q 180 616 179 627 q 185 593 182 605 q 211 529 189 582 q 275 567 248 538 q 302 636 302 596 q 287 692 302 670 q 243 714 271 714 z "},"ሇ":{"ha":1311,"x_min":56,"x_max":1255,"o":"m 812 957 q 936 994 908 987 q 992 1003 964 1000 q 1050 1006 1021 1006 q 1204 961 1153 1006 q 1255 833 1255 916 q 1197 689 1255 740 q 1032 639 1139 639 l 939 639 l 939 350 q 858 81 939 176 q 628 -14 777 -14 q 407 80 484 -14 q 330 353 330 174 l 330 389 l 199 389 q 152 309 185 340 q 82 278 119 278 l 56 278 l 78 436 l 56 591 l 82 591 q 152 561 119 591 q 199 481 184 530 l 330 481 l 330 991 l 457 991 l 457 346 q 501 156 457 215 q 637 97 545 97 q 769 156 726 97 q 812 347 812 216 l 812 957 m 1040 911 q 939 888 975 911 l 939 730 l 1017 730 q 1132 832 1132 730 q 1108 892 1132 874 q 1040 911 1085 911 z "},"ቇ":{"ha":926,"x_min":69,"x_max":857,"o":"m 424 718 q 313 777 357 730 q 269 888 269 823 q 323 1020 269 970 q 464 1069 377 1069 q 604 1025 552 1069 q 656 904 656 981 q 587 747 656 818 q 537 690 548 708 q 526 661 526 673 l 526 659 q 774 605 692 659 q 857 437 857 551 q 771 272 857 328 q 526 215 685 215 l 526 0 l 214 0 q 167 -80 200 -48 q 97 -111 134 -111 l 71 -111 l 93 47 l 71 203 l 97 203 q 166 172 134 203 q 214 92 199 141 l 400 92 l 400 215 q 154 270 239 215 q 69 437 69 326 q 151 605 69 551 q 400 659 233 659 q 424 718 404 691 m 400 568 q 244 538 296 568 q 193 439 193 509 q 214 360 193 387 q 281 320 235 334 q 400 307 326 307 l 400 568 m 526 307 q 683 337 633 307 q 733 437 733 367 q 682 537 733 506 q 526 568 631 568 l 526 307 m 463 975 q 413 952 432 975 q 393 896 393 929 q 484 798 393 822 q 532 900 532 842 q 514 955 532 935 q 463 975 497 975 z "},"ኇ":{"ha":1133,"x_min":56,"x_max":1078,"o":"m 838 597 q 662 653 726 597 q 597 800 597 709 q 611 878 597 846 q 497 760 536 845 q 457 549 457 675 l 457 469 l 730 469 l 730 0 l 473 0 q 427 -80 460 -48 q 357 -111 393 -111 l 330 -111 l 353 47 l 330 203 l 357 203 q 426 172 393 203 q 473 92 459 141 l 604 92 l 604 376 l 330 376 l 330 539 l 201 539 q 160 448 193 482 q 82 414 127 414 l 56 414 l 83 631 l 335 631 q 465 899 357 806 q 757 991 573 991 l 838 991 q 1016 943 955 991 q 1078 800 1078 894 q 1015 652 1078 707 q 838 597 951 597 m 838 911 q 752 881 784 911 q 721 799 721 851 q 753 709 721 744 q 838 675 785 675 q 922 709 890 675 q 954 799 954 744 q 923 881 954 851 q 838 911 891 911 z "},"ኯ":{"ha":1050,"x_min":56,"x_max":939,"o":"m 330 496 q 359 685 330 609 q 285 765 309 708 q 261 920 261 823 l 261 1055 l 387 1055 l 387 924 q 421 783 387 813 q 631 863 498 863 q 860 771 781 863 q 939 498 939 679 l 939 375 l 812 375 l 812 501 q 769 692 812 632 q 637 751 726 751 q 501 693 545 751 q 457 503 457 634 l 457 0 l 330 0 l 330 403 l 199 403 q 152 321 184 351 q 82 292 120 292 l 56 292 l 83 494 l 330 494 l 330 496 z "},"ዏ":{"ha":1291,"x_min":56,"x_max":1207,"o":"m 920 991 q 1131 923 1055 991 q 1207 741 1207 854 q 1173 604 1207 665 q 1075 510 1139 544 q 926 476 1011 476 l 817 476 l 629 0 l 500 0 l 671 412 q 566 401 623 401 q 396 450 458 401 q 317 590 334 499 l 199 590 q 152 510 184 540 q 82 479 120 479 l 56 479 l 83 682 l 311 682 q 410 905 317 819 q 650 991 503 991 l 920 991 m 571 496 q 701 525 644 496 l 701 900 l 660 900 q 538 869 588 900 q 461 784 488 838 q 435 660 435 729 q 469 539 435 583 q 571 496 503 496 m 828 900 l 828 568 l 901 568 q 1037 611 990 568 q 1083 741 1083 654 q 1037 859 1083 818 q 905 900 991 900 l 828 900 z "},"ዯ":{"ha":1133,"x_min":56,"x_max":1078,"o":"m 509 0 l 509 131 q 486 330 509 244 q 411 503 463 415 l 199 503 q 152 422 184 452 q 82 392 120 392 l 56 392 l 83 595 l 363 595 q 318 766 318 688 q 348 895 318 840 q 434 977 378 949 q 558 1006 489 1006 q 737 951 671 1006 q 810 796 802 897 l 1050 796 l 1078 593 l 1051 593 q 981 623 1013 593 q 933 704 948 654 l 803 704 q 713 572 782 623 q 549 511 644 520 q 614 336 594 420 q 635 153 635 252 l 635 0 l 509 0 m 564 911 q 474 872 507 911 q 441 775 441 834 q 504 599 441 685 q 641 654 595 610 q 688 772 688 699 q 654 873 688 836 q 564 911 620 911 z "},"ጏ":{"ha":808,"x_min":56,"x_max":684,"o":"m 557 393 q 528 630 557 555 q 430 738 499 705 q 220 770 361 770 l 199 770 q 151 689 183 720 q 82 659 119 659 l 56 659 l 83 861 l 215 861 q 290 859 255 861 l 290 1055 l 416 1055 l 416 844 q 622 719 560 816 q 684 431 684 622 l 684 0 l 199 0 q 152 -80 185 -48 q 82 -111 119 -111 l 56 -111 l 78 47 l 56 203 l 82 203 q 152 172 119 203 q 199 92 184 141 l 557 92 l 557 393 z "},"ጟ":{"ha":981,"x_min":56,"x_max":925,"o":"m 597 92 l 597 275 q 569 512 597 437 q 471 620 540 587 q 260 652 402 652 l 239 652 q 193 573 226 606 q 122 541 160 541 l 96 541 l 123 743 l 293 743 l 329 742 l 329 913 l 199 913 q 153 842 185 869 q 82 815 121 815 l 56 815 l 78 951 l 56 1088 l 82 1088 q 152 1061 120 1088 q 199 990 184 1035 l 586 990 q 633 1062 601 1037 q 703 1088 665 1088 l 729 1088 l 707 951 l 729 815 l 703 815 q 632 841 664 815 q 586 913 600 867 l 456 913 l 456 726 q 662 601 600 697 q 724 313 724 504 l 724 92 l 897 92 l 925 -111 l 899 -111 q 829 -81 861 -111 q 781 0 796 -51 l 378 0 q 332 -79 365 -47 q 261 -111 300 -111 l 235 -111 l 262 92 l 597 92 z "},"ፇ":{"ha":875,"x_min":56,"x_max":806,"o":"m 329 800 q 409 951 341 896 q 574 1006 476 1006 q 746 946 686 1006 q 806 771 806 886 q 785 650 806 703 q 724 557 764 598 q 603 471 684 515 q 474 381 525 427 q 395 291 423 335 q 353 187 368 246 q 328 0 338 128 l 201 0 q 239 223 207 124 q 325 387 271 323 q 393 453 358 425 q 485 514 427 481 q 377 590 419 535 q 328 724 334 644 l 199 724 q 152 644 185 675 q 82 612 119 612 l 56 612 l 78 762 l 56 911 l 82 911 q 152 880 119 911 q 199 800 184 849 l 329 800 m 599 587 q 679 722 667 631 l 452 722 q 599 587 467 602 m 572 911 q 491 880 521 911 q 453 800 461 849 l 679 800 q 572 911 667 911 z "},"ᎀ":{"ha":1818,"x_min":97,"x_max":1763,"o":"m 754 900 l 614 900 l 614 151 q 359 -14 497 -14 q 97 433 97 -14 q 193 842 97 693 q 457 991 290 991 l 945 991 q 1128 916 1060 991 q 1215 694 1196 840 l 1362 694 q 1536 745 1420 745 q 1704 699 1646 745 q 1763 567 1763 653 q 1704 429 1763 480 q 1536 378 1645 378 q 1369 430 1429 378 q 1310 567 1310 482 q 1312 603 1310 591 l 1222 603 l 1222 578 q 954 102 1222 102 l 754 102 l 754 900 m 366 81 q 430 98 401 81 q 488 155 459 116 l 488 900 l 468 900 q 285 783 349 900 q 221 437 221 667 q 259 173 221 264 q 366 81 298 81 m 880 900 l 880 193 l 936 193 q 1059 280 1019 193 q 1099 553 1099 368 q 1060 815 1099 731 q 942 900 1021 900 l 880 900 m 1536 665 q 1461 640 1488 665 q 1434 567 1434 614 q 1461 488 1434 518 q 1536 457 1488 457 q 1612 488 1584 457 q 1639 567 1639 518 q 1612 639 1639 612 q 1536 665 1585 665 z "},"ᎁ":{"ha":1643,"x_min":83,"x_max":1588,"o":"m 600 900 l 600 498 q 477 418 543 448 q 329 389 411 389 q 147 459 210 389 q 83 663 83 530 q 125 834 83 759 q 244 950 166 909 q 422 991 321 991 l 958 991 q 1217 796 1217 991 q 1165 595 1217 724 l 1299 595 l 1299 708 l 1425 708 l 1425 468 l 1560 468 l 1588 252 l 1561 252 q 1482 287 1515 252 q 1442 376 1450 322 l 1299 376 l 1299 503 l 1128 503 l 924 0 l 794 0 l 1002 503 l 928 503 q 778 551 831 503 q 725 693 725 600 l 728 739 l 741 900 l 600 900 m 335 484 q 412 493 379 484 q 473 526 445 503 l 473 900 l 427 900 q 264 839 321 900 q 207 660 207 777 q 241 529 207 575 q 335 484 275 484 m 864 900 l 851 754 l 848 705 q 881 620 848 645 q 999 595 913 595 l 1039 595 q 1078 705 1069 675 q 1091 759 1087 736 q 1095 796 1095 782 q 1065 874 1095 849 q 974 900 1036 900 l 864 900 z "},"ᎂ":{"ha":1390,"x_min":83,"x_max":1335,"o":"m 718 0 q 676 -90 710 -56 q 599 -125 643 -125 l 572 -125 l 600 92 l 832 92 l 1002 503 l 928 503 q 778 551 831 503 q 725 693 725 600 l 728 739 l 741 900 l 600 900 l 600 498 q 477 418 543 448 q 329 389 411 389 q 147 459 210 389 q 83 663 83 530 q 125 834 83 759 q 244 950 166 909 q 422 991 321 991 l 958 991 q 1217 796 1217 991 q 1208 729 1217 766 q 1186 651 1200 692 q 1072 367 1173 610 l 1146 367 q 1283 321 1232 367 q 1335 195 1335 275 q 1272 51 1335 101 q 1092 0 1209 0 l 718 0 m 335 484 q 412 493 379 484 q 473 526 445 503 l 473 900 l 427 900 q 264 839 321 900 q 207 660 207 777 q 241 529 207 575 q 335 484 275 484 m 864 900 l 851 754 l 848 705 q 881 620 848 645 q 999 595 913 595 l 1039 595 q 1078 705 1069 675 q 1091 759 1087 736 q 1095 796 1095 782 q 1065 874 1095 849 q 974 900 1036 900 l 864 900 m 1035 272 l 961 92 l 1068 92 q 1176 116 1140 92 q 1211 191 1211 140 q 1105 272 1211 272 l 1035 272 z "},"ᎃ":{"ha":1804,"x_min":83,"x_max":1748,"o":"m 741 900 l 600 900 l 600 471 l 414 0 l 285 0 l 441 378 q 329 361 388 361 q 83 663 83 361 q 125 833 83 758 q 244 950 167 909 q 422 991 321 991 l 957 991 q 1123 945 1059 991 q 1204 810 1188 899 l 1349 810 q 1522 860 1407 860 q 1690 814 1632 860 q 1748 682 1748 768 q 1689 544 1748 595 q 1522 493 1630 493 q 1356 545 1416 493 q 1296 682 1296 596 q 1299 718 1296 707 l 1206 718 q 1134 538 1196 601 q 965 476 1072 476 l 741 476 l 741 900 m 335 456 q 412 466 379 456 q 473 498 445 475 l 473 900 l 427 900 q 264 838 321 900 q 207 660 207 775 q 239 508 207 561 q 335 456 272 456 m 867 900 l 867 568 l 942 568 q 1048 614 1011 568 q 1084 754 1084 661 q 1050 861 1084 821 q 954 900 1017 900 l 867 900 m 1522 781 q 1447 754 1474 781 q 1419 682 1419 728 q 1447 603 1419 633 q 1522 572 1474 572 q 1597 602 1570 572 q 1625 682 1625 632 q 1598 754 1625 728 q 1522 781 1571 781 z "},"ᎄ":{"ha":1349,"x_min":125,"x_max":1293,"o":"m 607 0 l 607 643 q 564 833 607 774 q 432 893 521 893 q 296 834 340 893 q 252 644 252 776 l 252 0 l 125 0 l 125 637 q 201 910 125 815 q 425 1004 277 1004 q 654 913 576 1004 q 733 640 733 821 l 733 557 l 893 557 q 1067 607 951 607 q 1236 561 1178 607 q 1293 429 1293 515 q 1234 291 1293 342 q 1067 240 1175 240 q 900 292 960 240 q 840 429 840 345 q 843 465 840 454 l 733 465 l 733 0 l 607 0 m 1067 528 q 991 502 1019 528 q 964 429 964 475 q 991 350 964 380 q 1067 319 1018 319 q 1142 349 1114 319 q 1169 429 1169 379 q 1142 502 1169 476 q 1067 528 1114 528 z "},"ᎅ":{"ha":1202,"x_min":125,"x_max":1146,"o":"m 733 0 l 607 0 l 607 643 q 564 833 607 774 q 432 893 521 893 q 296 834 340 893 q 252 644 252 776 l 252 0 l 125 0 l 125 637 q 201 910 125 815 q 425 1004 277 1004 q 654 913 576 1004 q 733 640 733 821 l 733 494 l 857 494 l 857 608 l 983 608 l 983 368 l 1118 368 l 1146 151 l 1120 151 q 1041 186 1074 151 q 1000 277 1008 222 l 857 277 l 857 403 l 733 403 l 733 0 z "}}}
